ISO-10303-21;
HEADER;
/* Generated by software containing ST-Developer
 * from STEP Tools, Inc. (www.steptools.com) 
 */
/* OPTION: using custom renumber hook */

FILE_DESCRIPTION(
/* description */ ('STEP AP242 Edition 2',
'CAx-IF Rec.Pracs.---Representation and Presentation of Product Manufa
cturing Information (PMI)---4.0---2014-10-13',
'CAx-IF Rec.Pracs.---3D Tessellated Geometry---0.4---2014-09-14','2;1',
'CAx-IF Rec.Pracs.---User Defined Attributes---1.5---2016-08-15'),
/* implementation_level */ '2;1');

FILE_NAME(
/* name */ '100uf capacitor',
/* time_stamp */ '2026-08-21T14:23:48Z',
/* author */ (''),
/* organization */ (''),
/* preprocessor_version */ 'ST-DEVELOPER v20',
/* originating_system */ 'ONSHAPE BY PTC INC, 1.219',
/* authorisation */ '  ');

FILE_SCHEMA (('AP242_MANAGED_MODEL_BASED_3D_ENGINEERING_MIM_LF { 1 0 10303 442 3 1 4 }'));
ENDSEC;

DATA;
#10=ADVANCED_BREP_SHAPE_REPRESENTATION('',(#43),#1418);
#11=TOROIDAL_SURFACE('',#756,0.00375,0.00025);
#12=TOROIDAL_SURFACE('',#757,0.00375,0.00025);
#13=TOROIDAL_SURFACE('',#758,0.0038,0.0002);
#14=TOROIDAL_SURFACE('',#759,0.0038,0.0002);
#15=TOROIDAL_SURFACE('',#760,0.0038,0.0002);
#16=TOROIDAL_SURFACE('',#761,0.0038,0.0002);
#17=PLANE('',#734);
#18=PLANE('',#743);
#19=PLANE('',#747);
#20=PLANE('',#753);
#21=PLANE('',#755);
#22=PLANE('',#764);
#23=PLANE('',#767);
#24=CIRCLE('',#732,0.004);
#25=CIRCLE('',#733,0.004);
#26=CIRCLE('',#735,0.0038);
#27=CIRCLE('',#736,0.00375);
#28=CIRCLE('',#738,0.0035);
#29=CIRCLE('',#739,0.0035);
#30=CIRCLE('',#741,0.004);
#31=CIRCLE('',#742,0.004);
#32=CIRCLE('',#744,0.0001);
#33=CIRCLE('',#745,0.0001);
#34=CIRCLE('',#746,0.0038);
#35=CIRCLE('',#748,0.0038);
#36=CIRCLE('',#749,0.00375);
#37=CIRCLE('',#751,0.00275);
#38=CIRCLE('',#752,0.00275);
#39=CIRCLE('',#754,0.0038);
#40=CIRCLE('',#763,0.0001);
#41=CIRCLE('',#766,0.0001);
#42=CLOSED_SHELL('',(#626,#627,#628,#629,#630,#631,#632,#633,#634,#635,
#636,#637,#638,#639,#640,#641,#642,#643,#644));
#43=MANIFOLD_SOLID_BREP('Part 1',#42);
#44=DRAUGHTING_PRE_DEFINED_COLOUR('white');
#45=SHAPE_REPRESENTATION_RELATIONSHIP('','',#708,#51);
#46=SHAPE_REPRESENTATION_RELATIONSHIP('','',#709,#52);
#47=SHAPE_REPRESENTATION_RELATIONSHIP('','',#710,#53);
#48=SHAPE_REPRESENTATION_RELATIONSHIP('','',#711,#54);
#49=SHAPE_REPRESENTATION_RELATIONSHIP('','',#712,#55);
#50=SHAPE_REPRESENTATION_RELATIONSHIP('','',#713,#10);
#51=MANIFOLD_SURFACE_SHAPE_REPRESENTATION('',(#697),#1413);
#52=MANIFOLD_SURFACE_SHAPE_REPRESENTATION('',(#698),#1414);
#53=MANIFOLD_SURFACE_SHAPE_REPRESENTATION('',(#699),#1415);
#54=MANIFOLD_SURFACE_SHAPE_REPRESENTATION('',(#700),#1416);
#55=MANIFOLD_SURFACE_SHAPE_REPRESENTATION('',(#701),#1417);
#56=ORIENTED_EDGE('',*,*,#191,.F.);
#57=ORIENTED_EDGE('',*,*,#192,.F.);
#58=ORIENTED_EDGE('',*,*,#193,.F.);
#59=ORIENTED_EDGE('',*,*,#194,.F.);
#60=ORIENTED_EDGE('',*,*,#195,.F.);
#61=ORIENTED_EDGE('',*,*,#196,.F.);
#62=ORIENTED_EDGE('',*,*,#197,.F.);
#63=ORIENTED_EDGE('',*,*,#198,.F.);
#64=ORIENTED_EDGE('',*,*,#199,.F.);
#65=ORIENTED_EDGE('',*,*,#200,.F.);
#66=ORIENTED_EDGE('',*,*,#201,.F.);
#67=ORIENTED_EDGE('',*,*,#202,.F.);
#68=ORIENTED_EDGE('',*,*,#191,.T.);
#69=ORIENTED_EDGE('',*,*,#203,.F.);
#70=ORIENTED_EDGE('',*,*,#204,.F.);
#71=ORIENTED_EDGE('',*,*,#205,.F.);
#72=ORIENTED_EDGE('',*,*,#206,.F.);
#73=ORIENTED_EDGE('',*,*,#207,.F.);
#74=ORIENTED_EDGE('',*,*,#208,.F.);
#75=ORIENTED_EDGE('',*,*,#209,.F.);
#76=ORIENTED_EDGE('',*,*,#210,.F.);
#77=ORIENTED_EDGE('',*,*,#211,.F.);
#78=ORIENTED_EDGE('',*,*,#212,.F.);
#79=ORIENTED_EDGE('',*,*,#207,.T.);
#80=ORIENTED_EDGE('',*,*,#213,.F.);
#81=ORIENTED_EDGE('',*,*,#214,.T.);
#82=ORIENTED_EDGE('',*,*,#215,.F.);
#83=ORIENTED_EDGE('',*,*,#216,.F.);
#84=ORIENTED_EDGE('',*,*,#217,.F.);
#85=ORIENTED_EDGE('',*,*,#218,.F.);
#86=ORIENTED_EDGE('',*,*,#219,.F.);
#87=ORIENTED_EDGE('',*,*,#220,.F.);
#88=ORIENTED_EDGE('',*,*,#221,.F.);
#89=ORIENTED_EDGE('',*,*,#222,.F.);
#90=ORIENTED_EDGE('',*,*,#223,.F.);
#91=ORIENTED_EDGE('',*,*,#224,.F.);
#92=ORIENTED_EDGE('',*,*,#225,.T.);
#93=ORIENTED_EDGE('',*,*,#226,.F.);
#94=ORIENTED_EDGE('',*,*,#227,.T.);
#95=ORIENTED_EDGE('',*,*,#228,.F.);
#96=ORIENTED_EDGE('',*,*,#229,.F.);
#97=ORIENTED_EDGE('',*,*,#230,.F.);
#98=ORIENTED_EDGE('',*,*,#231,.F.);
#99=ORIENTED_EDGE('',*,*,#232,.F.);
#100=ORIENTED_EDGE('',*,*,#233,.F.);
#101=ORIENTED_EDGE('',*,*,#234,.F.);
#102=ORIENTED_EDGE('',*,*,#235,.F.);
#103=ORIENTED_EDGE('',*,*,#236,.F.);
#104=ORIENTED_EDGE('',*,*,#225,.F.);
#105=ORIENTED_EDGE('',*,*,#237,.F.);
#106=ORIENTED_EDGE('',*,*,#238,.F.);
#107=ORIENTED_EDGE('',*,*,#239,.F.);
#108=ORIENTED_EDGE('',*,*,#240,.F.);
#109=ORIENTED_EDGE('',*,*,#241,.F.);
#110=ORIENTED_EDGE('',*,*,#242,.F.);
#111=ORIENTED_EDGE('',*,*,#243,.T.);
#112=ORIENTED_EDGE('',*,*,#244,.F.);
#113=ORIENTED_EDGE('',*,*,#245,.F.);
#114=ORIENTED_EDGE('',*,*,#246,.F.);
#115=ORIENTED_EDGE('',*,*,#247,.F.);
#116=ORIENTED_EDGE('',*,*,#248,.F.);
#117=ORIENTED_EDGE('',*,*,#249,.F.);
#118=ORIENTED_EDGE('',*,*,#250,.F.);
#119=ORIENTED_EDGE('',*,*,#251,.F.);
#120=ORIENTED_EDGE('',*,*,#252,.F.);
#121=ORIENTED_EDGE('',*,*,#253,.F.);
#122=ORIENTED_EDGE('',*,*,#254,.F.);
#123=ORIENTED_EDGE('',*,*,#255,.F.);
#124=ORIENTED_EDGE('',*,*,#256,.T.);
#125=ORIENTED_EDGE('',*,*,#257,.F.);
#126=ORIENTED_EDGE('',*,*,#258,.F.);
#127=ORIENTED_EDGE('',*,*,#259,.F.);
#128=ORIENTED_EDGE('',*,*,#256,.F.);
#129=ORIENTED_EDGE('',*,*,#260,.F.);
#130=ORIENTED_EDGE('',*,*,#261,.F.);
#131=ORIENTED_EDGE('',*,*,#262,.F.);
#132=ORIENTED_EDGE('',*,*,#263,.F.);
#133=ORIENTED_EDGE('',*,*,#264,.F.);
#134=ORIENTED_EDGE('',*,*,#265,.F.);
#135=ORIENTED_EDGE('',*,*,#266,.F.);
#136=ORIENTED_EDGE('',*,*,#267,.F.);
#137=ORIENTED_EDGE('',*,*,#268,.F.);
#138=ORIENTED_EDGE('',*,*,#269,.F.);
#139=ORIENTED_EDGE('',*,*,#270,.F.);
#140=ORIENTED_EDGE('',*,*,#271,.T.);
#141=ORIENTED_EDGE('',*,*,#272,.F.);
#142=ORIENTED_EDGE('',*,*,#273,.F.);
#143=ORIENTED_EDGE('',*,*,#274,.F.);
#144=ORIENTED_EDGE('',*,*,#275,.F.);
#145=ORIENTED_EDGE('',*,*,#276,.F.);
#146=ORIENTED_EDGE('',*,*,#277,.F.);
#147=ORIENTED_EDGE('',*,*,#278,.F.);
#148=ORIENTED_EDGE('',*,*,#279,.F.);
#149=ORIENTED_EDGE('',*,*,#271,.F.);
#150=ORIENTED_EDGE('',*,*,#280,.F.);
#151=ORIENTED_EDGE('',*,*,#281,.F.);
#152=ORIENTED_EDGE('',*,*,#282,.F.);
#153=ORIENTED_EDGE('',*,*,#283,.F.);
#154=ORIENTED_EDGE('',*,*,#276,.T.);
#155=ORIENTED_EDGE('',*,*,#284,.T.);
#156=ORIENTED_EDGE('',*,*,#285,.T.);
#157=ORIENTED_EDGE('',*,*,#286,.T.);
#158=ORIENTED_EDGE('',*,*,#287,.T.);
#159=ORIENTED_EDGE('',*,*,#288,.T.);
#160=ORIENTED_EDGE('',*,*,#289,.T.);
#161=ORIENTED_EDGE('',*,*,#290,.T.);
#162=ORIENTED_EDGE('',*,*,#291,.T.);
#163=ORIENTED_EDGE('',*,*,#292,.F.);
#164=ORIENTED_EDGE('',*,*,#293,.F.);
#165=ORIENTED_EDGE('',*,*,#294,.T.);
#166=ORIENTED_EDGE('',*,*,#295,.T.);
#167=ORIENTED_EDGE('',*,*,#296,.T.);
#168=ORIENTED_EDGE('',*,*,#297,.T.);
#169=ORIENTED_EDGE('',*,*,#298,.F.);
#170=ORIENTED_EDGE('',*,*,#299,.T.);
#171=ORIENTED_EDGE('',*,*,#297,.F.);
#172=ORIENTED_EDGE('',*,*,#298,.T.);
#173=ORIENTED_EDGE('',*,*,#296,.F.);
#174=ORIENTED_EDGE('',*,*,#288,.F.);
#175=ORIENTED_EDGE('',*,*,#289,.F.);
#176=ORIENTED_EDGE('',*,*,#287,.F.);
#177=ORIENTED_EDGE('',*,*,#290,.F.);
#178=ORIENTED_EDGE('',*,*,#294,.F.);
#179=ORIENTED_EDGE('',*,*,#284,.F.);
#180=ORIENTED_EDGE('',*,*,#299,.F.);
#181=ORIENTED_EDGE('',*,*,#286,.F.);
#182=ORIENTED_EDGE('',*,*,#285,.F.);
#183=ORIENTED_EDGE('',*,*,#295,.F.);
#184=ORIENTED_EDGE('',*,*,#291,.F.);
#185=ORIENTED_EDGE('',*,*,#300,.F.);
#186=ORIENTED_EDGE('',*,*,#293,.T.);
#187=ORIENTED_EDGE('',*,*,#300,.T.);
#188=ORIENTED_EDGE('',*,*,#301,.F.);
#189=ORIENTED_EDGE('',*,*,#292,.T.);
#190=ORIENTED_EDGE('',*,*,#301,.T.);
#191=EDGE_CURVE('',#302,#303,#407,.T.);
#192=EDGE_CURVE('',#304,#302,#408,.T.);
#193=EDGE_CURVE('',#303,#304,#409,.T.);
#194=EDGE_CURVE('',#305,#306,#410,.T.);
#195=EDGE_CURVE('',#307,#305,#411,.T.);
#196=EDGE_CURVE('',#308,#307,#412,.T.);
#197=EDGE_CURVE('',#309,#308,#413,.T.);
#198=EDGE_CURVE('',#310,#309,#414,.T.);
#199=EDGE_CURVE('',#311,#310,#415,.T.);
#200=EDGE_CURVE('',#312,#311,#416,.T.);
#201=EDGE_CURVE('',#306,#312,#417,.T.);
#202=EDGE_CURVE('',#302,#313,#418,.T.);
#203=EDGE_CURVE('',#314,#303,#419,.T.);
#204=EDGE_CURVE('',#315,#314,#420,.T.);
#205=EDGE_CURVE('',#316,#315,#421,.T.);
#206=EDGE_CURVE('',#317,#316,#422,.T.);
#207=EDGE_CURVE('',#318,#317,#423,.T.);
#208=EDGE_CURVE('',#319,#318,#424,.T.);
#209=EDGE_CURVE('',#320,#319,#425,.T.);
#210=EDGE_CURVE('',#313,#320,#426,.T.);
#211=EDGE_CURVE('',#321,#317,#427,.T.);
#212=EDGE_CURVE('',#318,#321,#428,.T.);
#213=EDGE_CURVE('',#322,#323,#429,.T.);
#214=EDGE_CURVE('',#322,#324,#430,.T.);
#215=EDGE_CURVE('',#325,#324,#431,.T.);
#216=EDGE_CURVE('',#326,#325,#432,.T.);
#217=EDGE_CURVE('',#327,#326,#433,.T.);
#218=EDGE_CURVE('',#328,#327,#434,.T.);
#219=EDGE_CURVE('',#329,#328,#435,.T.);
#220=EDGE_CURVE('',#330,#329,#436,.T.);
#221=EDGE_CURVE('',#323,#330,#437,.T.);
#222=EDGE_CURVE('',#331,#332,#438,.T.);
#223=EDGE_CURVE('',#333,#331,#439,.T.);
#224=EDGE_CURVE('',#334,#333,#440,.T.);
#225=EDGE_CURVE('',#334,#332,#441,.T.);
#226=EDGE_CURVE('',#335,#336,#442,.T.);
#227=EDGE_CURVE('',#335,#337,#443,.T.);
#228=EDGE_CURVE('',#338,#337,#444,.T.);
#229=EDGE_CURVE('',#339,#338,#445,.T.);
#230=EDGE_CURVE('',#340,#339,#446,.T.);
#231=EDGE_CURVE('',#341,#340,#447,.T.);
#232=EDGE_CURVE('',#342,#341,#448,.T.);
#233=EDGE_CURVE('',#343,#342,#449,.T.);
#234=EDGE_CURVE('',#344,#343,#450,.T.);
#235=EDGE_CURVE('',#345,#344,#451,.T.);
#236=EDGE_CURVE('',#332,#345,#452,.T.);
#237=EDGE_CURVE('',#346,#334,#453,.T.);
#238=EDGE_CURVE('',#347,#346,#454,.T.);
#239=EDGE_CURVE('',#348,#347,#455,.T.);
#240=EDGE_CURVE('',#349,#348,#456,.T.);
#241=EDGE_CURVE('',#336,#349,#457,.T.);
#242=EDGE_CURVE('',#350,#351,#458,.T.);
#243=EDGE_CURVE('',#350,#352,#459,.T.);
#244=EDGE_CURVE('',#353,#352,#460,.T.);
#245=EDGE_CURVE('',#354,#353,#461,.T.);
#246=EDGE_CURVE('',#355,#354,#462,.T.);
#247=EDGE_CURVE('',#356,#355,#463,.T.);
#248=EDGE_CURVE('',#357,#356,#464,.T.);
#249=EDGE_CURVE('',#358,#357,#465,.T.);
#250=EDGE_CURVE('',#359,#358,#466,.T.);
#251=EDGE_CURVE('',#360,#359,#467,.T.);
#252=EDGE_CURVE('',#361,#360,#468,.T.);
#253=EDGE_CURVE('',#362,#361,#469,.T.);
#254=EDGE_CURVE('',#363,#362,#470,.T.);
#255=EDGE_CURVE('',#364,#363,#471,.T.);
#256=EDGE_CURVE('',#364,#365,#472,.T.);
#257=EDGE_CURVE('',#366,#365,#473,.T.);
#258=EDGE_CURVE('',#367,#366,#474,.T.);
#259=EDGE_CURVE('',#351,#367,#475,.T.);
#260=EDGE_CURVE('',#368,#364,#476,.T.);
#261=EDGE_CURVE('',#365,#368,#477,.T.);
#262=EDGE_CURVE('',#369,#370,#478,.T.);
#263=EDGE_CURVE('',#371,#369,#479,.T.);
#264=EDGE_CURVE('',#372,#371,#480,.T.);
#265=EDGE_CURVE('',#373,#372,#481,.T.);
#266=EDGE_CURVE('',#374,#373,#482,.T.);
#267=EDGE_CURVE('',#375,#374,#483,.T.);
#268=EDGE_CURVE('',#376,#375,#484,.T.);
#269=EDGE_CURVE('',#370,#376,#485,.T.);
#270=EDGE_CURVE('',#377,#378,#486,.T.);
#271=EDGE_CURVE('',#377,#379,#487,.T.);
#272=EDGE_CURVE('',#380,#379,#488,.T.);
#273=EDGE_CURVE('',#381,#380,#489,.T.);
#274=EDGE_CURVE('',#382,#381,#490,.T.);
#275=EDGE_CURVE('',#383,#382,#491,.T.);
#276=EDGE_CURVE('',#384,#383,#492,.T.);
#277=EDGE_CURVE('',#385,#384,#493,.T.);
#278=EDGE_CURVE('',#386,#385,#494,.T.);
#279=EDGE_CURVE('',#378,#386,#495,.T.);
#280=EDGE_CURVE('',#387,#377,#496,.T.);
#281=EDGE_CURVE('',#379,#387,#497,.T.);
#282=EDGE_CURVE('',#388,#383,#498,.T.);
#283=EDGE_CURVE('',#384,#388,#499,.T.);
#284=EDGE_CURVE('',#389,#389,#24,.F.);
#285=EDGE_CURVE('',#390,#390,#25,.T.);
#286=EDGE_CURVE('',#391,#391,#26,.F.);
#287=EDGE_CURVE('',#392,#392,#27,.T.);
#288=EDGE_CURVE('',#393,#393,#28,.F.);
#289=EDGE_CURVE('',#394,#394,#29,.F.);
#290=EDGE_CURVE('',#395,#395,#30,.F.);
#291=EDGE_CURVE('',#396,#396,#31,.T.);
#292=EDGE_CURVE('',#397,#397,#32,.T.);
#293=EDGE_CURVE('',#398,#398,#33,.T.);
#294=EDGE_CURVE('',#399,#399,#34,.T.);
#295=EDGE_CURVE('',#400,#400,#35,.F.);
#296=EDGE_CURVE('',#401,#401,#36,.T.);
#297=EDGE_CURVE('',#402,#402,#37,.T.);
#298=EDGE_CURVE('',#403,#403,#38,.T.);
#299=EDGE_CURVE('',#404,#404,#39,.T.);
#300=EDGE_CURVE('',#405,#405,#40,.T.);
#301=EDGE_CURVE('',#406,#406,#41,.T.);
#302=VERTEX_POINT('',#882);
#303=VERTEX_POINT('',#883);
#304=VERTEX_POINT('',#888);
#305=VERTEX_POINT('',#898);
#306=VERTEX_POINT('',#899);
#307=VERTEX_POINT('',#904);
#308=VERTEX_POINT('',#909);
#309=VERTEX_POINT('',#914);
#310=VERTEX_POINT('',#919);
#311=VERTEX_POINT('',#924);
#312=VERTEX_POINT('',#929);
#313=VERTEX_POINT('',#938);
#314=VERTEX_POINT('',#943);
#315=VERTEX_POINT('',#948);
#316=VERTEX_POINT('',#953);
#317=VERTEX_POINT('',#958);
#318=VERTEX_POINT('',#963);
#319=VERTEX_POINT('',#968);
#320=VERTEX_POINT('',#973);
#321=VERTEX_POINT('',#983);
#322=VERTEX_POINT('',#994);
#323=VERTEX_POINT('',#995);
#324=VERTEX_POINT('',#1000);
#325=VERTEX_POINT('',#1005);
#326=VERTEX_POINT('',#1010);
#327=VERTEX_POINT('',#1015);
#328=VERTEX_POINT('',#1020);
#329=VERTEX_POINT('',#1025);
#330=VERTEX_POINT('',#1030);
#331=VERTEX_POINT('',#1041);
#332=VERTEX_POINT('',#1042);
#333=VERTEX_POINT('',#1047);
#334=VERTEX_POINT('',#1052);
#335=VERTEX_POINT('',#1062);
#336=VERTEX_POINT('',#1063);
#337=VERTEX_POINT('',#1068);
#338=VERTEX_POINT('',#1073);
#339=VERTEX_POINT('',#1078);
#340=VERTEX_POINT('',#1083);
#341=VERTEX_POINT('',#1088);
#342=VERTEX_POINT('',#1093);
#343=VERTEX_POINT('',#1098);
#344=VERTEX_POINT('',#1103);
#345=VERTEX_POINT('',#1108);
#346=VERTEX_POINT('',#1117);
#347=VERTEX_POINT('',#1122);
#348=VERTEX_POINT('',#1127);
#349=VERTEX_POINT('',#1132);
#350=VERTEX_POINT('',#1143);
#351=VERTEX_POINT('',#1144);
#352=VERTEX_POINT('',#1149);
#353=VERTEX_POINT('',#1154);
#354=VERTEX_POINT('',#1159);
#355=VERTEX_POINT('',#1164);
#356=VERTEX_POINT('',#1169);
#357=VERTEX_POINT('',#1174);
#358=VERTEX_POINT('',#1179);
#359=VERTEX_POINT('',#1184);
#360=VERTEX_POINT('',#1189);
#361=VERTEX_POINT('',#1194);
#362=VERTEX_POINT('',#1199);
#363=VERTEX_POINT('',#1204);
#364=VERTEX_POINT('',#1209);
#365=VERTEX_POINT('',#1214);
#366=VERTEX_POINT('',#1219);
#367=VERTEX_POINT('',#1224);
#368=VERTEX_POINT('',#1234);
#369=VERTEX_POINT('',#1245);
#370=VERTEX_POINT('',#1246);
#371=VERTEX_POINT('',#1251);
#372=VERTEX_POINT('',#1256);
#373=VERTEX_POINT('',#1261);
#374=VERTEX_POINT('',#1266);
#375=VERTEX_POINT('',#1271);
#376=VERTEX_POINT('',#1276);
#377=VERTEX_POINT('',#1285);
#378=VERTEX_POINT('',#1286);
#379=VERTEX_POINT('',#1291);
#380=VERTEX_POINT('',#1296);
#381=VERTEX_POINT('',#1301);
#382=VERTEX_POINT('',#1306);
#383=VERTEX_POINT('',#1311);
#384=VERTEX_POINT('',#1316);
#385=VERTEX_POINT('',#1321);
#386=VERTEX_POINT('',#1326);
#387=VERTEX_POINT('',#1336);
#388=VERTEX_POINT('',#1346);
#389=VERTEX_POINT('',#1354);
#390=VERTEX_POINT('',#1356);
#391=VERTEX_POINT('',#1359);
#392=VERTEX_POINT('',#1361);
#393=VERTEX_POINT('',#1364);
#394=VERTEX_POINT('',#1366);
#395=VERTEX_POINT('',#1369);
#396=VERTEX_POINT('',#1371);
#397=VERTEX_POINT('',#1374);
#398=VERTEX_POINT('',#1376);
#399=VERTEX_POINT('',#1378);
#400=VERTEX_POINT('',#1381);
#401=VERTEX_POINT('',#1383);
#402=VERTEX_POINT('',#1386);
#403=VERTEX_POINT('',#1388);
#404=VERTEX_POINT('',#1391);
#405=VERTEX_POINT('',#1401);
#406=VERTEX_POINT('',#1405);
#407=B_SPLINE_CURVE_WITH_KNOTS('',3,(#878,#879,#880,#881),.UNSPECIFIED.,
 .F.,.F.,(4,4),(0.,1.),.UNSPECIFIED.);
#408=B_SPLINE_CURVE_WITH_KNOTS('',3,(#884,#885,#886,#887),.UNSPECIFIED.,
 .F.,.F.,(4,4),(0.,1.),.UNSPECIFIED.);
#409=B_SPLINE_CURVE_WITH_KNOTS('',3,(#889,#890,#891,#892),.UNSPECIFIED.,
 .F.,.F.,(4,4),(0.,1.),.UNSPECIFIED.);
#410=B_SPLINE_CURVE_WITH_KNOTS('',3,(#894,#895,#896,#897),.UNSPECIFIED.,
 .F.,.F.,(4,4),(0.,1.),.UNSPECIFIED.);
#411=B_SPLINE_CURVE_WITH_KNOTS('',3,(#900,#901,#902,#903),.UNSPECIFIED.,
 .F.,.F.,(4,4),(0.,1.),.UNSPECIFIED.);
#412=B_SPLINE_CURVE_WITH_KNOTS('',3,(#905,#906,#907,#908),.UNSPECIFIED.,
 .F.,.F.,(4,4),(0.,1.),.UNSPECIFIED.);
#413=B_SPLINE_CURVE_WITH_KNOTS('',3,(#910,#911,#912,#913),.UNSPECIFIED.,
 .F.,.F.,(4,4),(0.,1.),.UNSPECIFIED.);
#414=B_SPLINE_CURVE_WITH_KNOTS('',3,(#915,#916,#917,#918),.UNSPECIFIED.,
 .F.,.F.,(4,4),(0.,1.),.UNSPECIFIED.);
#415=B_SPLINE_CURVE_WITH_KNOTS('',3,(#920,#921,#922,#923),.UNSPECIFIED.,
 .F.,.F.,(4,4),(0.,1.),.UNSPECIFIED.);
#416=B_SPLINE_CURVE_WITH_KNOTS('',3,(#925,#926,#927,#928),.UNSPECIFIED.,
 .F.,.F.,(4,4),(0.,1.),.UNSPECIFIED.);
#417=B_SPLINE_CURVE_WITH_KNOTS('',3,(#930,#931,#932,#933),.UNSPECIFIED.,
 .F.,.F.,(4,4),(0.,1.),.UNSPECIFIED.);
#418=B_SPLINE_CURVE_WITH_KNOTS('',3,(#934,#935,#936,#937),.UNSPECIFIED.,
 .F.,.F.,(4,4),(0.,1.),.UNSPECIFIED.);
#419=B_SPLINE_CURVE_WITH_KNOTS('',3,(#939,#940,#941,#942),.UNSPECIFIED.,
 .F.,.F.,(4,4),(0.,1.),.UNSPECIFIED.);
#420=B_SPLINE_CURVE_WITH_KNOTS('',3,(#944,#945,#946,#947),.UNSPECIFIED.,
 .F.,.F.,(4,4),(0.,1.),.UNSPECIFIED.);
#421=B_SPLINE_CURVE_WITH_KNOTS('',3,(#949,#950,#951,#952),.UNSPECIFIED.,
 .F.,.F.,(4,4),(0.,1.),.UNSPECIFIED.);
#422=B_SPLINE_CURVE_WITH_KNOTS('',3,(#954,#955,#956,#957),.UNSPECIFIED.,
 .F.,.F.,(4,4),(0.,1.),.UNSPECIFIED.);
#423=B_SPLINE_CURVE_WITH_KNOTS('',3,(#959,#960,#961,#962),.UNSPECIFIED.,
 .F.,.F.,(4,4),(0.,1.),.UNSPECIFIED.);
#424=B_SPLINE_CURVE_WITH_KNOTS('',3,(#964,#965,#966,#967),.UNSPECIFIED.,
 .F.,.F.,(4,4),(0.,1.),.UNSPECIFIED.);
#425=B_SPLINE_CURVE_WITH_KNOTS('',3,(#969,#970,#971,#972),.UNSPECIFIED.,
 .F.,.F.,(4,4),(0.,1.),.UNSPECIFIED.);
#426=B_SPLINE_CURVE_WITH_KNOTS('',3,(#974,#975,#976,#977),.UNSPECIFIED.,
 .F.,.F.,(4,4),(0.,1.),.UNSPECIFIED.);
#427=B_SPLINE_CURVE_WITH_KNOTS('',3,(#979,#980,#981,#982),.UNSPECIFIED.,
 .F.,.F.,(4,4),(0.,1.),.UNSPECIFIED.);
#428=B_SPLINE_CURVE_WITH_KNOTS('',3,(#984,#985,#986,#987),.UNSPECIFIED.,
 .F.,.F.,(4,4),(0.,1.),.UNSPECIFIED.);
#429=B_SPLINE_CURVE_WITH_KNOTS('',3,(#990,#991,#992,#993),.UNSPECIFIED.,
 .F.,.F.,(4,4),(0.,1.),.UNSPECIFIED.);
#430=B_SPLINE_CURVE_WITH_KNOTS('',3,(#996,#997,#998,#999),.UNSPECIFIED.,
 .F.,.F.,(4,4),(0.,1.),.UNSPECIFIED.);
#431=B_SPLINE_CURVE_WITH_KNOTS('',3,(#1001,#1002,#1003,#1004),
 .UNSPECIFIED.,.F.,.F.,(4,4),(0.,1.),.UNSPECIFIED.);
#432=B_SPLINE_CURVE_WITH_KNOTS('',3,(#1006,#1007,#1008,#1009),
 .UNSPECIFIED.,.F.,.F.,(4,4),(0.,1.),.UNSPECIFIED.);
#433=B_SPLINE_CURVE_WITH_KNOTS('',3,(#1011,#1012,#1013,#1014),
 .UNSPECIFIED.,.F.,.F.,(4,4),(0.,1.),.UNSPECIFIED.);
#434=B_SPLINE_CURVE_WITH_KNOTS('',3,(#1016,#1017,#1018,#1019),
 .UNSPECIFIED.,.F.,.F.,(4,4),(0.,1.),.UNSPECIFIED.);
#435=B_SPLINE_CURVE_WITH_KNOTS('',3,(#1021,#1022,#1023,#1024),
 .UNSPECIFIED.,.F.,.F.,(4,4),(0.,1.),.UNSPECIFIED.);
#436=B_SPLINE_CURVE_WITH_KNOTS('',3,(#1026,#1027,#1028,#1029),
 .UNSPECIFIED.,.F.,.F.,(4,4),(0.,1.),.UNSPECIFIED.);
#437=B_SPLINE_CURVE_WITH_KNOTS('',3,(#1031,#1032,#1033,#1034),
 .UNSPECIFIED.,.F.,.F.,(4,4),(0.,1.),.UNSPECIFIED.);
#438=B_SPLINE_CURVE_WITH_KNOTS('',3,(#1037,#1038,#1039,#1040),
 .UNSPECIFIED.,.F.,.F.,(4,4),(0.,1.),.UNSPECIFIED.);
#439=B_SPLINE_CURVE_WITH_KNOTS('',3,(#1043,#1044,#1045,#1046),
 .UNSPECIFIED.,.F.,.F.,(4,4),(0.,1.),.UNSPECIFIED.);
#440=B_SPLINE_CURVE_WITH_KNOTS('',3,(#1048,#1049,#1050,#1051),
 .UNSPECIFIED.,.F.,.F.,(4,4),(0.,1.),.UNSPECIFIED.);
#441=B_SPLINE_CURVE_WITH_KNOTS('',3,(#1053,#1054,#1055,#1056),
 .UNSPECIFIED.,.F.,.F.,(4,4),(0.,1.),.UNSPECIFIED.);
#442=B_SPLINE_CURVE_WITH_KNOTS('',3,(#1058,#1059,#1060,#1061),
 .UNSPECIFIED.,.F.,.F.,(4,4),(0.,1.),.UNSPECIFIED.);
#443=B_SPLINE_CURVE_WITH_KNOTS('',3,(#1064,#1065,#1066,#1067),
 .UNSPECIFIED.,.F.,.F.,(4,4),(0.,1.),.UNSPECIFIED.);
#444=B_SPLINE_CURVE_WITH_KNOTS('',3,(#1069,#1070,#1071,#1072),
 .UNSPECIFIED.,.F.,.F.,(4,4),(0.,1.),.UNSPECIFIED.);
#445=B_SPLINE_CURVE_WITH_KNOTS('',3,(#1074,#1075,#1076,#1077),
 .UNSPECIFIED.,.F.,.F.,(4,4),(0.,1.),.UNSPECIFIED.);
#446=B_SPLINE_CURVE_WITH_KNOTS('',3,(#1079,#1080,#1081,#1082),
 .UNSPECIFIED.,.F.,.F.,(4,4),(0.,1.),.UNSPECIFIED.);
#447=B_SPLINE_CURVE_WITH_KNOTS('',3,(#1084,#1085,#1086,#1087),
 .UNSPECIFIED.,.F.,.F.,(4,4),(0.,1.),.UNSPECIFIED.);
#448=B_SPLINE_CURVE_WITH_KNOTS('',3,(#1089,#1090,#1091,#1092),
 .UNSPECIFIED.,.F.,.F.,(4,4),(0.,1.),.UNSPECIFIED.);
#449=B_SPLINE_CURVE_WITH_KNOTS('',3,(#1094,#1095,#1096,#1097),
 .UNSPECIFIED.,.F.,.F.,(4,4),(0.,1.),.UNSPECIFIED.);
#450=B_SPLINE_CURVE_WITH_KNOTS('',3,(#1099,#1100,#1101,#1102),
 .UNSPECIFIED.,.F.,.F.,(4,4),(0.,1.),.UNSPECIFIED.);
#451=B_SPLINE_CURVE_WITH_KNOTS('',3,(#1104,#1105,#1106,#1107),
 .UNSPECIFIED.,.F.,.F.,(4,4),(0.,1.),.UNSPECIFIED.);
#452=B_SPLINE_CURVE_WITH_KNOTS('',3,(#1109,#1110,#1111,#1112),
 .UNSPECIFIED.,.F.,.F.,(4,4),(0.,1.),.UNSPECIFIED.);
#453=B_SPLINE_CURVE_WITH_KNOTS('',3,(#1113,#1114,#1115,#1116),
 .UNSPECIFIED.,.F.,.F.,(4,4),(0.,1.),.UNSPECIFIED.);
#454=B_SPLINE_CURVE_WITH_KNOTS('',3,(#1118,#1119,#1120,#1121),
 .UNSPECIFIED.,.F.,.F.,(4,4),(0.,1.),.UNSPECIFIED.);
#455=B_SPLINE_CURVE_WITH_KNOTS('',3,(#1123,#1124,#1125,#1126),
 .UNSPECIFIED.,.F.,.F.,(4,4),(0.,1.),.UNSPECIFIED.);
#456=B_SPLINE_CURVE_WITH_KNOTS('',3,(#1128,#1129,#1130,#1131),
 .UNSPECIFIED.,.F.,.F.,(4,4),(0.,1.),.UNSPECIFIED.);
#457=B_SPLINE_CURVE_WITH_KNOTS('',3,(#1133,#1134,#1135,#1136),
 .UNSPECIFIED.,.F.,.F.,(4,4),(0.,1.),.UNSPECIFIED.);
#458=B_SPLINE_CURVE_WITH_KNOTS('',3,(#1139,#1140,#1141,#1142),
 .UNSPECIFIED.,.F.,.F.,(4,4),(0.,1.),.UNSPECIFIED.);
#459=B_SPLINE_CURVE_WITH_KNOTS('',3,(#1145,#1146,#1147,#1148),
 .UNSPECIFIED.,.F.,.F.,(4,4),(0.,1.),.UNSPECIFIED.);
#460=B_SPLINE_CURVE_WITH_KNOTS('',3,(#1150,#1151,#1152,#1153),
 .UNSPECIFIED.,.F.,.F.,(4,4),(0.,1.),.UNSPECIFIED.);
#461=B_SPLINE_CURVE_WITH_KNOTS('',3,(#1155,#1156,#1157,#1158),
 .UNSPECIFIED.,.F.,.F.,(4,4),(0.,1.),.UNSPECIFIED.);
#462=B_SPLINE_CURVE_WITH_KNOTS('',3,(#1160,#1161,#1162,#1163),
 .UNSPECIFIED.,.F.,.F.,(4,4),(0.,1.),.UNSPECIFIED.);
#463=B_SPLINE_CURVE_WITH_KNOTS('',3,(#1165,#1166,#1167,#1168),
 .UNSPECIFIED.,.F.,.F.,(4,4),(0.,1.),.UNSPECIFIED.);
#464=B_SPLINE_CURVE_WITH_KNOTS('',3,(#1170,#1171,#1172,#1173),
 .UNSPECIFIED.,.F.,.F.,(4,4),(0.,1.),.UNSPECIFIED.);
#465=B_SPLINE_CURVE_WITH_KNOTS('',3,(#1175,#1176,#1177,#1178),
 .UNSPECIFIED.,.F.,.F.,(4,4),(0.,1.),.UNSPECIFIED.);
#466=B_SPLINE_CURVE_WITH_KNOTS('',3,(#1180,#1181,#1182,#1183),
 .UNSPECIFIED.,.F.,.F.,(4,4),(0.,1.),.UNSPECIFIED.);
#467=B_SPLINE_CURVE_WITH_KNOTS('',3,(#1185,#1186,#1187,#1188),
 .UNSPECIFIED.,.F.,.F.,(4,4),(0.,1.),.UNSPECIFIED.);
#468=B_SPLINE_CURVE_WITH_KNOTS('',3,(#1190,#1191,#1192,#1193),
 .UNSPECIFIED.,.F.,.F.,(4,4),(0.,1.),.UNSPECIFIED.);
#469=B_SPLINE_CURVE_WITH_KNOTS('',3,(#1195,#1196,#1197,#1198),
 .UNSPECIFIED.,.F.,.F.,(4,4),(0.,1.),.UNSPECIFIED.);
#470=B_SPLINE_CURVE_WITH_KNOTS('',3,(#1200,#1201,#1202,#1203),
 .UNSPECIFIED.,.F.,.F.,(4,4),(0.,1.),.UNSPECIFIED.);
#471=B_SPLINE_CURVE_WITH_KNOTS('',3,(#1205,#1206,#1207,#1208),
 .UNSPECIFIED.,.F.,.F.,(4,4),(0.,1.),.UNSPECIFIED.);
#472=B_SPLINE_CURVE_WITH_KNOTS('',3,(#1210,#1211,#1212,#1213),
 .UNSPECIFIED.,.F.,.F.,(4,4),(0.,1.),.UNSPECIFIED.);
#473=B_SPLINE_CURVE_WITH_KNOTS('',3,(#1215,#1216,#1217,#1218),
 .UNSPECIFIED.,.F.,.F.,(4,4),(0.,1.),.UNSPECIFIED.);
#474=B_SPLINE_CURVE_WITH_KNOTS('',3,(#1220,#1221,#1222,#1223),
 .UNSPECIFIED.,.F.,.F.,(4,4),(0.,1.),.UNSPECIFIED.);
#475=B_SPLINE_CURVE_WITH_KNOTS('',3,(#1225,#1226,#1227,#1228),
 .UNSPECIFIED.,.F.,.F.,(4,4),(0.,1.),.UNSPECIFIED.);
#476=B_SPLINE_CURVE_WITH_KNOTS('',3,(#1230,#1231,#1232,#1233),
 .UNSPECIFIED.,.F.,.F.,(4,4),(0.,1.),.UNSPECIFIED.);
#477=B_SPLINE_CURVE_WITH_KNOTS('',3,(#1235,#1236,#1237,#1238),
 .UNSPECIFIED.,.F.,.F.,(4,4),(0.,1.),.UNSPECIFIED.);
#478=B_SPLINE_CURVE_WITH_KNOTS('',3,(#1241,#1242,#1243,#1244),
 .UNSPECIFIED.,.F.,.F.,(4,4),(0.,1.),.UNSPECIFIED.);
#479=B_SPLINE_CURVE_WITH_KNOTS('',3,(#1247,#1248,#1249,#1250),
 .UNSPECIFIED.,.F.,.F.,(4,4),(0.,1.),.UNSPECIFIED.);
#480=B_SPLINE_CURVE_WITH_KNOTS('',3,(#1252,#1253,#1254,#1255),
 .UNSPECIFIED.,.F.,.F.,(4,4),(0.,1.),.UNSPECIFIED.);
#481=B_SPLINE_CURVE_WITH_KNOTS('',3,(#1257,#1258,#1259,#1260),
 .UNSPECIFIED.,.F.,.F.,(4,4),(0.,1.),.UNSPECIFIED.);
#482=B_SPLINE_CURVE_WITH_KNOTS('',3,(#1262,#1263,#1264,#1265),
 .UNSPECIFIED.,.F.,.F.,(4,4),(0.,1.),.UNSPECIFIED.);
#483=B_SPLINE_CURVE_WITH_KNOTS('',3,(#1267,#1268,#1269,#1270),
 .UNSPECIFIED.,.F.,.F.,(4,4),(0.,1.),.UNSPECIFIED.);
#484=B_SPLINE_CURVE_WITH_KNOTS('',3,(#1272,#1273,#1274,#1275),
 .UNSPECIFIED.,.F.,.F.,(4,4),(0.,1.),.UNSPECIFIED.);
#485=B_SPLINE_CURVE_WITH_KNOTS('',3,(#1277,#1278,#1279,#1280),
 .UNSPECIFIED.,.F.,.F.,(4,4),(0.,1.),.UNSPECIFIED.);
#486=B_SPLINE_CURVE_WITH_KNOTS('',3,(#1281,#1282,#1283,#1284),
 .UNSPECIFIED.,.F.,.F.,(4,4),(0.,1.),.UNSPECIFIED.);
#487=B_SPLINE_CURVE_WITH_KNOTS('',3,(#1287,#1288,#1289,#1290),
 .UNSPECIFIED.,.F.,.F.,(4,4),(0.,1.),.UNSPECIFIED.);
#488=B_SPLINE_CURVE_WITH_KNOTS('',3,(#1292,#1293,#1294,#1295),
 .UNSPECIFIED.,.F.,.F.,(4,4),(0.,1.),.UNSPECIFIED.);
#489=B_SPLINE_CURVE_WITH_KNOTS('',3,(#1297,#1298,#1299,#1300),
 .UNSPECIFIED.,.F.,.F.,(4,4),(0.,1.),.UNSPECIFIED.);
#490=B_SPLINE_CURVE_WITH_KNOTS('',3,(#1302,#1303,#1304,#1305),
 .UNSPECIFIED.,.F.,.F.,(4,4),(0.,1.),.UNSPECIFIED.);
#491=B_SPLINE_CURVE_WITH_KNOTS('',3,(#1307,#1308,#1309,#1310),
 .UNSPECIFIED.,.F.,.F.,(4,4),(0.,1.),.UNSPECIFIED.);
#492=B_SPLINE_CURVE_WITH_KNOTS('',3,(#1312,#1313,#1314,#1315),
 .UNSPECIFIED.,.F.,.F.,(4,4),(0.,1.),.UNSPECIFIED.);
#493=B_SPLINE_CURVE_WITH_KNOTS('',3,(#1317,#1318,#1319,#1320),
 .UNSPECIFIED.,.F.,.F.,(4,4),(0.,1.),.UNSPECIFIED.);
#494=B_SPLINE_CURVE_WITH_KNOTS('',3,(#1322,#1323,#1324,#1325),
 .UNSPECIFIED.,.F.,.F.,(4,4),(0.,1.),.UNSPECIFIED.);
#495=B_SPLINE_CURVE_WITH_KNOTS('',3,(#1327,#1328,#1329,#1330),
 .UNSPECIFIED.,.F.,.F.,(4,4),(0.,1.),.UNSPECIFIED.);
#496=B_SPLINE_CURVE_WITH_KNOTS('',3,(#1332,#1333,#1334,#1335),
 .UNSPECIFIED.,.F.,.F.,(4,4),(0.,1.),.UNSPECIFIED.);
#497=B_SPLINE_CURVE_WITH_KNOTS('',3,(#1337,#1338,#1339,#1340),
 .UNSPECIFIED.,.F.,.F.,(4,4),(0.,1.),.UNSPECIFIED.);
#498=B_SPLINE_CURVE_WITH_KNOTS('',3,(#1342,#1343,#1344,#1345),
 .UNSPECIFIED.,.F.,.F.,(4,4),(0.,1.),.UNSPECIFIED.);
#499=B_SPLINE_CURVE_WITH_KNOTS('',3,(#1347,#1348,#1349,#1350),
 .UNSPECIFIED.,.F.,.F.,(4,4),(0.,1.),.UNSPECIFIED.);
#500=EDGE_LOOP('',(#56,#57,#58));
#501=EDGE_LOOP('',(#59,#60,#61,#62,#63,#64,#65,#66));
#502=EDGE_LOOP('',(#67,#68,#69,#70,#71,#72,#73,#74,#75,#76));
#503=EDGE_LOOP('',(#77,#78,#79));
#504=EDGE_LOOP('',(#80,#81,#82,#83,#84,#85,#86,#87,#88));
#505=EDGE_LOOP('',(#89,#90,#91,#92));
#506=EDGE_LOOP('',(#93,#94,#95,#96,#97,#98,#99,#100,#101,#102,#103,#104,
#105,#106,#107,#108,#109));
#507=EDGE_LOOP('',(#110,#111,#112,#113,#114,#115,#116,#117,#118,#119,#120,
#121,#122,#123,#124,#125,#126,#127));
#508=EDGE_LOOP('',(#128,#129,#130));
#509=EDGE_LOOP('',(#131,#132,#133,#134,#135,#136,#137,#138));
#510=EDGE_LOOP('',(#139,#140,#141,#142,#143,#144,#145,#146,#147,#148));
#511=EDGE_LOOP('',(#149,#150,#151));
#512=EDGE_LOOP('',(#152,#153,#154));
#513=EDGE_LOOP('',(#155));
#514=EDGE_LOOP('',(#156));
#515=EDGE_LOOP('',(#157));
#516=EDGE_LOOP('',(#158));
#517=EDGE_LOOP('',(#159));
#518=EDGE_LOOP('',(#160));
#519=EDGE_LOOP('',(#161));
#520=EDGE_LOOP('',(#162));
#521=EDGE_LOOP('',(#163));
#522=EDGE_LOOP('',(#164));
#523=EDGE_LOOP('',(#165));
#524=EDGE_LOOP('',(#166));
#525=EDGE_LOOP('',(#167));
#526=EDGE_LOOP('',(#168));
#527=EDGE_LOOP('',(#169));
#528=EDGE_LOOP('',(#170));
#529=EDGE_LOOP('',(#171));
#530=EDGE_LOOP('',(#172));
#531=EDGE_LOOP('',(#173));
#532=EDGE_LOOP('',(#174));
#533=EDGE_LOOP('',(#175));
#534=EDGE_LOOP('',(#176));
#535=EDGE_LOOP('',(#177));
#536=EDGE_LOOP('',(#178));
#537=EDGE_LOOP('',(#179));
#538=EDGE_LOOP('',(#180));
#539=EDGE_LOOP('',(#181));
#540=EDGE_LOOP('',(#182));
#541=EDGE_LOOP('',(#183));
#542=EDGE_LOOP('',(#184));
#543=EDGE_LOOP('',(#185));
#544=EDGE_LOOP('',(#186));
#545=EDGE_LOOP('',(#187));
#546=EDGE_LOOP('',(#188));
#547=EDGE_LOOP('',(#189));
#548=EDGE_LOOP('',(#190));
#549=FACE_BOUND('',#500,.T.);
#550=FACE_BOUND('',#501,.T.);
#551=FACE_BOUND('',#502,.T.);
#552=FACE_BOUND('',#503,.T.);
#553=FACE_BOUND('',#504,.T.);
#554=FACE_BOUND('',#505,.T.);
#555=FACE_BOUND('',#506,.T.);
#556=FACE_BOUND('',#507,.T.);
#557=FACE_BOUND('',#508,.T.);
#558=FACE_BOUND('',#509,.T.);
#559=FACE_BOUND('',#510,.T.);
#560=FACE_BOUND('',#511,.T.);
#561=FACE_BOUND('',#512,.T.);
#562=FACE_BOUND('',#513,.T.);
#563=FACE_BOUND('',#514,.T.);
#564=FACE_BOUND('',#515,.T.);
#565=FACE_BOUND('',#516,.T.);
#566=FACE_BOUND('',#517,.T.);
#567=FACE_BOUND('',#518,.T.);
#568=FACE_BOUND('',#519,.T.);
#569=FACE_BOUND('',#520,.T.);
#570=FACE_BOUND('',#521,.T.);
#571=FACE_BOUND('',#522,.T.);
#572=FACE_BOUND('',#523,.T.);
#573=FACE_BOUND('',#524,.T.);
#574=FACE_BOUND('',#525,.T.);
#575=FACE_BOUND('',#526,.T.);
#576=FACE_BOUND('',#527,.T.);
#577=FACE_BOUND('',#528,.T.);
#578=FACE_BOUND('',#529,.T.);
#579=FACE_BOUND('',#530,.T.);
#580=FACE_BOUND('',#531,.T.);
#581=FACE_BOUND('',#532,.T.);
#582=FACE_BOUND('',#533,.T.);
#583=FACE_BOUND('',#534,.T.);
#584=FACE_BOUND('',#535,.T.);
#585=FACE_BOUND('',#536,.T.);
#586=FACE_BOUND('',#537,.T.);
#587=FACE_BOUND('',#538,.T.);
#588=FACE_BOUND('',#539,.T.);
#589=FACE_BOUND('',#540,.T.);
#590=FACE_BOUND('',#541,.T.);
#591=FACE_BOUND('',#542,.T.);
#592=FACE_BOUND('',#543,.T.);
#593=FACE_BOUND('',#544,.T.);
#594=FACE_BOUND('',#545,.T.);
#595=FACE_BOUND('',#546,.T.);
#596=FACE_BOUND('',#547,.T.);
#597=FACE_BOUND('',#548,.T.);
#598=CYLINDRICAL_SURFACE('',#715,0.004);
#599=CYLINDRICAL_SURFACE('',#716,0.004);
#600=CYLINDRICAL_SURFACE('',#717,0.004);
#601=CYLINDRICAL_SURFACE('',#719,0.004);
#602=CYLINDRICAL_SURFACE('',#721,0.004);
#603=CYLINDRICAL_SURFACE('',#722,0.004);
#604=CYLINDRICAL_SURFACE('',#724,0.004);
#605=CYLINDRICAL_SURFACE('',#725,0.004);
#606=CYLINDRICAL_SURFACE('',#727,0.004);
#607=CYLINDRICAL_SURFACE('',#728,0.004);
#608=CYLINDRICAL_SURFACE('',#729,0.004);
#609=CYLINDRICAL_SURFACE('',#731,0.004);
#610=CYLINDRICAL_SURFACE('',#737,0.0035);
#611=CYLINDRICAL_SURFACE('',#740,0.004);
#612=CYLINDRICAL_SURFACE('',#750,0.00275);
#613=CYLINDRICAL_SURFACE('',#762,0.0001);
#614=CYLINDRICAL_SURFACE('',#765,0.0001);
#615=ADVANCED_FACE('',(#549),#598,.T.);
#616=ADVANCED_FACE('',(#550,#551),#599,.T.);
#617=ADVANCED_FACE('',(#552),#600,.T.);
#618=ADVANCED_FACE('',(#553),#601,.T.);
#619=ADVANCED_FACE('',(#554),#602,.T.);
#620=ADVANCED_FACE('',(#555),#603,.T.);
#621=ADVANCED_FACE('',(#556),#604,.T.);
#622=ADVANCED_FACE('',(#557),#605,.T.);
#623=ADVANCED_FACE('',(#558,#559),#606,.T.);
#624=ADVANCED_FACE('',(#560),#607,.T.);
#625=ADVANCED_FACE('',(#561),#608,.T.);
#626=ADVANCED_FACE('',(#562,#563),#609,.T.);
#627=ADVANCED_FACE('',(#564,#565),#17,.F.);
#628=ADVANCED_FACE('',(#566,#567),#610,.T.);
#629=ADVANCED_FACE('',(#568,#569),#611,.T.);
#630=ADVANCED_FACE('',(#570,#571,#572),#18,.T.);
#631=ADVANCED_FACE('',(#573,#574),#19,.F.);
#632=ADVANCED_FACE('',(#575,#576),#612,.F.);
#633=ADVANCED_FACE('',(#577,#578),#20,.T.);
#634=ADVANCED_FACE('',(#579),#21,.T.);
#635=ADVANCED_FACE('',(#580,#581),#11,.F.);
#636=ADVANCED_FACE('',(#582,#583),#12,.F.);
#637=ADVANCED_FACE('',(#584,#585),#13,.T.);
#638=ADVANCED_FACE('',(#586,#587),#14,.T.);
#639=ADVANCED_FACE('',(#588,#589),#15,.T.);
#640=ADVANCED_FACE('',(#590,#591),#16,.T.);
#641=ADVANCED_FACE('',(#592,#593),#613,.T.);
#642=ADVANCED_FACE('',(#594),#22,.T.);
#643=ADVANCED_FACE('',(#595,#596),#614,.T.);
#644=ADVANCED_FACE('',(#597),#23,.T.);
#645=OPEN_SHELL('',(#615,#616,#617));
#646=OPEN_SHELL('',(#618));
#647=OPEN_SHELL('',(#619,#620));
#648=OPEN_SHELL('',(#621,#622));
#649=OPEN_SHELL('',(#623,#624,#625));
#650=STYLED_ITEM('',(#656),#697);
#651=STYLED_ITEM('',(#657),#698);
#652=STYLED_ITEM('',(#658),#699);
#653=STYLED_ITEM('',(#659),#700);
#654=STYLED_ITEM('',(#660),#701);
#655=STYLED_ITEM('',(#661),#43);
#656=PRESENTATION_STYLE_ASSIGNMENT((#662));
#657=PRESENTATION_STYLE_ASSIGNMENT((#663));
#658=PRESENTATION_STYLE_ASSIGNMENT((#664));
#659=PRESENTATION_STYLE_ASSIGNMENT((#665));
#660=PRESENTATION_STYLE_ASSIGNMENT((#666));
#661=PRESENTATION_STYLE_ASSIGNMENT((#667));
#662=SURFACE_STYLE_USAGE(.BOTH.,#668);
#663=SURFACE_STYLE_USAGE(.BOTH.,#669);
#664=SURFACE_STYLE_USAGE(.BOTH.,#670);
#665=SURFACE_STYLE_USAGE(.BOTH.,#671);
#666=SURFACE_STYLE_USAGE(.BOTH.,#672);
#667=SURFACE_STYLE_USAGE(.BOTH.,#673);
#668=SURFACE_SIDE_STYLE('',(#674));
#669=SURFACE_SIDE_STYLE('',(#675));
#670=SURFACE_SIDE_STYLE('',(#676));
#671=SURFACE_SIDE_STYLE('',(#677));
#672=SURFACE_SIDE_STYLE('',(#678));
#673=SURFACE_SIDE_STYLE('',(#679));
#674=SURFACE_STYLE_FILL_AREA(#680);
#675=SURFACE_STYLE_FILL_AREA(#681);
#676=SURFACE_STYLE_FILL_AREA(#682);
#677=SURFACE_STYLE_FILL_AREA(#683);
#678=SURFACE_STYLE_FILL_AREA(#684);
#679=SURFACE_STYLE_FILL_AREA(#685);
#680=FILL_AREA_STYLE('',(#686));
#681=FILL_AREA_STYLE('',(#687));
#682=FILL_AREA_STYLE('',(#688));
#683=FILL_AREA_STYLE('',(#689));
#684=FILL_AREA_STYLE('',(#690));
#685=FILL_AREA_STYLE('',(#691));
#686=FILL_AREA_STYLE_COLOUR('',#692);
#687=FILL_AREA_STYLE_COLOUR('',#44);
#688=FILL_AREA_STYLE_COLOUR('',#693);
#689=FILL_AREA_STYLE_COLOUR('',#694);
#690=FILL_AREA_STYLE_COLOUR('',#695);
#691=FILL_AREA_STYLE_COLOUR('',#696);
#692=COLOUR_RGB('',0.917647058823529,0.917647058823529,0.917647058823529);
#693=COLOUR_RGB('',1.,0.992156862745098,0.976470588235294);
#694=COLOUR_RGB('',0.992156862745098,0.988235294117647,0.984313725490196);
#695=COLOUR_RGB('',0.984313725490196,0.968627450980392,0.96078431372549);
#696=COLOUR_RGB('',0.423529411764706,0.427450980392157,0.427450980392157);
#697=SHELL_BASED_SURFACE_MODEL('Surface 3',(#645));
#698=SHELL_BASED_SURFACE_MODEL('Surface 1',(#646));
#699=SHELL_BASED_SURFACE_MODEL('Surface 5',(#647));
#700=SHELL_BASED_SURFACE_MODEL('Surface 4',(#648));
#701=SHELL_BASED_SURFACE_MODEL('Surface 2',(#649));
#702=SHAPE_DEFINITION_REPRESENTATION(#1443,#708);
#703=SHAPE_DEFINITION_REPRESENTATION(#1444,#709);
#704=SHAPE_DEFINITION_REPRESENTATION(#1445,#710);
#705=SHAPE_DEFINITION_REPRESENTATION(#1446,#711);
#706=SHAPE_DEFINITION_REPRESENTATION(#1447,#712);
#707=SHAPE_DEFINITION_REPRESENTATION(#1448,#713);
#708=SHAPE_REPRESENTATION('Surface 3',(#714),#1413);
#709=SHAPE_REPRESENTATION('Surface 1',(#718),#1414);
#710=SHAPE_REPRESENTATION('Surface 5',(#720),#1415);
#711=SHAPE_REPRESENTATION('Surface 4',(#723),#1416);
#712=SHAPE_REPRESENTATION('Surface 2',(#726),#1417);
#713=SHAPE_REPRESENTATION('Part 1',(#730),#1418);
#714=AXIS2_PLACEMENT_3D('',#876,#768,#769);
#715=AXIS2_PLACEMENT_3D('',#877,#770,#771);
#716=AXIS2_PLACEMENT_3D('',#893,#772,#773);
#717=AXIS2_PLACEMENT_3D('',#978,#774,#775);
#718=AXIS2_PLACEMENT_3D('',#988,#776,#777);
#719=AXIS2_PLACEMENT_3D('',#989,#778,#779);
#720=AXIS2_PLACEMENT_3D('',#1035,#780,#781);
#721=AXIS2_PLACEMENT_3D('',#1036,#782,#783);
#722=AXIS2_PLACEMENT_3D('',#1057,#784,#785);
#723=AXIS2_PLACEMENT_3D('',#1137,#786,#787);
#724=AXIS2_PLACEMENT_3D('',#1138,#788,#789);
#725=AXIS2_PLACEMENT_3D('',#1229,#790,#791);
#726=AXIS2_PLACEMENT_3D('',#1239,#792,#793);
#727=AXIS2_PLACEMENT_3D('',#1240,#794,#795);
#728=AXIS2_PLACEMENT_3D('',#1331,#796,#797);
#729=AXIS2_PLACEMENT_3D('',#1341,#798,#799);
#730=AXIS2_PLACEMENT_3D('',#1351,#800,#801);
#731=AXIS2_PLACEMENT_3D('',#1352,#802,#803);
#732=AXIS2_PLACEMENT_3D('',#1353,#804,#805);
#733=AXIS2_PLACEMENT_3D('',#1355,#806,#807);
#734=AXIS2_PLACEMENT_3D('',#1357,#808,#809);
#735=AXIS2_PLACEMENT_3D('',#1358,#810,#811);
#736=AXIS2_PLACEMENT_3D('',#1360,#812,#813);
#737=AXIS2_PLACEMENT_3D('',#1362,#814,#815);
#738=AXIS2_PLACEMENT_3D('',#1363,#816,#817);
#739=AXIS2_PLACEMENT_3D('',#1365,#818,#819);
#740=AXIS2_PLACEMENT_3D('',#1367,#820,#821);
#741=AXIS2_PLACEMENT_3D('',#1368,#822,#823);
#742=AXIS2_PLACEMENT_3D('',#1370,#824,#825);
#743=AXIS2_PLACEMENT_3D('',#1372,#826,#827);
#744=AXIS2_PLACEMENT_3D('',#1373,#828,#829);
#745=AXIS2_PLACEMENT_3D('',#1375,#830,#831);
#746=AXIS2_PLACEMENT_3D('',#1377,#832,#833);
#747=AXIS2_PLACEMENT_3D('',#1379,#834,#835);
#748=AXIS2_PLACEMENT_3D('',#1380,#836,#837);
#749=AXIS2_PLACEMENT_3D('',#1382,#838,#839);
#750=AXIS2_PLACEMENT_3D('',#1384,#840,#841);
#751=AXIS2_PLACEMENT_3D('',#1385,#842,#843);
#752=AXIS2_PLACEMENT_3D('',#1387,#844,#845);
#753=AXIS2_PLACEMENT_3D('',#1389,#846,#847);
#754=AXIS2_PLACEMENT_3D('',#1390,#848,#849);
#755=AXIS2_PLACEMENT_3D('',#1392,#850,#851);
#756=AXIS2_PLACEMENT_3D('',#1393,#852,#853);
#757=AXIS2_PLACEMENT_3D('',#1394,#854,#855);
#758=AXIS2_PLACEMENT_3D('',#1395,#856,#857);
#759=AXIS2_PLACEMENT_3D('',#1396,#858,#859);
#760=AXIS2_PLACEMENT_3D('',#1397,#860,#861);
#761=AXIS2_PLACEMENT_3D('',#1398,#862,#863);
#762=AXIS2_PLACEMENT_3D('',#1399,#864,#865);
#763=AXIS2_PLACEMENT_3D('',#1400,#866,#867);
#764=AXIS2_PLACEMENT_3D('',#1402,#868,#869);
#765=AXIS2_PLACEMENT_3D('',#1403,#870,#871);
#766=AXIS2_PLACEMENT_3D('',#1404,#872,#873);
#767=AXIS2_PLACEMENT_3D('',#1406,#874,#875);
#768=DIRECTION('',(0.,0.,1.));
#769=DIRECTION('',(1.,0.,0.));
#770=DIRECTION('',(0.,0.,-1.));
#771=DIRECTION('',(-1.,0.,0.));
#772=DIRECTION('',(0.,0.,-1.));
#773=DIRECTION('',(-1.,0.,0.));
#774=DIRECTION('',(0.,0.,-1.));
#775=DIRECTION('',(-1.,0.,0.));
#776=DIRECTION('',(0.,0.,1.));
#777=DIRECTION('',(1.,0.,0.));
#778=DIRECTION('',(0.,0.,-1.));
#779=DIRECTION('',(-1.,0.,0.));
#780=DIRECTION('',(0.,0.,1.));
#781=DIRECTION('',(1.,0.,0.));
#782=DIRECTION('',(0.,0.,-1.));
#783=DIRECTION('',(-1.,0.,0.));
#784=DIRECTION('',(0.,0.,-1.));
#785=DIRECTION('',(-1.,0.,0.));
#786=DIRECTION('',(0.,0.,1.));
#787=DIRECTION('',(1.,0.,0.));
#788=DIRECTION('',(0.,0.,-1.));
#789=DIRECTION('',(-1.,0.,0.));
#790=DIRECTION('',(0.,0.,-1.));
#791=DIRECTION('',(-1.,0.,0.));
#792=DIRECTION('',(0.,0.,1.));
#793=DIRECTION('',(1.,0.,0.));
#794=DIRECTION('',(0.,0.,-1.));
#795=DIRECTION('',(-1.,0.,0.));
#796=DIRECTION('',(0.,0.,-1.));
#797=DIRECTION('',(-1.,0.,0.));
#798=DIRECTION('',(0.,0.,-1.));
#799=DIRECTION('',(-1.,0.,0.));
#800=DIRECTION('',(0.,0.,1.));
#801=DIRECTION('',(1.,0.,0.));
#802=DIRECTION('',(0.,0.,-1.));
#803=DIRECTION('',(-1.,0.,0.));
#804=DIRECTION('',(0.,0.,1.));
#805=DIRECTION('',(1.,0.,0.));
#806=DIRECTION('',(0.,0.,1.));
#807=DIRECTION('',(1.,0.,0.));
#808=DIRECTION('',(0.,0.,1.));
#809=DIRECTION('',(1.,0.,0.));
#810=DIRECTION('',(0.,0.,1.));
#811=DIRECTION('',(1.,0.,0.));
#812=DIRECTION('',(0.,0.,1.));
#813=DIRECTION('',(1.,0.,0.));
#814=DIRECTION('',(0.,0.,1.));
#815=DIRECTION('',(1.,0.,0.));
#816=DIRECTION('',(0.,0.,-1.));
#817=DIRECTION('',(-1.,0.,0.));
#818=DIRECTION('',(0.,0.,1.));
#819=DIRECTION('',(1.,0.,0.));
#820=DIRECTION('',(0.,0.,1.));
#821=DIRECTION('',(1.,0.,0.));
#822=DIRECTION('',(0.,0.,-1.));
#823=DIRECTION('',(-1.,0.,0.));
#824=DIRECTION('',(0.,0.,-1.));
#825=DIRECTION('',(-1.,0.,0.));
#826=DIRECTION('',(0.,0.,-1.));
#827=DIRECTION('',(1.,0.,0.));
#828=DIRECTION('',(0.,0.,-1.));
#829=DIRECTION('',(-1.,0.,0.));
#830=DIRECTION('',(0.,0.,-1.));
#831=DIRECTION('',(-1.,0.,0.));
#832=DIRECTION('',(0.,0.,-1.));
#833=DIRECTION('',(-1.,0.,0.));
#834=DIRECTION('',(0.,0.,-1.));
#835=DIRECTION('',(1.,0.,0.));
#836=DIRECTION('',(0.,0.,-1.));
#837=DIRECTION('',(-1.,0.,0.));
#838=DIRECTION('',(0.,0.,-1.));
#839=DIRECTION('',(-1.,0.,0.));
#840=DIRECTION('',(0.,0.,-1.));
#841=DIRECTION('',(-1.,0.,0.));
#842=DIRECTION('',(0.,0.,1.));
#843=DIRECTION('',(1.,0.,0.));
#844=DIRECTION('',(0.,0.,1.));
#845=DIRECTION('',(1.,0.,0.));
#846=DIRECTION('',(0.,0.,1.));
#847=DIRECTION('',(1.,0.,0.));
#848=DIRECTION('',(0.,0.,1.));
#849=DIRECTION('',(1.,0.,0.));
#850=DIRECTION('',(0.,0.,1.));
#851=DIRECTION('',(1.,0.,0.));
#852=DIRECTION('',(0.,0.,-1.));
#853=DIRECTION('',(-1.,0.,0.));
#854=DIRECTION('',(0.,0.,1.));
#855=DIRECTION('',(1.,0.,0.));
#856=DIRECTION('',(0.,0.,-1.));
#857=DIRECTION('',(-1.,0.,0.));
#858=DIRECTION('',(0.,0.,1.));
#859=DIRECTION('',(1.,0.,0.));
#860=DIRECTION('',(0.,0.,1.));
#861=DIRECTION('',(1.,0.,0.));
#862=DIRECTION('',(0.,0.,-1.));
#863=DIRECTION('',(-1.,0.,0.));
#864=DIRECTION('',(0.,0.,1.));
#865=DIRECTION('',(1.,0.,0.));
#866=DIRECTION('',(0.,0.,-1.));
#867=DIRECTION('',(-1.,0.,0.));
#868=DIRECTION('',(0.,0.,-1.));
#869=DIRECTION('',(1.,0.,0.));
#870=DIRECTION('',(0.,0.,1.));
#871=DIRECTION('',(1.,0.,0.));
#872=DIRECTION('',(0.,0.,-1.));
#873=DIRECTION('',(-1.,0.,0.));
#874=DIRECTION('',(0.,0.,-1.));
#875=DIRECTION('',(1.,0.,0.));
#876=CARTESIAN_POINT('',(0.,0.,0.));
#877=CARTESIAN_POINT('',(8.67361737988404E-19,2.4492935982947E-19,0.0150147669686212));
#878=CARTESIAN_POINT('',(0.00399745863423904,0.000142563906890044,0.00712346552821118));
#879=CARTESIAN_POINT('',(0.00399419786468898,0.000233995123082825,0.00712264324684716));
#880=CARTESIAN_POINT('',(0.00398779899793026,0.000325314389504981,0.00712182096548315));
#881=CARTESIAN_POINT('',(0.00397827708720367,0.000416306878912979,0.00712099868411913));
#882=CARTESIAN_POINT('',(0.00399745863423961,0.000142563906874236,0.00712346552645102));
#883=CARTESIAN_POINT('',(0.00397827708720367,0.000416306878912989,0.00712099868411912));
#884=CARTESIAN_POINT('',(0.00399045151683118,0.000276218558065474,0.00710312117258204));
#885=CARTESIAN_POINT('',(0.00399379581733015,0.000227904393034884,0.00710355644622395));
#886=CARTESIAN_POINT('',(0.0039960044873497,0.0001833378458603,0.00711033789751361));
#887=CARTESIAN_POINT('',(0.0039974586342396,0.000142563906874234,0.00712346552645102));
#888=CARTESIAN_POINT('',(0.00399045151683117,0.000276218558065471,0.00710312117258204));
#889=CARTESIAN_POINT('',(0.00397827708720527,0.000416306878897742,0.00712099868241452));
#890=CARTESIAN_POINT('',(0.00398271230573197,0.000373923413392116,0.00710862076261029));
#891=CARTESIAN_POINT('',(0.00398692046602967,0.00032723065198697,0.00710266159266613));
#892=CARTESIAN_POINT('',(0.00399045151683118,0.000276218558065474,0.00710312117258204));
#893=CARTESIAN_POINT('',(8.67361737988404E-19,2.4492935982947E-19,0.0150147669686212));
#894=CARTESIAN_POINT('',(0.00399997123923887,-1.51685616284147E-5,0.00782096191641782));
#895=CARTESIAN_POINT('',(0.00399996435689653,-1.69834450752163E-5,0.00761903141474406));
#896=CARTESIAN_POINT('',(0.00400026851021857,5.4450060229831E-6,0.00747177530558726));
#897=CARTESIAN_POINT('',(0.00399966058051101,5.21079716202069E-5,0.00737919358894741));
#898=CARTESIAN_POINT('',(0.00399997123923887,-1.516856162842E-5,0.00782096191641781));
#899=CARTESIAN_POINT('',(0.00399966058051101,5.21079716202158E-5,0.00737919358894741));
#900=CARTESIAN_POINT('',(0.00399954956785264,6.0027112955209E-5,0.00826038629722934));
#901=CARTESIAN_POINT('',(0.00400027465155209,1.17154741972009E-5,0.00816936721169541));
#902=CARTESIAN_POINT('',(0.00399997812158121,-1.33536781816119E-5,0.00802289241809157));
#903=CARTESIAN_POINT('',(0.00399997123923887,-1.51685616284147E-5,0.00782096191641782));
#904=CARTESIAN_POINT('',(0.00399954956785264,6.00271129552179E-5,0.00826038629722934));
#905=CARTESIAN_POINT('',(0.00398963257457489,0.000287805350698892,0.00839551689091728));
#906=CARTESIAN_POINT('',(0.00399709389342437,0.000184374609543858,0.00839644891399259));
#907=CARTESIAN_POINT('',(0.0039988244841532,0.00010833875171323,0.00835140538276327));
#908=CARTESIAN_POINT('',(0.00399954956785264,6.0027112955209E-5,0.00826038629722934));
#909=CARTESIAN_POINT('',(0.0039896325745749,0.000287805350698892,0.00839551689091727));
#910=CARTESIAN_POINT('',(0.0039668779100058,0.000513692171546357,0.00825432120714067));
#911=CARTESIAN_POINT('',(0.00397281829613248,0.000467818810401126,0.00834750689741345));
#912=CARTESIAN_POINT('',(0.00398206924550677,0.000392650184018147,0.00839457212533899));
#913=CARTESIAN_POINT('',(0.00398963257457489,0.000287805350698892,0.00839551689091728));
#914=CARTESIAN_POINT('',(0.0039668779100058,0.000513692171546357,0.00825432120714067));
#915=CARTESIAN_POINT('',(0.00395776132478078,0.000579763137901592,0.0078155964124833));
#916=CARTESIAN_POINT('',(0.00395750170223157,0.000581535454934391,0.00801489391864878));
#917=CARTESIAN_POINT('',(0.00396093752387912,0.000559565532691588,0.0081611355168679));
#918=CARTESIAN_POINT('',(0.0039668779100058,0.000513692171546357,0.00825432120714067));
#919=CARTESIAN_POINT('',(0.00395776132478078,0.000579763137901597,0.0078155964124833));
#920=CARTESIAN_POINT('',(0.00396788291752752,0.000505870687817849,0.00737692608853415));
#921=CARTESIAN_POINT('',(0.00396182141094099,0.000553415147337551,0.00746987292688542));
#922=CARTESIAN_POINT('',(0.00395802121117404,0.000577989019733603,0.00761609636820181));
#923=CARTESIAN_POINT('',(0.00395776132478078,0.000579763137901592,0.0078155964124833));
#924=CARTESIAN_POINT('',(0.00396788291752752,0.000505870687817849,0.00737692608853415));
#925=CARTESIAN_POINT('',(0.0039903670464363,0.000277436181337676,0.00723892297937467));
#926=CARTESIAN_POINT('',(0.0039830762120937,0.000382300316078429,0.00723797821379639));
#927=CARTESIAN_POINT('',(0.00397394442411405,0.000458326228298148,0.00728397925018288));
#928=CARTESIAN_POINT('',(0.00396788291752752,0.000505870687817849,0.00737692608853415));
#929=CARTESIAN_POINT('',(0.0039903670464363,0.000277436181337682,0.00723892297937467));
#930=CARTESIAN_POINT('',(0.00399966058051101,5.21079716202069E-5,0.00737919358894741));
#931=CARTESIAN_POINT('',(0.00399905265080344,9.87709372174437E-5,0.00728661187230756));
#932=CARTESIAN_POINT('',(0.00399755954582631,0.000173986399088617,0.00723985500244998));
#933=CARTESIAN_POINT('',(0.0039903670464363,0.000277436181337676,0.00723892297937467));
#934=CARTESIAN_POINT('',(0.0039974586342396,0.000142563906874234,0.00712346552645102));
#935=CARTESIAN_POINT('',(0.00400048646928104,5.76641198606941E-5,0.0071507999691979));
#936=CARTESIAN_POINT('',(0.00400032182772431,-1.07771454562302E-5,0.00720564881463457));
#937=CARTESIAN_POINT('',(0.00399950942978893,-6.26444014214703E-5,0.00728801206276102));
#938=CARTESIAN_POINT('',(0.00399950942978893,-6.26444014214667E-5,0.00728801206276102));
#939=CARTESIAN_POINT('',(0.00395125024141675,0.000622592587254362,0.00727757682802037));
#940=CARTESIAN_POINT('',(0.00395927032782868,0.00057169354184318,0.00719851593599788));
#941=CARTESIAN_POINT('',(0.00396920287573955,0.000503021101958669,0.00714632322079593));
#942=CARTESIAN_POINT('',(0.00397827708720527,0.000416306878897742,0.00712099868241452));
#943=CARTESIAN_POINT('',(0.00395125024141675,0.000622592587254361,0.00727757682802036));
#944=CARTESIAN_POINT('',(0.00393111115774824,0.000739165113778574,0.00781414376714327));
#945=CARTESIAN_POINT('',(0.00393150977539808,0.000737045140498263,0.00757413609965742));
#946=CARTESIAN_POINT('',(0.00393931016306124,0.000698369649896216,0.00739528045328312));
#947=CARTESIAN_POINT('',(0.00395125024141675,0.000622592587254362,0.00727757682802037));
#948=CARTESIAN_POINT('',(0.00393111115774824,0.000739165113778574,0.00781414376714327));
#949=CARTESIAN_POINT('',(0.00395034286123588,0.000628324182793212,0.00834579698362386));
#950=CARTESIAN_POINT('',(0.00393823487720444,0.000704448402729978,0.00822286257258308));
#951=CARTESIAN_POINT('',(0.0039307266683189,0.000741209948765408,0.00804564483375621));
#952=CARTESIAN_POINT('',(0.00393111115774824,0.000739165113778574,0.00781414376714327));
#953=CARTESIAN_POINT('',(0.00395034286123588,0.000628324182793203,0.00834579698362386));
#954=CARTESIAN_POINT('',(0.0039811040123865,0.000388343717034383,0.00852130783917151));
#955=CARTESIAN_POINT('',(0.00397117561090315,0.000490124683864044,0.00849848806713062));
#956=CARTESIAN_POINT('',(0.00395961951788893,0.000570000827765514,0.00843998444861473));
#957=CARTESIAN_POINT('',(0.00395034286123588,0.000628324182793212,0.00834579698362386));
#958=CARTESIAN_POINT('',(0.00398110401238651,0.000388343717034388,0.00852130783917151));
#959=CARTESIAN_POINT('',(0.00399570557056376,0.000185302437560189,0.00852313762540821));
#960=CARTESIAN_POINT('',(0.00399256179725522,0.000253092115272528,0.00852252769537408));
#961=CARTESIAN_POINT('',(0.00398769250970334,0.000320801763977194,0.00852191776533994));
#962=CARTESIAN_POINT('',(0.00398110401238988,0.000388343716999806,0.00852130783530581));
#963=CARTESIAN_POINT('',(0.00399570557056376,0.000185302437560188,0.00852313762540821));
#964=CARTESIAN_POINT('',(0.0039995965286622,-5.68120402141386E-5,0.00835957409727887));
#965=CARTESIAN_POINT('',(0.00400042244238396,1.33270590106022E-6,0.00844824259985731));
#966=CARTESIAN_POINT('',(0.004000491216427,8.21088040358962E-5,0.00850276377652724));
#967=CARTESIAN_POINT('',(0.00399570557056298,0.000185302437577072,0.00852313762728867));
#968=CARTESIAN_POINT('',(0.0039995965286622,-5.68120402141315E-5,0.00835957409727887));
#969=CARTESIAN_POINT('',(0.00399618701991693,-0.000174611860557724,0.00782239544800337));
#970=CARTESIAN_POINT('',(0.00399628182047549,-0.000172442244127369,0.0080640234204174));
#971=CARTESIAN_POINT('',(0.00399851145766697,-0.000133201590202126,0.0082430829701759));
#972=CARTESIAN_POINT('',(0.0039995965286622,-5.68120402141386E-5,0.00835957409727887));
#973=CARTESIAN_POINT('',(0.00399618701991694,-0.000174611860557713,0.00782239544800337));
#974=CARTESIAN_POINT('',(0.00399950942978893,-6.26444014214703E-5,0.00728801206276102));
#975=CARTESIAN_POINT('',(0.00399830686993424,-0.000139421405744068,0.00740993105268534));
#976=CARTESIAN_POINT('',(0.00399609508006257,-0.000176716006584469,0.00758805884776612));
#977=CARTESIAN_POINT('',(0.00399618701991693,-0.000174611860557724,0.00782239544800337));
#978=CARTESIAN_POINT('',(8.67361737988404E-19,2.4492935982947E-19,0.0150147669686212));
#979=CARTESIAN_POINT('',(0.00398954397675533,0.000289030893738491,0.00853223011923201));
#980=CARTESIAN_POINT('',(0.00398699783707657,0.00032417570503528,0.00853191341935957));
#981=CARTESIAN_POINT('',(0.00398413425873438,0.000357279159105742,0.0085282726593394));
#982=CARTESIAN_POINT('',(0.0039811040123865,0.000388343717034383,0.00852130783917151));
#983=CARTESIAN_POINT('',(0.00398954397675533,0.0002890308937385,0.008532230119232));
#984=CARTESIAN_POINT('',(0.00399570557056298,0.000185302437577072,0.00852313762728867));
#985=CARTESIAN_POINT('',(0.00399420391863348,0.000217682794026626,0.00852953058514146));
#986=CARTESIAN_POINT('',(0.00399220746791282,0.000252266259456421,0.00853256141578924));
#987=CARTESIAN_POINT('',(0.00398954397675533,0.000289030893738491,0.00853223011923201));
#988=CARTESIAN_POINT('',(0.,0.,0.));
#989=CARTESIAN_POINT('',(8.67361737988404E-19,2.4492935982947E-19,0.0150147669686212));
#990=CARTESIAN_POINT('',(0.00352171648873527,-0.00189671109370144,0.00714250795160688));
#991=CARTESIAN_POINT('',(0.00352312173454026,-0.00189410190491217,0.0074722400044904));
#992=CARTESIAN_POINT('',(0.00352452408067873,-0.00189149115443284,0.00780197205737393));
#993=CARTESIAN_POINT('',(0.00352592352368673,-0.00188887884871226,0.00813170411025745));
#994=CARTESIAN_POINT('',(0.00352171648873527,-0.00189671109370144,0.00714250795160687));
#995=CARTESIAN_POINT('',(0.00352592352368673,-0.00188887884871226,0.00813170411025744));
#996=CARTESIAN_POINT('',(0.00352171648873527,-0.00189671109370144,0.00714250795160688));
#997=CARTESIAN_POINT('',(0.00354601437417619,-0.00185159601840988,0.00714204740114193));
#998=CARTESIAN_POINT('',(0.00356944522961332,-0.00180601398390107,0.00714158685067699));
#999=CARTESIAN_POINT('',(0.00359199175532788,-0.00175999864478827,0.00714112630021204));
#1000=CARTESIAN_POINT('',(0.00359199175532788,-0.00175999864478828,0.00714112630021203));
#1001=CARTESIAN_POINT('',(0.00359746363204415,-0.0017487868412473,0.00852922127836758));
#1002=CARTESIAN_POINT('',(0.00359564550280273,-0.00175252695048766,0.00806652295231573));
#1003=CARTESIAN_POINT('',(0.0035938215409401,-0.00175626422439393,0.00760382462626389));
#1004=CARTESIAN_POINT('',(0.00359199175532788,-0.00175999864478827,0.00714112630021204));
#1005=CARTESIAN_POINT('',(0.00359746363204416,-0.00174878684124729,0.00852922127836758));
#1006=CARTESIAN_POINT('',(0.00353744905090068,-0.00186720491973481,0.00853041452275403));
#1007=CARTESIAN_POINT('',(0.00355810714250502,-0.00182806784068857,0.00853001677462521));
#1008=CARTESIAN_POINT('',(0.00357811567597296,-0.00178858790028938,0.0085296190264964));
#1009=CARTESIAN_POINT('',(0.00359746363204415,-0.0017487868412473,0.00852922127836758));
#1010=CARTESIAN_POINT('',(0.00353744905090068,-0.0018672049197348,0.00853041452275403));
#1011=CARTESIAN_POINT('',(0.00334993466344088,-0.00218584943458539,0.00824965603348474));
#1012=CARTESIAN_POINT('',(0.00341730544380022,-0.0020826000026447,0.0083432421965745));
#1013=CARTESIAN_POINT('',(0.0034798993173541,-0.0019762337939426,0.00843682835966427));
#1014=CARTESIAN_POINT('',(0.00353744905090068,-0.00186720491973481,0.00853041452275403));
#1015=CARTESIAN_POINT('',(0.00334993466344088,-0.00218584943458538,0.00824965603348474));
#1016=CARTESIAN_POINT('',(0.0033943417497114,-0.00211623346683823,0.0081407497820319));
#1017=CARTESIAN_POINT('',(0.0033797794354649,-0.00213959075325954,0.00817705186584951));
#1018=CARTESIAN_POINT('',(0.00336497602199643,-0.0021627977240635,0.00821335394966713));
#1019=CARTESIAN_POINT('',(0.00334993466344088,-0.00218584943458539,0.00824965603348474));
#1020=CARTESIAN_POINT('',(0.0033943417497114,-0.00211623346683822,0.00814074978203189));
#1021=CARTESIAN_POINT('',(0.00350917072676068,-0.00191982311957271,0.00832389010082606));
#1022=CARTESIAN_POINT('',(0.00347276689745243,-0.00198636427685336,0.00826284332789467));
#1023=CARTESIAN_POINT('',(0.00343446992668655,-0.00205186970519237,0.00820179655496329));
#1024=CARTESIAN_POINT('',(0.0033943417497114,-0.00211623346683823,0.0081407497820319));
#1025=CARTESIAN_POINT('',(0.00350917072676068,-0.00191982311957271,0.00832389010082606));
#1026=CARTESIAN_POINT('',(0.00353049131473309,-0.00188032738548218,0.00836526356367978));
#1027=CARTESIAN_POINT('',(0.0035234583889308,-0.00189353236438843,0.00835147240939521));
#1028=CARTESIAN_POINT('',(0.00351635137713983,-0.00190669788535051,0.00833768125511063));
#1029=CARTESIAN_POINT('',(0.00350917072676068,-0.00191982311957271,0.00832389010082606));
#1030=CARTESIAN_POINT('',(0.00353049131473308,-0.00188032738548219,0.00836526356367978));
#1031=CARTESIAN_POINT('',(0.00352592352368673,-0.00188887884871226,0.00813170411025745));
#1032=CARTESIAN_POINT('',(0.00352627338443873,-0.00188822577228212,0.00821413712347832));
#1033=CARTESIAN_POINT('',(0.00352780130787354,-0.00188537812607529,0.0082919902746191));
#1034=CARTESIAN_POINT('',(0.00353049131473309,-0.00188032738548218,0.00836526356367978));
#1035=CARTESIAN_POINT('',(0.,0.,0.));
#1036=CARTESIAN_POINT('',(8.67361737988404E-19,2.4492935982947E-19,0.0150147669686212));
#1037=CARTESIAN_POINT('',(0.00307046836526532,0.00256363492289853,0.00855448299249847));
#1038=CARTESIAN_POINT('',(0.00307436464709972,0.00255896834186242,0.00853630772874993));
#1039=CARTESIAN_POINT('',(0.00307825029032117,0.00255429287829887,0.00851813246500138));
#1040=CARTESIAN_POINT('',(0.00308212525454073,0.00254960858080653,0.00849995720125284));
#1041=CARTESIAN_POINT('',(0.00307046836526531,0.00256363492289854,0.00855448299249847));
#1042=CARTESIAN_POINT('',(0.00308212525454073,0.00254960858080652,0.00849995720125284));
#1043=CARTESIAN_POINT('',(0.00319086278225603,0.00241213488528592,0.00858934005666153));
#1044=CARTESIAN_POINT('',(0.0031576414328986,0.00245608133616128,0.00858884491940278));
#1045=CARTESIAN_POINT('',(0.0031178510883637,0.0025068845833575,0.00857722589801509));
#1046=CARTESIAN_POINT('',(0.00307046836526532,0.00256363492289853,0.00855448299249847));
#1047=CARTESIAN_POINT('',(0.00319086278225602,0.00241213488528593,0.00858934005666153));
#1048=CARTESIAN_POINT('',(0.0033323654793433,0.00221254159555953,0.00850373201403253));
#1049=CARTESIAN_POINT('',(0.00330123984692805,0.00225942070652922,0.00856176450281559));
#1050=CARTESIAN_POINT('',(0.00325530509339907,0.00232688817147932,0.00859030051702526));
#1051=CARTESIAN_POINT('',(0.00319086278225603,0.00241213488528592,0.00858934005666153));
#1052=CARTESIAN_POINT('',(0.00333236547937413,0.0022125415955131,0.00850373200782995));
#1053=CARTESIAN_POINT('',(0.00333236547937413,0.00221254159551309,0.00850373200782995));
#1054=CARTESIAN_POINT('',(0.00325492733043254,0.00232917317199641,0.00850247373897092));
#1055=CARTESIAN_POINT('',(0.00317136062504117,0.00244173532093119,0.00850121547011188));
#1056=CARTESIAN_POINT('',(0.00308212525454073,0.00254960858080653,0.00849995720125284));
#1057=CARTESIAN_POINT('',(8.67361737988404E-19,2.4492935982947E-19,0.0150147669686212));
#1058=CARTESIAN_POINT('',(0.00338863583041516,0.00212535813660347,0.0071046081070211));
#1059=CARTESIAN_POINT('',(0.00338717434899377,0.00212768829838878,0.00741064320033007));
#1060=CARTESIAN_POINT('',(0.0033857104641026,0.00213001695271377,0.00771667829363904));
#1061=CARTESIAN_POINT('',(0.00338424417885654,0.00213234409462348,0.00802271338694801));
#1062=CARTESIAN_POINT('',(0.00338863583041515,0.00212535813660347,0.0071046081070211));
#1063=CARTESIAN_POINT('',(0.00338424417885653,0.00213234409462349,0.00802271338694801));
#1064=CARTESIAN_POINT('',(0.00338863583041516,0.00212535813660347,0.0071046081070211));
#1065=CARTESIAN_POINT('',(0.00336070934653341,0.00216988366021731,0.00710413572423196));
#1066=CARTESIAN_POINT('',(0.00333190517477664,0.00221385869401182,0.00710366334144281));
#1067=CARTESIAN_POINT('',(0.00330224568869833,0.00225724908051223,0.00710319095865367));
#1068=CARTESIAN_POINT('',(0.00330224568869833,0.00225724908051224,0.00710319095865366));
#1069=CARTESIAN_POINT('',(0.00329758214066092,0.00226405654204884,0.00802129623858058));
#1070=CARTESIAN_POINT('',(0.00329913899666377,0.00226178899242928,0.00771526114527161));
#1071=CARTESIAN_POINT('',(0.00330069351377882,0.00225951983697429,0.00740922605196264));
#1072=CARTESIAN_POINT('',(0.00330224568869833,0.00225724908051223,0.00710319095865367));
#1073=CARTESIAN_POINT('',(0.00329758214066092,0.00226405654204885,0.00802129623858057));
#1074=CARTESIAN_POINT('',(0.00314051372866226,0.00247733193578977,0.00801891521088037));
#1075=CARTESIAN_POINT('',(0.00319520493025314,0.00240799989878987,0.00801970888678044));
#1076=CARTESIAN_POINT('',(0.00324759934628223,0.00233685612413628,0.00802050256268051));
#1077=CARTESIAN_POINT('',(0.00329758214066092,0.00226405654204884,0.00802129623858058));
#1078=CARTESIAN_POINT('',(0.00314051372866226,0.00247733193578976,0.00801891521088037));
#1079=CARTESIAN_POINT('',(0.00313983209200778,0.00247819580219119,0.00814134950201557));
#1080=CARTESIAN_POINT('',(0.003140059343833,0.00247790787797908,0.00810053807163717));
#1081=CARTESIAN_POINT('',(0.00314028655605403,0.00247761992250831,0.00805972664125877));
#1082=CARTESIAN_POINT('',(0.00314051372866226,0.00247733193578977,0.00801891521088037));
#1083=CARTESIAN_POINT('',(0.00313983209200778,0.0024781958021912,0.00814134950201556));
#1084=CARTESIAN_POINT('',(0.00329695917045091,0.00226496362628182,0.00814373052971577));
#1085=CARTESIAN_POINT('',(0.00324695635068687,0.00233774945527107,0.0081429368538157));
#1086=CARTESIAN_POINT('',(0.00319454236487886,0.00240887881344832,0.00814214317791563));
#1087=CARTESIAN_POINT('',(0.00313983209200778,0.00247819580219119,0.00814134950201556));
#1088=CARTESIAN_POINT('',(0.0032969591704509,0.00226496362628183,0.00814373052971576));
#1089=CARTESIAN_POINT('',(0.00329661588920713,0.00226546323718288,0.00821117572235103));
#1090=CARTESIAN_POINT('',(0.00329673032890707,0.00226529670888659,0.00818869399147261));
#1091=CARTESIAN_POINT('',(0.00329684475598877,0.00226513017191893,0.00816621226059419));
#1092=CARTESIAN_POINT('',(0.00329695917045091,0.00226496362628182,0.00814373052971577));
#1093=CARTESIAN_POINT('',(0.00329661588920713,0.00226546323718287,0.00821117572235103));
#1094=CARTESIAN_POINT('',(0.00327126921616925,0.00230191175229274,0.00840112727652488));
#1095=CARTESIAN_POINT('',(0.00328785016574625,0.00227834840331897,0.00836178683508105));
#1096=CARTESIAN_POINT('',(0.00329617153325511,0.00226610984705402,0.00829846965035644));
#1097=CARTESIAN_POINT('',(0.00329661588920713,0.00226546323718288,0.00821117572235103));
#1098=CARTESIAN_POINT('',(0.00327126921616925,0.00230191175229274,0.00840112727652487));
#1099=CARTESIAN_POINT('',(0.00319321486383259,0.00240902030572567,0.00845933516100271));
#1100=CARTESIAN_POINT('',(0.00322907686874482,0.00236148434811652,0.00845987034612798));
#1101=CARTESIAN_POINT('',(0.00325468826659225,0.00232547510126651,0.00844046771796871));
#1102=CARTESIAN_POINT('',(0.00327126921616925,0.00230191175229274,0.00840112727652488));
#1103=CARTESIAN_POINT('',(0.00319321486383259,0.00240902030572567,0.0084593351610027));
#1104=CARTESIAN_POINT('',(0.00309731161794278,0.00253113823039293,0.00842846783050857));
#1105=CARTESIAN_POINT('',(0.00313564878185246,0.00248422568261083,0.00844866013503338));
#1106=CARTESIAN_POINT('',(0.00316735518682105,0.00244329793502207,0.00845894924519809));
#1107=CARTESIAN_POINT('',(0.00319321486383259,0.00240902030572567,0.00845933516100271));
#1108=CARTESIAN_POINT('',(0.00309731161794278,0.00253113823039293,0.00842846783050857));
#1109=CARTESIAN_POINT('',(0.00308212525454073,0.00254960858080653,0.00849995720125284));
#1110=CARTESIAN_POINT('',(0.00308720576318415,0.00254346694631656,0.00847612741100475));
#1111=CARTESIAN_POINT('',(0.00309226791446845,0.00253731012617521,0.00845229762075666));
#1112=CARTESIAN_POINT('',(0.00309731161794278,0.00253113823039293,0.00842846783050857));
#1113=CARTESIAN_POINT('',(0.00338335304976101,0.00213375775116879,0.00820864337745604));
#1114=CARTESIAN_POINT('',(0.00338271328096402,0.00213477218858992,0.00834208398060241));
#1115=CARTESIAN_POINT('',(0.0033663083706415,0.00216141933893926,0.00844044685946124));
#1116=CARTESIAN_POINT('',(0.0033323654793433,0.00221254159555953,0.00850373201403253));
#1117=CARTESIAN_POINT('',(0.003383353049761,0.0021337577511688,0.00820864337745604));
#1118=CARTESIAN_POINT('',(0.00338362977070016,0.00213331891071907,0.00815092001438982));
#1119=CARTESIAN_POINT('',(0.00338353753987354,0.00213346519685058,0.00817016113541189));
#1120=CARTESIAN_POINT('',(0.00338344529956023,0.00213361147700089,0.00818940225643397));
#1121=CARTESIAN_POINT('',(0.00338335304976101,0.00213375775116879,0.00820864337745604));
#1122=CARTESIAN_POINT('',(0.00338362977070016,0.00213331891071907,0.00815092001438982));
#1123=CARTESIAN_POINT('',(0.00347935462013831,0.0019733452377428,0.00809547535391998));
#1124=CARTESIAN_POINT('',(0.00344869486513718,0.00202740377660117,0.00811395690740993));
#1125=CARTESIAN_POINT('',(0.00341677502774436,0.00208074764351249,0.00813243846089987));
#1126=CARTESIAN_POINT('',(0.00338362977070016,0.00213331891071907,0.00815092001438982));
#1127=CARTESIAN_POINT('',(0.00347935462013831,0.00197334523774281,0.00809547535391997));
#1128=CARTESIAN_POINT('',(0.00347966979076607,0.00197278943306933,0.00802438447519632));
#1129=CARTESIAN_POINT('',(0.00347956474868741,0.00197297470968413,0.00804808143477088));
#1130=CARTESIAN_POINT('',(0.00347945969181105,0.00197315997790941,0.00807177839434543));
#1131=CARTESIAN_POINT('',(0.00347935462013831,0.0019733452377428,0.00809547535391998));
#1132=CARTESIAN_POINT('',(0.00347966979076607,0.00197278943306933,0.00802438447519632));
#1133=CARTESIAN_POINT('',(0.00338424417885654,0.00213234409462348,0.00802271338694801));
#1134=CARTESIAN_POINT('',(0.00341728307196264,0.00207990805395251,0.00802327041636411));
#1135=CARTESIAN_POINT('',(0.00344910306405233,0.00202670401400001,0.00802382744578022));
#1136=CARTESIAN_POINT('',(0.00347966979076607,0.00197278943306933,0.00802438447519632));
#1137=CARTESIAN_POINT('',(0.,0.,0.));
#1138=CARTESIAN_POINT('',(8.67361737988404E-19,2.4492935982947E-19,0.0150147669686212));
#1139=CARTESIAN_POINT('',(0.00363167283092464,0.00167658952911076,0.00710919813863124));
#1140=CARTESIAN_POINT('',(0.00363468122240125,0.00167007303034901,0.00715574889966708));
#1141=CARTESIAN_POINT('',(0.00363767207449833,0.00166354843439871,0.00720229966070293));
#1142=CARTESIAN_POINT('',(0.00364064534388267,0.00165701583579199,0.00724885042173877));
#1143=CARTESIAN_POINT('',(0.00363167283092463,0.00167658952911076,0.00710919813863123));
#1144=CARTESIAN_POINT('',(0.00364064534388268,0.00165701583579199,0.00724885042173877));
#1145=CARTESIAN_POINT('',(0.00363167283092464,0.00167658952911076,0.00710919813863124));
#1146=CARTESIAN_POINT('',(0.00361350566020025,0.00171594157037606,0.00710880858211148));
#1147=CARTESIAN_POINT('',(0.00359469881785884,0.00175499830146018,0.00710841902559172));
#1148=CARTESIAN_POINT('',(0.00357526223919296,0.00179373908944443,0.00710802946907196));
#1149=CARTESIAN_POINT('',(0.00357526223919296,0.00179373908944442,0.00710802946907196));
#1150=CARTESIAN_POINT('',(0.00357105867019882,0.00180209322011871,0.00814856904013407));
#1151=CARTESIAN_POINT('',(0.00357246311458179,0.00179931014916842,0.0078017225164467));
#1152=CARTESIAN_POINT('',(0.00357386430552307,0.00179652543640663,0.00745487599275933));
#1153=CARTESIAN_POINT('',(0.00357526223919296,0.00179373908944443,0.00710802946907196));
#1154=CARTESIAN_POINT('',(0.00357105867019883,0.0018020932201187,0.00814856904013406));
#1155=CARTESIAN_POINT('',(0.0036393028566126,0.00165996226398415,0.0081499861885015));
#1156=CARTESIAN_POINT('',(0.00361749151639135,0.00170778146716485,0.00814951380571236));
#1157=CARTESIAN_POINT('',(0.00359473756289852,0.00175517072236336,0.00814904142292321));
#1158=CARTESIAN_POINT('',(0.00357105867019882,0.00180209322011871,0.00814856904013407));
#1159=CARTESIAN_POINT('',(0.0036393028566126,0.00165996226398416,0.0081499861885015));
#1160=CARTESIAN_POINT('',(0.00364133977306849,0.00165548925006159,0.00760313327524259));
#1161=CARTESIAN_POINT('',(0.00364066171703149,0.00165698067165543,0.00778541757966223));
#1162=CARTESIAN_POINT('',(0.00363998274470867,0.00165847167667147,0.00796770188408186));
#1163=CARTESIAN_POINT('',(0.0036393028566126,0.00165996226398415,0.0081499861885015));
#1164=CARTESIAN_POINT('',(0.00364133977306849,0.0016554892500616,0.00760313327524259));
#1165=CARTESIAN_POINT('',(0.00367291327312546,0.00158420582251765,0.00731230746477384));
#1166=CARTESIAN_POINT('',(0.00365280822486882,0.00163081851485159,0.00737130095314914));
#1167=CARTESIAN_POINT('',(0.00364184153453587,0.00165438559808216,0.00746824288997206));
#1168=CARTESIAN_POINT('',(0.00364133977306849,0.00165548925006159,0.00760313327524259));
#1169=CARTESIAN_POINT('',(0.00367291327312546,0.00158420582251765,0.00731230746477383));
#1170=CARTESIAN_POINT('',(0.0037611611176362,0.00136149441687493,0.00722528626076904));
#1171=CARTESIAN_POINT('',(0.00372407213548059,0.0014639536233523,0.00722430690839693));
#1172=CARTESIAN_POINT('',(0.0036930183213821,0.00153759313018372,0.00725331397639853));
#1173=CARTESIAN_POINT('',(0.00367291327312546,0.00158420582251765,0.00731230746477384));
#1174=CARTESIAN_POINT('',(0.0037611611176362,0.00136149441687493,0.00722528626076903));
#1175=CARTESIAN_POINT('',(0.00381879615804547,0.00119029236042964,0.00728949930355461));
#1176=CARTESIAN_POINT('',(0.00380742633144155,0.00122676999533359,0.00724742967353722));
#1177=CARTESIAN_POINT('',(0.00378915020082426,0.00128417390046265,0.00722602532594203));
#1178=CARTESIAN_POINT('',(0.0037611611176362,0.00136149441687493,0.00722528626076904));
#1179=CARTESIAN_POINT('',(0.00381879615804547,0.00119029236042965,0.0072894993035546));
#1180=CARTESIAN_POINT('',(0.00383513340306514,0.00113655258597834,0.00747989895450039));
#1181=CARTESIAN_POINT('',(0.00383535012370286,0.00113582129332444,0.00739503548388725));
#1182=CARTESIAN_POINT('',(0.00383016598464939,0.0011538147255257,0.00733156893357199));
#1183=CARTESIAN_POINT('',(0.00381879615804547,0.00119029236042964,0.00728949930355461));
#1184=CARTESIAN_POINT('',(0.00383513340306513,0.00113655258597833,0.00747989895450039));
#1185=CARTESIAN_POINT('',(0.00383340505426575,0.0011423684562915,0.00815495849520112));
#1186=CARTESIAN_POINT('',(0.00383398264068632,0.00114043027015577,0.00792993864830088));
#1187=CARTESIAN_POINT('',(0.00383455875717369,0.00113849164597468,0.00770491880140063));
#1188=CARTESIAN_POINT('',(0.00383513340306514,0.00113655258597834,0.00747989895450039));
#1189=CARTESIAN_POINT('',(0.00383340505426575,0.0011423684562915,0.00815495849520112));
#1190=CARTESIAN_POINT('',(0.00387589743795187,0.000988645057883831,0.00815639202678668));
#1191=CARTESIAN_POINT('',(0.00386275679902625,0.00104016179621042,0.00815591418292483));
#1192=CARTESIAN_POINT('',(0.00384858891755869,0.00109141650819641,0.00815543633906297));
#1193=CARTESIAN_POINT('',(0.00383340505426575,0.0011423684562915,0.00815495849520112));
#1194=CARTESIAN_POINT('',(0.00387589743795187,0.00098864505788383,0.00815639202678667));
#1195=CARTESIAN_POINT('',(0.00387740531450018,0.000982714621385958,0.00747556014977933));
#1196=CARTESIAN_POINT('',(0.00387690420112892,0.000984691817620381,0.00770250410878178));
#1197=CARTESIAN_POINT('',(0.00387640157541677,0.000986668630557374,0.00792944806778423));
#1198=CARTESIAN_POINT('',(0.00387589743795187,0.000988645057883831,0.00815639202678668));
#1199=CARTESIAN_POINT('',(0.00387740531450019,0.000982714621385953,0.00747556014977933));
#1200=CARTESIAN_POINT('',(0.00385384949414775,0.00107137485338099,0.00718609550291049));
#1201=CARTESIAN_POINT('',(0.00387054886368068,0.00101130544198498,0.00724681454439414));
#1202=CARTESIAN_POINT('',(0.00387769735111905,0.000981562359769643,0.00734330276001708));
#1203=CARTESIAN_POINT('',(0.00387740531450018,0.000982714621385958,0.00747556014977933));
#1204=CARTESIAN_POINT('',(0.00385384949414775,0.00107137485338099,0.00718609550291049));
#1205=CARTESIAN_POINT('',(0.00381731877330238,0.00119502191736939,0.00711384003924398));
#1206=CARTESIAN_POINT('',(0.00383295118771707,0.00114508650769205,0.00712925644481588));
#1207=CARTESIAN_POINT('',(0.0038448412897117,0.00110377832449057,0.00715334159937138));
#1208=CARTESIAN_POINT('',(0.00385384949414775,0.00107137485338099,0.00718609550291049));
#1209=CARTESIAN_POINT('',(0.00381731877330238,0.00119502191736938,0.00711384003924398));
#1210=CARTESIAN_POINT('',(0.00381731877330445,0.00119502191736278,0.00711384003847444));
#1211=CARTESIAN_POINT('',(0.00378802022650266,0.0012886117428815,0.00711295862407989));
#1212=CARTESIAN_POINT('',(0.00375527830771271,0.00138112356141937,0.00711207720968535));
#1213=CARTESIAN_POINT('',(0.00371918150909254,0.00147230733966252,0.0071111957952908));
#1214=CARTESIAN_POINT('',(0.00371918150906828,0.00147230733972382,0.0071111958026256));
#1215=CARTESIAN_POINT('',(0.00369786798936951,0.00152504830520095,0.0071324084938872));
#1216=CARTESIAN_POINT('',(0.00370479437501066,0.0015082535193197,0.00712397366723659));
#1217=CARTESIAN_POINT('',(0.00371190960005002,0.00149067683964182,0.00711690277014939));
#1218=CARTESIAN_POINT('',(0.00371918150906827,0.00147230733972383,0.0071111958026256));
#1219=CARTESIAN_POINT('',(0.00369786798936952,0.00152504830520095,0.0071324084938872));
#1220=CARTESIAN_POINT('',(0.00364416100165213,0.00164926971537033,0.00724892687675667));
#1221=CARTESIAN_POINT('',(0.00365762898387897,0.00161951139558516,0.00719797417025661));
#1222=CARTESIAN_POINT('',(0.00367592135284144,0.00157826351446004,0.00715913470930012));
#1223=CARTESIAN_POINT('',(0.00369786798936951,0.00152504830520095,0.0071324084938872));
#1224=CARTESIAN_POINT('',(0.00364416100165213,0.00164926971537033,0.00724892687675666));
#1225=CARTESIAN_POINT('',(0.00364064534388267,0.00165701583579199,0.00724885042173877));
#1226=CARTESIAN_POINT('',(0.00364181997491227,0.0016544350427203,0.00724887590674474));
#1227=CARTESIAN_POINT('',(0.00364299186171876,0.00165185300063347,0.0072489013917507));
#1228=CARTESIAN_POINT('',(0.00364416100165213,0.00164926971537033,0.00724892687675667));
#1229=CARTESIAN_POINT('',(8.67361737988404E-19,2.4492935982947E-19,0.0150147669686212));
#1230=CARTESIAN_POINT('',(0.00376833727777616,0.00134150443939726,0.00709331035546413));
#1231=CARTESIAN_POINT('',(0.00378789016813198,0.00128657962256311,0.00709383435243938));
#1232=CARTESIAN_POINT('',(0.00380397188703001,0.00123765654924695,0.007100677580366));
#1233=CARTESIAN_POINT('',(0.00381731877330238,0.00119502191736939,0.00711384003924398));
#1234=CARTESIAN_POINT('',(0.00376833727777616,0.00134150443939726,0.00709331035546412));
#1235=CARTESIAN_POINT('',(0.00371918150906827,0.00147230733972383,0.0071111958026256));
#1236=CARTESIAN_POINT('',(0.00373495104653557,0.00143247206174039,0.00709881992746473));
#1237=CARTESIAN_POINT('',(0.00375146185236979,0.00138890815478544,0.00709285811174424));
#1238=CARTESIAN_POINT('',(0.00376833727777616,0.00134150443939726,0.00709331035546413));
#1239=CARTESIAN_POINT('',(0.,0.,0.));
#1240=CARTESIAN_POINT('',(8.67361737988404E-19,2.4492935982947E-19,0.0150147669686212));
#1241=CARTESIAN_POINT('',(0.00384233724554852,-0.00111195525605602,0.00783095294893506));
#1242=CARTESIAN_POINT('',(0.00384183272462397,-0.00111369861715711,0.00762902244726131));
#1243=CARTESIAN_POINT('',(0.00384827832229489,-0.00109221415303597,0.00748176633810451));
#1244=CARTESIAN_POINT('',(0.00386049542927451,-0.00104717478987543,0.00738918462146466));
#1245=CARTESIAN_POINT('',(0.00384233724554852,-0.00111195525605602,0.00783095294893506));
#1246=CARTESIAN_POINT('',(0.00386049542927451,-0.00104717478987544,0.00738918462146465));
#1247=CARTESIAN_POINT('',(0.00386256124605258,-0.00103952903783046,0.00827037732974659));
#1248=CARTESIAN_POINT('',(0.00385000449422288,-0.0010861859576746,0.00817935824421266));
#1249=CARTESIAN_POINT('',(0.00384284176647307,-0.00111021189495493,0.00803288345060881));
#1250=CARTESIAN_POINT('',(0.00384233724554852,-0.00111195525605602,0.00783095294893506));
#1251=CARTESIAN_POINT('',(0.00386256124605259,-0.00103952903783045,0.00827037732974658));
#1252=CARTESIAN_POINT('',(0.00391551437796702,-0.000817769622775,0.00840550792343452));
#1253=CARTESIAN_POINT('',(0.00389431379956872,-0.000919278858662333,0.00840643994650983));
#1254=CARTESIAN_POINT('',(0.00387511799788229,-0.000992872117986306,0.00836139641528052));
#1255=CARTESIAN_POINT('',(0.00386256124605258,-0.00103952903783046,0.00827037732974659));
#1256=CARTESIAN_POINT('',(0.00391551437796702,-0.000817769622775,0.00840550792343452));
#1257=CARTESIAN_POINT('',(0.00395560350063921,-0.00059430711398303,0.00826431223965792));
#1258=CARTESIAN_POINT('',(0.00394873087549434,-0.000640050096764141,0.0083574979299307));
#1259=CARTESIAN_POINT('',(0.00393700480802311,-0.000714872565303274,0.00840456315785623));
#1260=CARTESIAN_POINT('',(0.00391551437796702,-0.000817769622775,0.00840550792343452));
#1261=CARTESIAN_POINT('',(0.00395560350063921,-0.00059430711398303,0.00826431223965792));
#1262=CARTESIAN_POINT('',(0.00396496288716069,-0.000528270104622967,0.00782558744500055));
#1263=CARTESIAN_POINT('',(0.00396519945071961,-0.000526494562673194,0.00802488495116602));
#1264=CARTESIAN_POINT('',(0.00396247612578408,-0.000548564131201919,0.00817112654938514));
#1265=CARTESIAN_POINT('',(0.00395560350063921,-0.00059430711398303,0.00826431223965792));
#1266=CARTESIAN_POINT('',(0.00396496288716069,-0.00052827010462296,0.00782558744500054));
#1267=CARTESIAN_POINT('',(0.00395442416934412,-0.000602104217645959,0.00738691712105139));
#1268=CARTESIAN_POINT('',(0.00396163877728431,-0.000554721025210365,0.00747986395940267));
#1269=CARTESIAN_POINT('',(0.00396472608319165,-0.000530047450985282,0.00762608740071906));
#1270=CARTESIAN_POINT('',(0.00396496288716069,-0.000528270104622967,0.00782558744500055));
#1271=CARTESIAN_POINT('',(0.00395442416934413,-0.000602104217645957,0.00738691712105139));
#1272=CARTESIAN_POINT('',(0.0039133759484025,-0.00082794244151684,0.00724891401189192));
#1273=CARTESIAN_POINT('',(0.00393513371322324,-0.000725101580521109,0.00724796924631363));
#1274=CARTESIAN_POINT('',(0.00394720956140394,-0.000649487410081551,0.00729397028270012));
#1275=CARTESIAN_POINT('',(0.00395442416934412,-0.000602104217645959,0.00738691712105139));
#1276=CARTESIAN_POINT('',(0.0039133759484025,-0.000827942441516833,0.00724891401189191));
#1277=CARTESIAN_POINT('',(0.00386049542927451,-0.00104717478987543,0.00738918462146466));
#1278=CARTESIAN_POINT('',(0.00387271253625412,-0.00100213542671489,0.00729660290482481));
#1279=CARTESIAN_POINT('',(0.00389191164091075,-0.00092939623887677,0.00724984603496723));
#1280=CARTESIAN_POINT('',(0.0039133759484025,-0.00082794244151684,0.00724891401189192));
#1281=CARTESIAN_POINT('',(0.00388319402439345,-0.000959585415122065,0.00713345655896827));
#1282=CARTESIAN_POINT('',(0.00386281392673156,-0.00104205840002788,0.00716079100171515));
#1283=CARTESIAN_POINT('',(0.00384387914182025,-0.0011078285134943,0.00721563984715181));
#1284=CARTESIAN_POINT('',(0.00382886843633971,-0.00115748282803741,0.00729800309527826));
#1285=CARTESIAN_POINT('',(0.00388319402439345,-0.000959585415122063,0.00713345655896826));
#1286=CARTESIAN_POINT('',(0.00382886843633972,-0.0011574828280374,0.00729800309527826));
#1287=CARTESIAN_POINT('',(0.00388319402439725,-0.000959585415106709,0.00713345656072842));
#1288=CARTESIAN_POINT('',(0.00390514198423168,-0.000870767697439245,0.00713263427936441));
#1289=CARTESIAN_POINT('',(0.00392404153793381,-0.000781196715611769,0.00713181199800039));
#1290=CARTESIAN_POINT('',(0.00393984822457897,-0.000691083184053781,0.00713098971663637));
#1291=CARTESIAN_POINT('',(0.00393984822457898,-0.00069108318405379,0.00713098971663637));
#1292=CARTESIAN_POINT('',(0.00397045163244403,-0.000485297676094322,0.00728756786053761));
#1293=CARTESIAN_POINT('',(0.00396420014571344,-0.000536444069158561,0.00720850696851512));
#1294=CARTESIAN_POINT('',(0.0039549117156463,-0.000605206592196777,0.00715631425331317));
#1295=CARTESIAN_POINT('',(0.00393984822457632,-0.000691083184068889,0.00713098971493176));
#1296=CARTESIAN_POINT('',(0.00397045163244403,-0.000485297676094324,0.00728756786053761));
#1297=CARTESIAN_POINT('',(0.00398306624372996,-0.000367672813869747,0.00782413479966052));
#1298=CARTESIAN_POINT('',(0.00398286796479303,-0.000369820805537147,0.00758412713217466));
#1299=CARTESIAN_POINT('',(0.00397975866949673,-0.000409152369245765,0.00740527148580036));
#1300=CARTESIAN_POINT('',(0.00397045163244403,-0.000485297676094322,0.00728756786053761));
#1301=CARTESIAN_POINT('',(0.00398306624372996,-0.000367672813869747,0.00782413479966051));
#1302=CARTESIAN_POINT('',(0.00397115149668509,-0.00047953705839674,0.00835578801614111));
#1303=CARTESIAN_POINT('',(0.00398039231090894,-0.000403011850192077,0.00823285360510032));
#1304=CARTESIAN_POINT('',(0.003983257495059,-0.000365600953552594,0.00805563586627346));
#1305=CARTESIAN_POINT('',(0.00398306624372996,-0.000367672813869747,0.00782413479966052));
#1306=CARTESIAN_POINT('',(0.00397115149668508,-0.000479537058396749,0.00835578801614111));
#1307=CARTESIAN_POINT('',(0.0039348951553742,-0.000718748993886349,0.00853129887168875));
#1308=CARTESIAN_POINT('',(0.00395327070328202,-0.000618149403410627,0.00850847909964786));
#1309=CARTESIAN_POINT('',(0.00396407155170607,-0.000538167634715241,0.00844997548113198));
#1310=CARTESIAN_POINT('',(0.00397115149668509,-0.00047953705839674,0.00835578801614111));
#1311=CARTESIAN_POINT('',(0.00393489515537421,-0.000718748993886343,0.00853129887168875));
#1312=CARTESIAN_POINT('',(0.00389323328865009,-0.000918005751695924,0.00853312865792546));
#1313=CARTESIAN_POINT('',(0.00390880783811239,-0.00085195458119907,0.00853251872789133));
#1314=CARTESIAN_POINT('',(0.0039227011231017,-0.000785506984393932,0.00853190879785719));
#1315=CARTESIAN_POINT('',(0.00393489515536796,-0.000718748993920524,0.00853129886782306));
#1316=CARTESIAN_POINT('',(0.00389323328865009,-0.000918005751695923,0.00853312865792546));
#1317=CARTESIAN_POINT('',(0.00383055226751325,-0.00115189814039659,0.00836956512979612));
#1318=CARTESIAN_POINT('',(0.00384729816286643,-0.00109621090107646,0.00845823363237455));
#1319=CARTESIAN_POINT('',(0.00386952474770806,-0.00101855292218159,0.00851275480904449));
#1320=CARTESIAN_POINT('',(0.00389323328865397,-0.000918005751679475,0.00853312865980592));
#1321=CARTESIAN_POINT('',(0.00383055226751325,-0.00115189814039658,0.00836956512979612));
#1322=CARTESIAN_POINT('',(0.00379495588529011,-0.00126424278866916,0.00783238648052062));
#1323=CARTESIAN_POINT('',(0.00379564227006454,-0.00126218242497744,0.00807401445293465));
#1324=CARTESIAN_POINT('',(0.00380855180322984,-0.00122505906096041,0.00825307400269316));
#1325=CARTESIAN_POINT('',(0.00383055226751325,-0.00115189814039659,0.00836956512979612));
#1326=CARTESIAN_POINT('',(0.00379495588529011,-0.00126424278866915,0.00783238648052061));
#1327=CARTESIAN_POINT('',(0.00382886843633971,-0.00115748282803741,0.00729800309527826));
#1328=CARTESIAN_POINT('',(0.00380664869523105,-0.00123098410454347,0.00741992208520259));
#1329=CARTESIAN_POINT('',(0.00379429021288104,-0.00126624097877086,0.00759804988028337));
#1330=CARTESIAN_POINT('',(0.00379495588529011,-0.00126424278866916,0.00783238648052062));
#1331=CARTESIAN_POINT('',(8.67361737988404E-19,2.4492935982947E-19,0.0150147669686212));
#1332=CARTESIAN_POINT('',(0.00391312312998644,-0.000829136520462774,0.00711311220509929));
#1333=CARTESIAN_POINT('',(0.00390308440667066,-0.000876514436442898,0.00711354747874119));
#1334=CARTESIAN_POINT('',(0.00389298176224094,-0.000919976971180834,0.00712032893003085));
#1335=CARTESIAN_POINT('',(0.00388319402439345,-0.000959585415122065,0.00713345655896827));
#1336=CARTESIAN_POINT('',(0.00391312312998644,-0.000829136520462776,0.00711311220509928));
#1337=CARTESIAN_POINT('',(0.00393984822457632,-0.000691083184068889,0.00713098971493176));
#1338=CARTESIAN_POINT('',(0.00393248561517244,-0.000733057239084007,0.00711861179512753));
#1339=CARTESIAN_POINT('',(0.00392372242930813,-0.000779112957016059,0.00711265262518338));
#1340=CARTESIAN_POINT('',(0.00391312312998644,-0.000829136520462774,0.00711311220509929));
#1341=CARTESIAN_POINT('',(8.67361737988404E-19,2.4492935982947E-19,0.0150147669686212));
#1342=CARTESIAN_POINT('',(0.00391576540006297,-0.000816566795595857,0.00854222115174925));
#1343=CARTESIAN_POINT('',(0.00392295872494162,-0.000782071916765211,0.00854190445187681));
#1344=CARTESIAN_POINT('',(0.00392928675637552,-0.000749452984065188,0.00853826369185665));
#1345=CARTESIAN_POINT('',(0.0039348951553742,-0.000718748993886349,0.00853129887168875));
#1346=CARTESIAN_POINT('',(0.00391576540006297,-0.000816566795595847,0.00854222115174925));
#1347=CARTESIAN_POINT('',(0.00389323328865397,-0.000918005751679475,0.00853312865980592));
#1348=CARTESIAN_POINT('',(0.00390067261393387,-0.000886455809021881,0.00853952161765872));
#1349=CARTESIAN_POINT('',(0.00390824053512054,-0.000852651542049705,0.00854255244830649));
#1350=CARTESIAN_POINT('',(0.00391576540006297,-0.000816566795595857,0.00854222115174925));
#1351=CARTESIAN_POINT('',(0.,0.,0.));
#1352=CARTESIAN_POINT('',(0.,2.4492935982947E-19,0.01));
#1353=CARTESIAN_POINT('',(0.,2.4492935982947E-19,0.0099));
#1354=CARTESIAN_POINT('',(0.004,2.4492935982947E-19,0.0099));
#1355=CARTESIAN_POINT('',(0.,2.4492935982947E-19,0.0002));
#1356=CARTESIAN_POINT('',(0.004,2.4492935982947E-19,0.0002));
#1357=CARTESIAN_POINT('',(0.,0.,0.));
#1358=CARTESIAN_POINT('',(0.,2.4492935982947E-19,0.));
#1359=CARTESIAN_POINT('',(0.0038,2.4492935982947E-19,0.));
#1360=CARTESIAN_POINT('',(0.,2.14313189850787E-19,0.));
#1361=CARTESIAN_POINT('',(0.00375,2.14313189850787E-19,0.));
#1362=CARTESIAN_POINT('',(0.,2.14313189850787E-19,-0.00055));
#1363=CARTESIAN_POINT('',(0.,2.14313189850787E-19,-0.0003));
#1364=CARTESIAN_POINT('',(-0.0035,2.14313189850787E-19,-0.0003));
#1365=CARTESIAN_POINT('',(0.,2.14313189850787E-19,-0.00025));
#1366=CARTESIAN_POINT('',(0.0035,2.14313189850787E-19,-0.00025));
#1367=CARTESIAN_POINT('',(0.,-2.4492935982947E-19,-0.0011));
#1368=CARTESIAN_POINT('',(0.,-2.4492935982947E-19,-0.0009));
#1369=CARTESIAN_POINT('',(-0.004,-2.4492935982947E-19,-0.0009));
#1370=CARTESIAN_POINT('',(0.,-2.4492935982947E-19,-0.00075));
#1371=CARTESIAN_POINT('',(-0.004,-2.4492935982947E-19,-0.00075));
#1372=CARTESIAN_POINT('',(0.,0.,-0.0011));
#1373=CARTESIAN_POINT('',(-6.12323399573677E-21,-0.0012,-0.0011));
#1374=CARTESIAN_POINT('',(-0.0001,-0.0012,-0.0011));
#1375=CARTESIAN_POINT('',(-1.72254642419884E-20,0.0012,-0.0011));
#1376=CARTESIAN_POINT('',(-0.0001,0.0012,-0.0011));
#1377=CARTESIAN_POINT('',(0.,-2.4492935982947E-19,-0.0011));
#1378=CARTESIAN_POINT('',(-0.0038,-2.4492935982947E-19,-0.0011));
#1379=CARTESIAN_POINT('',(0.,0.,-0.00055));
#1380=CARTESIAN_POINT('',(0.,-2.4492935982947E-19,-0.00055));
#1381=CARTESIAN_POINT('',(-0.0038,-2.4492935982947E-19,-0.00055));
#1382=CARTESIAN_POINT('',(0.,2.14313189850787E-19,-0.00055));
#1383=CARTESIAN_POINT('',(-0.00375,2.14313189850787E-19,-0.00055));
#1384=CARTESIAN_POINT('',(0.,1.68388934882761E-19,0.0101));
#1385=CARTESIAN_POINT('',(0.,1.68388934882761E-19,0.0101));
#1386=CARTESIAN_POINT('',(0.00275,1.68388934882761E-19,0.0101));
#1387=CARTESIAN_POINT('',(0.,1.68388934882761E-19,0.01));
#1388=CARTESIAN_POINT('',(0.00275,1.68388934882761E-19,0.01));
#1389=CARTESIAN_POINT('',(0.,0.,0.0101));
#1390=CARTESIAN_POINT('',(0.,2.4492935982947E-19,0.0101));
#1391=CARTESIAN_POINT('',(0.0038,2.4492935982947E-19,0.0101));
#1392=CARTESIAN_POINT('',(0.,0.,0.01));
#1393=CARTESIAN_POINT('',(0.,2.14313189850787E-19,-0.0003));
#1394=CARTESIAN_POINT('',(0.,2.14313189850787E-19,-0.00025));
#1395=CARTESIAN_POINT('',(0.,-2.4492935982947E-19,-0.0009));
#1396=CARTESIAN_POINT('',(0.,2.4492935982947E-19,0.0099));
#1397=CARTESIAN_POINT('',(0.,2.4492935982947E-19,0.0002));
#1398=CARTESIAN_POINT('',(0.,-2.4492935982947E-19,-0.00075));
#1399=CARTESIAN_POINT('',(-1.72254642419884E-20,0.0012,-0.0131));
#1400=CARTESIAN_POINT('',(-1.72254642419884E-20,0.0012,-0.0131));
#1401=CARTESIAN_POINT('',(-0.0001,0.0012,-0.0131));
#1402=CARTESIAN_POINT('',(0.,0.,-0.0131));
#1403=CARTESIAN_POINT('',(-6.12323399573677E-21,-0.0012,-0.0111));
#1404=CARTESIAN_POINT('',(-6.12323399573677E-21,-0.0012,-0.0111));
#1405=CARTESIAN_POINT('',(-0.0001,-0.0012,-0.0111));
#1406=CARTESIAN_POINT('',(0.,0.,-0.0111));
#1407=MECHANICAL_DESIGN_GEOMETRIC_PRESENTATION_REPRESENTATION('',(#650),
#1413);
#1408=MECHANICAL_DESIGN_GEOMETRIC_PRESENTATION_REPRESENTATION('',(#651),
#1414);
#1409=MECHANICAL_DESIGN_GEOMETRIC_PRESENTATION_REPRESENTATION('',(#652),
#1415);
#1410=MECHANICAL_DESIGN_GEOMETRIC_PRESENTATION_REPRESENTATION('',(#653),
#1416);
#1411=MECHANICAL_DESIGN_GEOMETRIC_PRESENTATION_REPRESENTATION('',(#654),
#1417);
#1412=MECHANICAL_DESIGN_GEOMETRIC_PRESENTATION_REPRESENTATION('',(#655),
#1418);
#1413=(
GEOMETRIC_REPRESENTATION_CONTEXT(3)
GLOBAL_UNCERTAINTY_ASSIGNED_CONTEXT((#1419))
GLOBAL_UNIT_ASSIGNED_CONTEXT((#1437,#1431,#1425))
REPRESENTATION_CONTEXT('Surface 3','TOP_LEVEL_ASSEMBLY_PART')
);
#1414=(
GEOMETRIC_REPRESENTATION_CONTEXT(3)
GLOBAL_UNCERTAINTY_ASSIGNED_CONTEXT((#1420))
GLOBAL_UNIT_ASSIGNED_CONTEXT((#1438,#1432,#1426))
REPRESENTATION_CONTEXT('Surface 1','TOP_LEVEL_ASSEMBLY_PART')
);
#1415=(
GEOMETRIC_REPRESENTATION_CONTEXT(3)
GLOBAL_UNCERTAINTY_ASSIGNED_CONTEXT((#1421))
GLOBAL_UNIT_ASSIGNED_CONTEXT((#1439,#1433,#1427))
REPRESENTATION_CONTEXT('Surface 5','TOP_LEVEL_ASSEMBLY_PART')
);
#1416=(
GEOMETRIC_REPRESENTATION_CONTEXT(3)
GLOBAL_UNCERTAINTY_ASSIGNED_CONTEXT((#1422))
GLOBAL_UNIT_ASSIGNED_CONTEXT((#1440,#1434,#1428))
REPRESENTATION_CONTEXT('Surface 4','TOP_LEVEL_ASSEMBLY_PART')
);
#1417=(
GEOMETRIC_REPRESENTATION_CONTEXT(3)
GLOBAL_UNCERTAINTY_ASSIGNED_CONTEXT((#1423))
GLOBAL_UNIT_ASSIGNED_CONTEXT((#1441,#1435,#1429))
REPRESENTATION_CONTEXT('Surface 2','TOP_LEVEL_ASSEMBLY_PART')
);
#1418=(
GEOMETRIC_REPRESENTATION_CONTEXT(3)
GLOBAL_UNCERTAINTY_ASSIGNED_CONTEXT((#1424))
GLOBAL_UNIT_ASSIGNED_CONTEXT((#1442,#1436,#1430))
REPRESENTATION_CONTEXT('Part 1','TOP_LEVEL_ASSEMBLY_PART')
);
#1419=UNCERTAINTY_MEASURE_WITH_UNIT(LENGTH_MEASURE(2.E-5),#1437,
'DISTANCE_ACCURACY_VALUE','Maximum Tolerance applied to model');
#1420=UNCERTAINTY_MEASURE_WITH_UNIT(LENGTH_MEASURE(2.E-5),#1438,
'DISTANCE_ACCURACY_VALUE','Maximum Tolerance applied to model');
#1421=UNCERTAINTY_MEASURE_WITH_UNIT(LENGTH_MEASURE(2.E-5),#1439,
'DISTANCE_ACCURACY_VALUE','Maximum Tolerance applied to model');
#1422=UNCERTAINTY_MEASURE_WITH_UNIT(LENGTH_MEASURE(2.E-5),#1440,
'DISTANCE_ACCURACY_VALUE','Maximum Tolerance applied to model');
#1423=UNCERTAINTY_MEASURE_WITH_UNIT(LENGTH_MEASURE(2.E-5),#1441,
'DISTANCE_ACCURACY_VALUE','Maximum Tolerance applied to model');
#1424=UNCERTAINTY_MEASURE_WITH_UNIT(LENGTH_MEASURE(1.E-8),#1442,
'DISTANCE_ACCURACY_VALUE','Maximum Tolerance applied to model');
#1425=(
NAMED_UNIT(*)
SI_UNIT($,.STERADIAN.)
SOLID_ANGLE_UNIT()
);
#1426=(
NAMED_UNIT(*)
SI_UNIT($,.STERADIAN.)
SOLID_ANGLE_UNIT()
);
#1427=(
NAMED_UNIT(*)
SI_UNIT($,.STERADIAN.)
SOLID_ANGLE_UNIT()
);
#1428=(
NAMED_UNIT(*)
SI_UNIT($,.STERADIAN.)
SOLID_ANGLE_UNIT()
);
#1429=(
NAMED_UNIT(*)
SI_UNIT($,.STERADIAN.)
SOLID_ANGLE_UNIT()
);
#1430=(
NAMED_UNIT(*)
SI_UNIT($,.STERADIAN.)
SOLID_ANGLE_UNIT()
);
#1431=(
NAMED_UNIT(*)
PLANE_ANGLE_UNIT()
SI_UNIT($,.RADIAN.)
);
#1432=(
NAMED_UNIT(*)
PLANE_ANGLE_UNIT()
SI_UNIT($,.RADIAN.)
);
#1433=(
NAMED_UNIT(*)
PLANE_ANGLE_UNIT()
SI_UNIT($,.RADIAN.)
);
#1434=(
NAMED_UNIT(*)
PLANE_ANGLE_UNIT()
SI_UNIT($,.RADIAN.)
);
#1435=(
NAMED_UNIT(*)
PLANE_ANGLE_UNIT()
SI_UNIT($,.RADIAN.)
);
#1436=(
NAMED_UNIT(*)
PLANE_ANGLE_UNIT()
SI_UNIT($,.RADIAN.)
);
#1437=(
LENGTH_UNIT()
NAMED_UNIT(*)
SI_UNIT($,.METRE.)
);
#1438=(
LENGTH_UNIT()
NAMED_UNIT(*)
SI_UNIT($,.METRE.)
);
#1439=(
LENGTH_UNIT()
NAMED_UNIT(*)
SI_UNIT($,.METRE.)
);
#1440=(
LENGTH_UNIT()
NAMED_UNIT(*)
SI_UNIT($,.METRE.)
);
#1441=(
LENGTH_UNIT()
NAMED_UNIT(*)
SI_UNIT($,.METRE.)
);
#1442=(
LENGTH_UNIT()
NAMED_UNIT(*)
SI_UNIT($,.METRE.)
);
#1443=PRODUCT_DEFINITION_SHAPE('','',#1449);
#1444=PRODUCT_DEFINITION_SHAPE('','',#1450);
#1445=PRODUCT_DEFINITION_SHAPE('','',#1451);
#1446=PRODUCT_DEFINITION_SHAPE('','',#1452);
#1447=PRODUCT_DEFINITION_SHAPE('','',#1453);
#1448=PRODUCT_DEFINITION_SHAPE('','',#1454);
#1449=PRODUCT_DEFINITION('','',#1461,#1455);
#1450=PRODUCT_DEFINITION('','',#1462,#1456);
#1451=PRODUCT_DEFINITION('','',#1463,#1457);
#1452=PRODUCT_DEFINITION('','',#1464,#1458);
#1453=PRODUCT_DEFINITION('','',#1465,#1459);
#1454=PRODUCT_DEFINITION('','',#1466,#1460);
#1455=PRODUCT_DEFINITION_CONTEXT('',#1497,'design');
#1456=PRODUCT_DEFINITION_CONTEXT('',#1498,'design');
#1457=PRODUCT_DEFINITION_CONTEXT('',#1499,'design');
#1458=PRODUCT_DEFINITION_CONTEXT('',#1500,'design');
#1459=PRODUCT_DEFINITION_CONTEXT('',#1501,'design');
#1460=PRODUCT_DEFINITION_CONTEXT('',#1502,'design');
#1461=PRODUCT_DEFINITION_FORMATION_WITH_SPECIFIED_SOURCE('','',#1473,
 .NOT_KNOWN.);
#1462=PRODUCT_DEFINITION_FORMATION_WITH_SPECIFIED_SOURCE('','',#1474,
 .NOT_KNOWN.);
#1463=PRODUCT_DEFINITION_FORMATION_WITH_SPECIFIED_SOURCE('','',#1475,
 .NOT_KNOWN.);
#1464=PRODUCT_DEFINITION_FORMATION_WITH_SPECIFIED_SOURCE('','',#1476,
 .NOT_KNOWN.);
#1465=PRODUCT_DEFINITION_FORMATION_WITH_SPECIFIED_SOURCE('','',#1477,
 .NOT_KNOWN.);
#1466=PRODUCT_DEFINITION_FORMATION_WITH_SPECIFIED_SOURCE('','',#1478,
 .NOT_KNOWN.);
#1467=PRODUCT_RELATED_PRODUCT_CATEGORY('','',(#1473));
#1468=PRODUCT_RELATED_PRODUCT_CATEGORY('','',(#1474));
#1469=PRODUCT_RELATED_PRODUCT_CATEGORY('','',(#1475));
#1470=PRODUCT_RELATED_PRODUCT_CATEGORY('','',(#1476));
#1471=PRODUCT_RELATED_PRODUCT_CATEGORY('','',(#1477));
#1472=PRODUCT_RELATED_PRODUCT_CATEGORY('','',(#1478));
#1473=PRODUCT('Surface 3','Surface 3','Surface 3',(#1485));
#1474=PRODUCT('Surface 1','Surface 1','Surface 1',(#1486));
#1475=PRODUCT('Surface 5','Surface 5','Surface 5',(#1487));
#1476=PRODUCT('Surface 4','Surface 4','Surface 4',(#1488));
#1477=PRODUCT('Surface 2','Surface 2','Surface 2',(#1489));
#1478=PRODUCT('Part 1','Part 1','Part 1',(#1490));
#1479=PRODUCT_CATEGORY('','');
#1480=PRODUCT_CATEGORY('','');
#1481=PRODUCT_CATEGORY('','');
#1482=PRODUCT_CATEGORY('','');
#1483=PRODUCT_CATEGORY('','');
#1484=PRODUCT_CATEGORY('','');
#1485=PRODUCT_CONTEXT('',#1497,'mechanical');
#1486=PRODUCT_CONTEXT('',#1498,'mechanical');
#1487=PRODUCT_CONTEXT('',#1499,'mechanical');
#1488=PRODUCT_CONTEXT('',#1500,'mechanical');
#1489=PRODUCT_CONTEXT('',#1501,'mechanical');
#1490=PRODUCT_CONTEXT('',#1502,'mechanical');
#1491=APPLICATION_PROTOCOL_DEFINITION('international standard',
'ap242_managed_model_based_3d_engineering',2020,#1497);
#1492=APPLICATION_PROTOCOL_DEFINITION('international standard',
'ap242_managed_model_based_3d_engineering',2020,#1498);
#1493=APPLICATION_PROTOCOL_DEFINITION('international standard',
'ap242_managed_model_based_3d_engineering',2020,#1499);
#1494=APPLICATION_PROTOCOL_DEFINITION('international standard',
'ap242_managed_model_based_3d_engineering',2020,#1500);
#1495=APPLICATION_PROTOCOL_DEFINITION('international standard',
'ap242_managed_model_based_3d_engineering',2020,#1501);
#1496=APPLICATION_PROTOCOL_DEFINITION('international standard',
'ap242_managed_model_based_3d_engineering',2020,#1502);
#1497=APPLICATION_CONTEXT('managed model based 3d engineering');
#1498=APPLICATION_CONTEXT('managed model based 3d engineering');
#1499=APPLICATION_CONTEXT('managed model based 3d engineering');
#1500=APPLICATION_CONTEXT('managed model based 3d engineering');
#1501=APPLICATION_CONTEXT('managed model based 3d engineering');
#1502=APPLICATION_CONTEXT('managed model based 3d engineering');
ENDSEC;
END-ISO-10303-21;
