ISO-10303-21;
HEADER;
/* Generated by software containing ST-Developer
 * from STEP Tools, Inc. (www.steptools.com) 
 */
/* OPTION: using custom renumber hook */

FILE_DESCRIPTION(
/* description */ ('STEP AP242 Edition 2',
'CAx-IF Rec.Pracs.---Representation and Presentation of Product Manufa
cturing Information (PMI)---4.0---2014-10-13',
'CAx-IF Rec.Pracs.---3D Tessellated Geometry---0.4---2014-09-14','2;1',
'CAx-IF Rec.Pracs.---User Defined Attributes---1.5---2016-08-15'),
/* implementation_level */ '2;1');

FILE_NAME(
/* name */ 'main pcb (1) - Part 2',
/* time_stamp */ '2026-08-23T14:49:44Z',
/* author */ (''),
/* organization */ (''),
/* preprocessor_version */ 'ST-DEVELOPER v20',
/* originating_system */ 'ONSHAPE BY PTC INC, 1.219',
/* authorisation */ '  ');

FILE_SCHEMA (('AP242_MANAGED_MODEL_BASED_3D_ENGINEERING_MIM_LF { 1 0 10303 442 3 1 4 }'));
ENDSEC;

DATA;
#10=SHAPE_REPRESENTATION_RELATIONSHIP('','',#1383,#11);
#11=ADVANCED_BREP_SHAPE_REPRESENTATION('',(#1381),#2187);
#12=CIRCLE('',#1400,0.00123790688581815);
#13=CIRCLE('',#1401,0.00123790688581815);
#14=CIRCLE('',#1403,0.00127828759759618);
#15=CIRCLE('',#1404,0.00127828759759618);
#16=CIRCLE('',#1406,0.00127067984707402);
#17=CIRCLE('',#1407,0.00127067984707402);
#18=CIRCLE('',#1409,0.00125016919325901);
#19=CIRCLE('',#1410,0.00125016919325901);
#20=CIRCLE('',#1425,0.00125831372757562);
#21=CIRCLE('',#1426,0.00132208030186545);
#22=CIRCLE('',#1432,0.00125831372757562);
#23=CIRCLE('',#1433,0.00132208030186545);
#24=CIRCLE('',#1435,0.00123790688581815);
#25=CIRCLE('',#1436,0.00123790688581815);
#26=CIRCLE('',#1438,0.00127828759759618);
#27=CIRCLE('',#1439,0.00127828759759618);
#28=CIRCLE('',#1441,0.00127067984707402);
#29=CIRCLE('',#1442,0.00127067984707402);
#30=CIRCLE('',#1444,0.00125016919325901);
#31=CIRCLE('',#1445,0.00125016919325901);
#32=CIRCLE('',#1454,0.00125831372757562);
#33=CIRCLE('',#1456,0.00132208030186545);
#34=CYLINDRICAL_SURFACE('',#1399,0.00123790688581815);
#35=CYLINDRICAL_SURFACE('',#1402,0.00127828759759618);
#36=CYLINDRICAL_SURFACE('',#1405,0.00127067984707402);
#37=CYLINDRICAL_SURFACE('',#1408,0.00125016919325901);
#38=CYLINDRICAL_SURFACE('',#1434,0.00123790688581815);
#39=CYLINDRICAL_SURFACE('',#1437,0.00127828759759618);
#40=CYLINDRICAL_SURFACE('',#1440,0.00127067984707402);
#41=CYLINDRICAL_SURFACE('',#1443,0.00125016919325901);
#42=CYLINDRICAL_SURFACE('',#1468,0.00132208030186545);
#43=CYLINDRICAL_SURFACE('',#1469,0.00125831372757562);
#44=ORIENTED_EDGE('',*,*,#416,.F.);
#45=ORIENTED_EDGE('',*,*,#417,.T.);
#46=ORIENTED_EDGE('',*,*,#418,.F.);
#47=ORIENTED_EDGE('',*,*,#419,.F.);
#48=ORIENTED_EDGE('',*,*,#420,.T.);
#49=ORIENTED_EDGE('',*,*,#421,.T.);
#50=ORIENTED_EDGE('',*,*,#422,.F.);
#51=ORIENTED_EDGE('',*,*,#423,.T.);
#52=ORIENTED_EDGE('',*,*,#424,.T.);
#53=ORIENTED_EDGE('',*,*,#425,.T.);
#54=ORIENTED_EDGE('',*,*,#426,.F.);
#55=ORIENTED_EDGE('',*,*,#427,.F.);
#56=ORIENTED_EDGE('',*,*,#428,.F.);
#57=ORIENTED_EDGE('',*,*,#429,.T.);
#58=ORIENTED_EDGE('',*,*,#430,.F.);
#59=ORIENTED_EDGE('',*,*,#431,.T.);
#60=ORIENTED_EDGE('',*,*,#432,.T.);
#61=ORIENTED_EDGE('',*,*,#433,.F.);
#62=ORIENTED_EDGE('',*,*,#434,.F.);
#63=ORIENTED_EDGE('',*,*,#433,.T.);
#64=ORIENTED_EDGE('',*,*,#435,.T.);
#65=ORIENTED_EDGE('',*,*,#436,.F.);
#66=ORIENTED_EDGE('',*,*,#437,.F.);
#67=ORIENTED_EDGE('',*,*,#436,.T.);
#68=ORIENTED_EDGE('',*,*,#438,.T.);
#69=ORIENTED_EDGE('',*,*,#439,.F.);
#70=ORIENTED_EDGE('',*,*,#440,.F.);
#71=ORIENTED_EDGE('',*,*,#441,.T.);
#72=ORIENTED_EDGE('',*,*,#442,.F.);
#73=ORIENTED_EDGE('',*,*,#443,.T.);
#74=ORIENTED_EDGE('',*,*,#444,.T.);
#75=ORIENTED_EDGE('',*,*,#445,.F.);
#76=ORIENTED_EDGE('',*,*,#446,.F.);
#77=ORIENTED_EDGE('',*,*,#445,.T.);
#78=ORIENTED_EDGE('',*,*,#447,.T.);
#79=ORIENTED_EDGE('',*,*,#448,.F.);
#80=ORIENTED_EDGE('',*,*,#449,.F.);
#81=ORIENTED_EDGE('',*,*,#448,.T.);
#82=ORIENTED_EDGE('',*,*,#450,.T.);
#83=ORIENTED_EDGE('',*,*,#431,.F.);
#84=ORIENTED_EDGE('',*,*,#451,.F.);
#85=ORIENTED_EDGE('',*,*,#439,.T.);
#86=ORIENTED_EDGE('',*,*,#452,.T.);
#87=ORIENTED_EDGE('',*,*,#453,.F.);
#88=ORIENTED_EDGE('',*,*,#454,.F.);
#89=ORIENTED_EDGE('',*,*,#453,.T.);
#90=ORIENTED_EDGE('',*,*,#455,.T.);
#91=ORIENTED_EDGE('',*,*,#456,.F.);
#92=ORIENTED_EDGE('',*,*,#457,.F.);
#93=ORIENTED_EDGE('',*,*,#456,.T.);
#94=ORIENTED_EDGE('',*,*,#458,.T.);
#95=ORIENTED_EDGE('',*,*,#459,.F.);
#96=ORIENTED_EDGE('',*,*,#460,.F.);
#97=ORIENTED_EDGE('',*,*,#459,.T.);
#98=ORIENTED_EDGE('',*,*,#461,.T.);
#99=ORIENTED_EDGE('',*,*,#462,.F.);
#100=ORIENTED_EDGE('',*,*,#463,.F.);
#101=ORIENTED_EDGE('',*,*,#462,.T.);
#102=ORIENTED_EDGE('',*,*,#464,.T.);
#103=ORIENTED_EDGE('',*,*,#465,.F.);
#104=ORIENTED_EDGE('',*,*,#466,.F.);
#105=ORIENTED_EDGE('',*,*,#426,.T.);
#106=ORIENTED_EDGE('',*,*,#467,.T.);
#107=ORIENTED_EDGE('',*,*,#468,.F.);
#108=ORIENTED_EDGE('',*,*,#469,.F.);
#109=ORIENTED_EDGE('',*,*,#470,.T.);
#110=ORIENTED_EDGE('',*,*,#471,.F.);
#111=ORIENTED_EDGE('',*,*,#472,.T.);
#112=ORIENTED_EDGE('',*,*,#473,.F.);
#113=ORIENTED_EDGE('',*,*,#474,.T.);
#114=ORIENTED_EDGE('',*,*,#475,.F.);
#115=ORIENTED_EDGE('',*,*,#476,.T.);
#116=ORIENTED_EDGE('',*,*,#477,.F.);
#117=ORIENTED_EDGE('',*,*,#468,.T.);
#118=ORIENTED_EDGE('',*,*,#478,.T.);
#119=ORIENTED_EDGE('',*,*,#443,.F.);
#120=ORIENTED_EDGE('',*,*,#479,.T.);
#121=ORIENTED_EDGE('',*,*,#480,.T.);
#122=ORIENTED_EDGE('',*,*,#481,.F.);
#123=ORIENTED_EDGE('',*,*,#482,.F.);
#124=ORIENTED_EDGE('',*,*,#481,.T.);
#125=ORIENTED_EDGE('',*,*,#483,.T.);
#126=ORIENTED_EDGE('',*,*,#484,.F.);
#127=ORIENTED_EDGE('',*,*,#485,.F.);
#128=ORIENTED_EDGE('',*,*,#484,.T.);
#129=ORIENTED_EDGE('',*,*,#486,.T.);
#130=ORIENTED_EDGE('',*,*,#487,.F.);
#131=ORIENTED_EDGE('',*,*,#488,.F.);
#132=ORIENTED_EDGE('',*,*,#489,.T.);
#133=ORIENTED_EDGE('',*,*,#490,.T.);
#134=ORIENTED_EDGE('',*,*,#491,.F.);
#135=ORIENTED_EDGE('',*,*,#492,.F.);
#136=ORIENTED_EDGE('',*,*,#487,.T.);
#137=ORIENTED_EDGE('',*,*,#493,.T.);
#138=ORIENTED_EDGE('',*,*,#491,.T.);
#139=ORIENTED_EDGE('',*,*,#494,.T.);
#140=ORIENTED_EDGE('',*,*,#495,.F.);
#141=ORIENTED_EDGE('',*,*,#496,.F.);
#142=ORIENTED_EDGE('',*,*,#495,.T.);
#143=ORIENTED_EDGE('',*,*,#497,.T.);
#144=ORIENTED_EDGE('',*,*,#498,.T.);
#145=ORIENTED_EDGE('',*,*,#499,.T.);
#146=ORIENTED_EDGE('',*,*,#500,.F.);
#147=ORIENTED_EDGE('',*,*,#501,.F.);
#148=ORIENTED_EDGE('',*,*,#500,.T.);
#149=ORIENTED_EDGE('',*,*,#502,.T.);
#150=ORIENTED_EDGE('',*,*,#503,.F.);
#151=ORIENTED_EDGE('',*,*,#504,.F.);
#152=ORIENTED_EDGE('',*,*,#503,.T.);
#153=ORIENTED_EDGE('',*,*,#505,.T.);
#154=ORIENTED_EDGE('',*,*,#506,.F.);
#155=ORIENTED_EDGE('',*,*,#507,.F.);
#156=ORIENTED_EDGE('',*,*,#506,.T.);
#157=ORIENTED_EDGE('',*,*,#508,.T.);
#158=ORIENTED_EDGE('',*,*,#509,.F.);
#159=ORIENTED_EDGE('',*,*,#510,.F.);
#160=ORIENTED_EDGE('',*,*,#509,.T.);
#161=ORIENTED_EDGE('',*,*,#511,.T.);
#162=ORIENTED_EDGE('',*,*,#512,.F.);
#163=ORIENTED_EDGE('',*,*,#513,.F.);
#164=ORIENTED_EDGE('',*,*,#512,.T.);
#165=ORIENTED_EDGE('',*,*,#514,.T.);
#166=ORIENTED_EDGE('',*,*,#420,.F.);
#167=ORIENTED_EDGE('',*,*,#515,.F.);
#168=ORIENTED_EDGE('',*,*,#516,.F.);
#169=ORIENTED_EDGE('',*,*,#517,.T.);
#170=ORIENTED_EDGE('',*,*,#518,.F.);
#171=ORIENTED_EDGE('',*,*,#519,.F.);
#172=ORIENTED_EDGE('',*,*,#465,.T.);
#173=ORIENTED_EDGE('',*,*,#520,.T.);
#174=ORIENTED_EDGE('',*,*,#521,.T.);
#175=ORIENTED_EDGE('',*,*,#522,.T.);
#176=ORIENTED_EDGE('',*,*,#523,.F.);
#177=ORIENTED_EDGE('',*,*,#524,.F.);
#178=ORIENTED_EDGE('',*,*,#424,.F.);
#179=ORIENTED_EDGE('',*,*,#525,.T.);
#180=ORIENTED_EDGE('',*,*,#526,.F.);
#181=ORIENTED_EDGE('',*,*,#527,.F.);
#182=ORIENTED_EDGE('',*,*,#418,.T.);
#183=ORIENTED_EDGE('',*,*,#528,.T.);
#184=ORIENTED_EDGE('',*,*,#516,.T.);
#185=ORIENTED_EDGE('',*,*,#529,.T.);
#186=ORIENTED_EDGE('',*,*,#526,.T.);
#187=ORIENTED_EDGE('',*,*,#530,.T.);
#188=ORIENTED_EDGE('',*,*,#531,.F.);
#189=ORIENTED_EDGE('',*,*,#532,.T.);
#190=ORIENTED_EDGE('',*,*,#533,.F.);
#191=ORIENTED_EDGE('',*,*,#534,.F.);
#192=ORIENTED_EDGE('',*,*,#533,.T.);
#193=ORIENTED_EDGE('',*,*,#535,.T.);
#194=ORIENTED_EDGE('',*,*,#536,.F.);
#195=ORIENTED_EDGE('',*,*,#537,.F.);
#196=ORIENTED_EDGE('',*,*,#538,.F.);
#197=ORIENTED_EDGE('',*,*,#539,.T.);
#198=ORIENTED_EDGE('',*,*,#540,.T.);
#199=ORIENTED_EDGE('',*,*,#541,.F.);
#200=ORIENTED_EDGE('',*,*,#542,.F.);
#201=ORIENTED_EDGE('',*,*,#543,.F.);
#202=ORIENTED_EDGE('',*,*,#544,.T.);
#203=ORIENTED_EDGE('',*,*,#545,.T.);
#204=ORIENTED_EDGE('',*,*,#546,.T.);
#205=ORIENTED_EDGE('',*,*,#547,.T.);
#206=ORIENTED_EDGE('',*,*,#548,.F.);
#207=ORIENTED_EDGE('',*,*,#549,.F.);
#208=ORIENTED_EDGE('',*,*,#550,.T.);
#209=ORIENTED_EDGE('',*,*,#551,.F.);
#210=ORIENTED_EDGE('',*,*,#552,.F.);
#211=ORIENTED_EDGE('',*,*,#543,.T.);
#212=ORIENTED_EDGE('',*,*,#553,.F.);
#213=ORIENTED_EDGE('',*,*,#554,.F.);
#214=ORIENTED_EDGE('',*,*,#555,.F.);
#215=ORIENTED_EDGE('',*,*,#556,.T.);
#216=ORIENTED_EDGE('',*,*,#557,.T.);
#217=ORIENTED_EDGE('',*,*,#558,.F.);
#218=ORIENTED_EDGE('',*,*,#559,.T.);
#219=ORIENTED_EDGE('',*,*,#560,.F.);
#220=ORIENTED_EDGE('',*,*,#561,.F.);
#221=ORIENTED_EDGE('',*,*,#551,.T.);
#222=ORIENTED_EDGE('',*,*,#562,.F.);
#223=ORIENTED_EDGE('',*,*,#563,.T.);
#224=ORIENTED_EDGE('',*,*,#564,.F.);
#225=ORIENTED_EDGE('',*,*,#565,.T.);
#226=ORIENTED_EDGE('',*,*,#566,.F.);
#227=ORIENTED_EDGE('',*,*,#567,.T.);
#228=ORIENTED_EDGE('',*,*,#568,.F.);
#229=ORIENTED_EDGE('',*,*,#569,.T.);
#230=ORIENTED_EDGE('',*,*,#570,.F.);
#231=ORIENTED_EDGE('',*,*,#571,.F.);
#232=ORIENTED_EDGE('',*,*,#572,.T.);
#233=ORIENTED_EDGE('',*,*,#573,.T.);
#234=ORIENTED_EDGE('',*,*,#574,.F.);
#235=ORIENTED_EDGE('',*,*,#545,.F.);
#236=ORIENTED_EDGE('',*,*,#575,.T.);
#237=ORIENTED_EDGE('',*,*,#560,.T.);
#238=ORIENTED_EDGE('',*,*,#536,.T.);
#239=ORIENTED_EDGE('',*,*,#576,.T.);
#240=ORIENTED_EDGE('',*,*,#479,.F.);
#241=ORIENTED_EDGE('',*,*,#577,.F.);
#242=ORIENTED_EDGE('',*,*,#544,.F.);
#243=ORIENTED_EDGE('',*,*,#552,.T.);
#244=ORIENTED_EDGE('',*,*,#561,.T.);
#245=ORIENTED_EDGE('',*,*,#575,.F.);
#246=ORIENTED_EDGE('',*,*,#569,.F.);
#247=ORIENTED_EDGE('',*,*,#567,.F.);
#248=ORIENTED_EDGE('',*,*,#565,.F.);
#249=ORIENTED_EDGE('',*,*,#563,.F.);
#250=ORIENTED_EDGE('',*,*,#482,.T.);
#251=ORIENTED_EDGE('',*,*,#485,.T.);
#252=ORIENTED_EDGE('',*,*,#488,.T.);
#253=ORIENTED_EDGE('',*,*,#492,.T.);
#254=ORIENTED_EDGE('',*,*,#496,.T.);
#255=ORIENTED_EDGE('',*,*,#501,.T.);
#256=ORIENTED_EDGE('',*,*,#504,.T.);
#257=ORIENTED_EDGE('',*,*,#507,.T.);
#258=ORIENTED_EDGE('',*,*,#510,.T.);
#259=ORIENTED_EDGE('',*,*,#513,.T.);
#260=ORIENTED_EDGE('',*,*,#515,.T.);
#261=ORIENTED_EDGE('',*,*,#419,.T.);
#262=ORIENTED_EDGE('',*,*,#527,.T.);
#263=ORIENTED_EDGE('',*,*,#534,.T.);
#264=ORIENTED_EDGE('',*,*,#537,.T.);
#265=ORIENTED_EDGE('',*,*,#577,.T.);
#266=ORIENTED_EDGE('',*,*,#542,.T.);
#267=ORIENTED_EDGE('',*,*,#574,.T.);
#268=ORIENTED_EDGE('',*,*,#559,.F.);
#269=ORIENTED_EDGE('',*,*,#550,.F.);
#270=ORIENTED_EDGE('',*,*,#475,.T.);
#271=ORIENTED_EDGE('',*,*,#473,.T.);
#272=ORIENTED_EDGE('',*,*,#471,.T.);
#273=ORIENTED_EDGE('',*,*,#469,.T.);
#274=ORIENTED_EDGE('',*,*,#444,.F.);
#275=ORIENTED_EDGE('',*,*,#478,.F.);
#276=ORIENTED_EDGE('',*,*,#467,.F.);
#277=ORIENTED_EDGE('',*,*,#425,.F.);
#278=ORIENTED_EDGE('',*,*,#529,.F.);
#279=ORIENTED_EDGE('',*,*,#520,.F.);
#280=ORIENTED_EDGE('',*,*,#464,.F.);
#281=ORIENTED_EDGE('',*,*,#461,.F.);
#282=ORIENTED_EDGE('',*,*,#458,.F.);
#283=ORIENTED_EDGE('',*,*,#455,.F.);
#284=ORIENTED_EDGE('',*,*,#452,.F.);
#285=ORIENTED_EDGE('',*,*,#438,.F.);
#286=ORIENTED_EDGE('',*,*,#435,.F.);
#287=ORIENTED_EDGE('',*,*,#432,.F.);
#288=ORIENTED_EDGE('',*,*,#450,.F.);
#289=ORIENTED_EDGE('',*,*,#447,.F.);
#290=ORIENTED_EDGE('',*,*,#476,.F.);
#291=ORIENTED_EDGE('',*,*,#472,.F.);
#292=ORIENTED_EDGE('',*,*,#549,.T.);
#293=ORIENTED_EDGE('',*,*,#578,.F.);
#294=ORIENTED_EDGE('',*,*,#427,.T.);
#295=ORIENTED_EDGE('',*,*,#466,.T.);
#296=ORIENTED_EDGE('',*,*,#477,.T.);
#297=ORIENTED_EDGE('',*,*,#442,.T.);
#298=ORIENTED_EDGE('',*,*,#446,.T.);
#299=ORIENTED_EDGE('',*,*,#449,.T.);
#300=ORIENTED_EDGE('',*,*,#430,.T.);
#301=ORIENTED_EDGE('',*,*,#579,.T.);
#302=ORIENTED_EDGE('',*,*,#564,.T.);
#303=ORIENTED_EDGE('',*,*,#568,.T.);
#304=ORIENTED_EDGE('',*,*,#580,.F.);
#305=ORIENTED_EDGE('',*,*,#493,.F.);
#306=ORIENTED_EDGE('',*,*,#486,.F.);
#307=ORIENTED_EDGE('',*,*,#483,.F.);
#308=ORIENTED_EDGE('',*,*,#480,.F.);
#309=ORIENTED_EDGE('',*,*,#576,.F.);
#310=ORIENTED_EDGE('',*,*,#535,.F.);
#311=ORIENTED_EDGE('',*,*,#532,.F.);
#312=ORIENTED_EDGE('',*,*,#581,.T.);
#313=ORIENTED_EDGE('',*,*,#547,.F.);
#314=ORIENTED_EDGE('',*,*,#582,.F.);
#315=ORIENTED_EDGE('',*,*,#583,.T.);
#316=ORIENTED_EDGE('',*,*,#489,.F.);
#317=ORIENTED_EDGE('',*,*,#580,.T.);
#318=ORIENTED_EDGE('',*,*,#546,.F.);
#319=ORIENTED_EDGE('',*,*,#579,.F.);
#320=ORIENTED_EDGE('',*,*,#429,.F.);
#321=ORIENTED_EDGE('',*,*,#584,.F.);
#322=ORIENTED_EDGE('',*,*,#585,.F.);
#323=ORIENTED_EDGE('',*,*,#422,.T.);
#324=ORIENTED_EDGE('',*,*,#578,.T.);
#325=ORIENTED_EDGE('',*,*,#548,.T.);
#326=ORIENTED_EDGE('',*,*,#581,.F.);
#327=ORIENTED_EDGE('',*,*,#531,.T.);
#328=ORIENTED_EDGE('',*,*,#586,.F.);
#329=ORIENTED_EDGE('',*,*,#416,.T.);
#330=ORIENTED_EDGE('',*,*,#587,.F.);
#331=ORIENTED_EDGE('',*,*,#573,.F.);
#332=ORIENTED_EDGE('',*,*,#588,.T.);
#333=ORIENTED_EDGE('',*,*,#518,.T.);
#334=ORIENTED_EDGE('',*,*,#498,.F.);
#335=ORIENTED_EDGE('',*,*,#589,.T.);
#336=ORIENTED_EDGE('',*,*,#590,.T.);
#337=ORIENTED_EDGE('',*,*,#591,.F.);
#338=ORIENTED_EDGE('',*,*,#441,.F.);
#339=ORIENTED_EDGE('',*,*,#592,.F.);
#340=ORIENTED_EDGE('',*,*,#571,.T.);
#341=ORIENTED_EDGE('',*,*,#593,.T.);
#342=ORIENTED_EDGE('',*,*,#562,.T.);
#343=ORIENTED_EDGE('',*,*,#566,.T.);
#344=ORIENTED_EDGE('',*,*,#593,.F.);
#345=ORIENTED_EDGE('',*,*,#570,.T.);
#346=ORIENTED_EDGE('',*,*,#587,.T.);
#347=ORIENTED_EDGE('',*,*,#421,.F.);
#348=ORIENTED_EDGE('',*,*,#514,.F.);
#349=ORIENTED_EDGE('',*,*,#511,.F.);
#350=ORIENTED_EDGE('',*,*,#508,.F.);
#351=ORIENTED_EDGE('',*,*,#505,.F.);
#352=ORIENTED_EDGE('',*,*,#502,.F.);
#353=ORIENTED_EDGE('',*,*,#499,.F.);
#354=ORIENTED_EDGE('',*,*,#474,.F.);
#355=ORIENTED_EDGE('',*,*,#470,.F.);
#356=ORIENTED_EDGE('',*,*,#440,.T.);
#357=ORIENTED_EDGE('',*,*,#451,.T.);
#358=ORIENTED_EDGE('',*,*,#454,.T.);
#359=ORIENTED_EDGE('',*,*,#457,.T.);
#360=ORIENTED_EDGE('',*,*,#460,.T.);
#361=ORIENTED_EDGE('',*,*,#463,.T.);
#362=ORIENTED_EDGE('',*,*,#519,.T.);
#363=ORIENTED_EDGE('',*,*,#588,.F.);
#364=ORIENTED_EDGE('',*,*,#572,.F.);
#365=ORIENTED_EDGE('',*,*,#592,.T.);
#366=ORIENTED_EDGE('',*,*,#541,.T.);
#367=ORIENTED_EDGE('',*,*,#594,.F.);
#368=ORIENTED_EDGE('',*,*,#590,.F.);
#369=ORIENTED_EDGE('',*,*,#595,.T.);
#370=ORIENTED_EDGE('',*,*,#596,.F.);
#371=ORIENTED_EDGE('',*,*,#584,.T.);
#372=ORIENTED_EDGE('',*,*,#428,.T.);
#373=ORIENTED_EDGE('',*,*,#434,.T.);
#374=ORIENTED_EDGE('',*,*,#437,.T.);
#375=ORIENTED_EDGE('',*,*,#591,.T.);
#376=ORIENTED_EDGE('',*,*,#594,.T.);
#377=ORIENTED_EDGE('',*,*,#540,.F.);
#378=ORIENTED_EDGE('',*,*,#538,.T.);
#379=ORIENTED_EDGE('',*,*,#595,.F.);
#380=ORIENTED_EDGE('',*,*,#589,.F.);
#381=ORIENTED_EDGE('',*,*,#497,.F.);
#382=ORIENTED_EDGE('',*,*,#494,.F.);
#383=ORIENTED_EDGE('',*,*,#490,.F.);
#384=ORIENTED_EDGE('',*,*,#583,.F.);
#385=ORIENTED_EDGE('',*,*,#597,.T.);
#386=ORIENTED_EDGE('',*,*,#597,.F.);
#387=ORIENTED_EDGE('',*,*,#582,.T.);
#388=ORIENTED_EDGE('',*,*,#596,.T.);
#389=ORIENTED_EDGE('',*,*,#539,.F.);
#390=ORIENTED_EDGE('',*,*,#523,.T.);
#391=ORIENTED_EDGE('',*,*,#598,.F.);
#392=ORIENTED_EDGE('',*,*,#555,.T.);
#393=ORIENTED_EDGE('',*,*,#599,.T.);
#394=ORIENTED_EDGE('',*,*,#600,.F.);
#395=ORIENTED_EDGE('',*,*,#556,.F.);
#396=ORIENTED_EDGE('',*,*,#598,.T.);
#397=ORIENTED_EDGE('',*,*,#522,.F.);
#398=ORIENTED_EDGE('',*,*,#524,.T.);
#399=ORIENTED_EDGE('',*,*,#599,.F.);
#400=ORIENTED_EDGE('',*,*,#558,.T.);
#401=ORIENTED_EDGE('',*,*,#601,.T.);
#402=ORIENTED_EDGE('',*,*,#601,.F.);
#403=ORIENTED_EDGE('',*,*,#557,.F.);
#404=ORIENTED_EDGE('',*,*,#600,.T.);
#405=ORIENTED_EDGE('',*,*,#521,.F.);
#406=ORIENTED_EDGE('',*,*,#554,.T.);
#407=ORIENTED_EDGE('',*,*,#417,.F.);
#408=ORIENTED_EDGE('',*,*,#586,.T.);
#409=ORIENTED_EDGE('',*,*,#517,.F.);
#410=ORIENTED_EDGE('',*,*,#528,.F.);
#411=ORIENTED_EDGE('',*,*,#553,.T.);
#412=ORIENTED_EDGE('',*,*,#423,.F.);
#413=ORIENTED_EDGE('',*,*,#585,.T.);
#414=ORIENTED_EDGE('',*,*,#530,.F.);
#415=ORIENTED_EDGE('',*,*,#525,.F.);
#416=EDGE_CURVE('',#602,#603,#732,.T.);
#417=EDGE_CURVE('',#602,#604,#733,.T.);
#418=EDGE_CURVE('',#605,#604,#734,.T.);
#419=EDGE_CURVE('',#606,#605,#735,.T.);
#420=EDGE_CURVE('',#606,#607,#736,.T.);
#421=EDGE_CURVE('',#607,#603,#737,.T.);
#422=EDGE_CURVE('',#608,#609,#738,.T.);
#423=EDGE_CURVE('',#608,#610,#739,.T.);
#424=EDGE_CURVE('',#610,#611,#740,.T.);
#425=EDGE_CURVE('',#611,#612,#741,.T.);
#426=EDGE_CURVE('',#613,#612,#742,.T.);
#427=EDGE_CURVE('',#609,#613,#743,.T.);
#428=EDGE_CURVE('',#614,#615,#744,.T.);
#429=EDGE_CURVE('',#614,#616,#745,.T.);
#430=EDGE_CURVE('',#617,#616,#746,.T.);
#431=EDGE_CURVE('',#617,#618,#747,.T.);
#432=EDGE_CURVE('',#618,#619,#748,.T.);
#433=EDGE_CURVE('',#615,#619,#749,.T.);
#434=EDGE_CURVE('',#615,#620,#750,.T.);
#435=EDGE_CURVE('',#619,#621,#751,.T.);
#436=EDGE_CURVE('',#620,#621,#752,.T.);
#437=EDGE_CURVE('',#620,#622,#753,.T.);
#438=EDGE_CURVE('',#621,#623,#754,.T.);
#439=EDGE_CURVE('',#624,#623,#755,.T.);
#440=EDGE_CURVE('',#625,#624,#756,.T.);
#441=EDGE_CURVE('',#625,#622,#757,.T.);
#442=EDGE_CURVE('',#626,#627,#758,.T.);
#443=EDGE_CURVE('',#626,#628,#759,.T.);
#444=EDGE_CURVE('',#628,#629,#760,.T.);
#445=EDGE_CURVE('',#627,#629,#761,.T.);
#446=EDGE_CURVE('',#627,#630,#762,.T.);
#447=EDGE_CURVE('',#629,#631,#763,.T.);
#448=EDGE_CURVE('',#630,#631,#764,.T.);
#449=EDGE_CURVE('',#630,#617,#765,.T.);
#450=EDGE_CURVE('',#631,#618,#766,.T.);
#451=EDGE_CURVE('',#624,#632,#767,.T.);
#452=EDGE_CURVE('',#623,#633,#768,.T.);
#453=EDGE_CURVE('',#632,#633,#769,.T.);
#454=EDGE_CURVE('',#632,#634,#770,.T.);
#455=EDGE_CURVE('',#633,#635,#771,.T.);
#456=EDGE_CURVE('',#634,#635,#772,.T.);
#457=EDGE_CURVE('',#634,#636,#773,.T.);
#458=EDGE_CURVE('',#635,#637,#774,.T.);
#459=EDGE_CURVE('',#636,#637,#775,.T.);
#460=EDGE_CURVE('',#636,#638,#776,.T.);
#461=EDGE_CURVE('',#637,#639,#777,.T.);
#462=EDGE_CURVE('',#638,#639,#778,.T.);
#463=EDGE_CURVE('',#638,#640,#779,.T.);
#464=EDGE_CURVE('',#639,#641,#780,.T.);
#465=EDGE_CURVE('',#640,#641,#781,.T.);
#466=EDGE_CURVE('',#613,#642,#782,.T.);
#467=EDGE_CURVE('',#612,#643,#783,.T.);
#468=EDGE_CURVE('',#642,#643,#784,.T.);
#469=EDGE_CURVE('',#644,#644,#12,.T.);
#470=EDGE_CURVE('',#645,#645,#13,.T.);
#471=EDGE_CURVE('',#646,#646,#14,.T.);
#472=EDGE_CURVE('',#647,#647,#15,.T.);
#473=EDGE_CURVE('',#648,#648,#16,.T.);
#474=EDGE_CURVE('',#649,#649,#17,.T.);
#475=EDGE_CURVE('',#650,#650,#18,.T.);
#476=EDGE_CURVE('',#651,#651,#19,.T.);
#477=EDGE_CURVE('',#642,#626,#785,.T.);
#478=EDGE_CURVE('',#643,#628,#786,.T.);
#479=EDGE_CURVE('',#652,#653,#787,.T.);
#480=EDGE_CURVE('',#653,#654,#788,.T.);
#481=EDGE_CURVE('',#655,#654,#789,.T.);
#482=EDGE_CURVE('',#652,#655,#790,.T.);
#483=EDGE_CURVE('',#654,#656,#791,.T.);
#484=EDGE_CURVE('',#657,#656,#792,.T.);
#485=EDGE_CURVE('',#655,#657,#793,.T.);
#486=EDGE_CURVE('',#656,#658,#794,.T.);
#487=EDGE_CURVE('',#659,#658,#795,.T.);
#488=EDGE_CURVE('',#657,#659,#796,.T.);
#489=EDGE_CURVE('',#660,#661,#797,.T.);
#490=EDGE_CURVE('',#661,#662,#798,.T.);
#491=EDGE_CURVE('',#663,#662,#799,.T.);
#492=EDGE_CURVE('',#659,#663,#800,.T.);
#493=EDGE_CURVE('',#658,#660,#801,.T.);
#494=EDGE_CURVE('',#662,#664,#802,.T.);
#495=EDGE_CURVE('',#665,#664,#803,.T.);
#496=EDGE_CURVE('',#663,#665,#804,.T.);
#497=EDGE_CURVE('',#664,#666,#805,.T.);
#498=EDGE_CURVE('',#666,#667,#806,.T.);
#499=EDGE_CURVE('',#667,#668,#807,.T.);
#500=EDGE_CURVE('',#669,#668,#808,.T.);
#501=EDGE_CURVE('',#665,#669,#809,.T.);
#502=EDGE_CURVE('',#668,#670,#810,.T.);
#503=EDGE_CURVE('',#671,#670,#811,.T.);
#504=EDGE_CURVE('',#669,#671,#812,.T.);
#505=EDGE_CURVE('',#670,#672,#813,.T.);
#506=EDGE_CURVE('',#673,#672,#814,.T.);
#507=EDGE_CURVE('',#671,#673,#815,.T.);
#508=EDGE_CURVE('',#672,#674,#816,.T.);
#509=EDGE_CURVE('',#675,#674,#817,.T.);
#510=EDGE_CURVE('',#673,#675,#818,.T.);
#511=EDGE_CURVE('',#674,#676,#819,.T.);
#512=EDGE_CURVE('',#677,#676,#820,.T.);
#513=EDGE_CURVE('',#675,#677,#821,.T.);
#514=EDGE_CURVE('',#676,#607,#822,.T.);
#515=EDGE_CURVE('',#677,#606,#823,.T.);
#516=EDGE_CURVE('',#678,#679,#824,.T.);
#517=EDGE_CURVE('',#678,#680,#825,.F.);
#518=EDGE_CURVE('',#681,#680,#826,.T.);
#519=EDGE_CURVE('',#640,#681,#827,.T.);
#520=EDGE_CURVE('',#641,#679,#828,.T.);
#521=EDGE_CURVE('',#682,#683,#829,.T.);
#522=EDGE_CURVE('',#683,#684,#830,.T.);
#523=EDGE_CURVE('',#685,#684,#831,.T.);
#524=EDGE_CURVE('',#682,#685,#832,.T.);
#525=EDGE_CURVE('',#610,#686,#20,.T.);
#526=EDGE_CURVE('',#687,#686,#833,.T.);
#527=EDGE_CURVE('',#605,#687,#834,.T.);
#528=EDGE_CURVE('',#604,#678,#21,.T.);
#529=EDGE_CURVE('',#679,#611,#835,.T.);
#530=EDGE_CURVE('',#686,#688,#836,.F.);
#531=EDGE_CURVE('',#689,#688,#837,.T.);
#532=EDGE_CURVE('',#689,#690,#838,.T.);
#533=EDGE_CURVE('',#691,#690,#839,.T.);
#534=EDGE_CURVE('',#687,#691,#840,.T.);
#535=EDGE_CURVE('',#690,#692,#841,.T.);
#536=EDGE_CURVE('',#693,#692,#842,.T.);
#537=EDGE_CURVE('',#691,#693,#843,.T.);
#538=EDGE_CURVE('',#694,#695,#844,.T.);
#539=EDGE_CURVE('',#694,#696,#845,.T.);
#540=EDGE_CURVE('',#696,#697,#846,.T.);
#541=EDGE_CURVE('',#695,#697,#847,.T.);
#542=EDGE_CURVE('',#698,#699,#848,.T.);
#543=EDGE_CURVE('',#700,#698,#849,.T.);
#544=EDGE_CURVE('',#700,#701,#850,.T.);
#545=EDGE_CURVE('',#701,#699,#851,.T.);
#546=EDGE_CURVE('',#702,#703,#852,.T.);
#547=EDGE_CURVE('',#703,#704,#853,.T.);
#548=EDGE_CURVE('',#705,#704,#854,.T.);
#549=EDGE_CURVE('',#702,#705,#855,.T.);
#550=EDGE_CURVE('',#698,#706,#856,.T.);
#551=EDGE_CURVE('',#707,#706,#857,.T.);
#552=EDGE_CURVE('',#700,#707,#858,.T.);
#553=EDGE_CURVE('',#708,#708,#22,.T.);
#554=EDGE_CURVE('',#709,#709,#23,.T.);
#555=EDGE_CURVE('',#710,#711,#859,.T.);
#556=EDGE_CURVE('',#710,#712,#860,.T.);
#557=EDGE_CURVE('',#712,#713,#861,.T.);
#558=EDGE_CURVE('',#711,#713,#862,.T.);
#559=EDGE_CURVE('',#706,#714,#863,.T.);
#560=EDGE_CURVE('',#715,#714,#864,.T.);
#561=EDGE_CURVE('',#707,#715,#865,.T.);
#562=EDGE_CURVE('',#716,#716,#24,.T.);
#563=EDGE_CURVE('',#717,#717,#25,.T.);
#564=EDGE_CURVE('',#718,#718,#26,.T.);
#565=EDGE_CURVE('',#719,#719,#27,.T.);
#566=EDGE_CURVE('',#720,#720,#28,.T.);
#567=EDGE_CURVE('',#721,#721,#29,.T.);
#568=EDGE_CURVE('',#722,#722,#30,.T.);
#569=EDGE_CURVE('',#723,#723,#31,.T.);
#570=EDGE_CURVE('',#724,#725,#866,.T.);
#571=EDGE_CURVE('',#726,#724,#867,.T.);
#572=EDGE_CURVE('',#726,#727,#868,.T.);
#573=EDGE_CURVE('',#727,#725,#869,.T.);
#574=EDGE_CURVE('',#699,#714,#870,.T.);
#575=EDGE_CURVE('',#701,#715,#871,.T.);
#576=EDGE_CURVE('',#692,#653,#872,.T.);
#577=EDGE_CURVE('',#693,#652,#873,.T.);
#578=EDGE_CURVE('',#609,#705,#874,.T.);
#579=EDGE_CURVE('',#616,#702,#875,.T.);
#580=EDGE_CURVE('',#660,#703,#876,.T.);
#581=EDGE_CURVE('',#689,#704,#877,.T.);
#582=EDGE_CURVE('',#728,#729,#878,.T.);
#583=EDGE_CURVE('',#728,#661,#879,.T.);
#584=EDGE_CURVE('',#729,#614,#880,.T.);
#585=EDGE_CURVE('',#608,#688,#32,.T.);
#586=EDGE_CURVE('',#602,#680,#33,.T.);
#587=EDGE_CURVE('',#725,#603,#881,.T.);
#588=EDGE_CURVE('',#727,#681,#882,.T.);
#589=EDGE_CURVE('',#666,#730,#883,.T.);
#590=EDGE_CURVE('',#730,#731,#884,.T.);
#591=EDGE_CURVE('',#622,#731,#885,.T.);
#592=EDGE_CURVE('',#726,#625,#886,.T.);
#593=EDGE_CURVE('',#724,#667,#887,.T.);
#594=EDGE_CURVE('',#731,#697,#888,.T.);
#595=EDGE_CURVE('',#730,#695,#889,.T.);
#596=EDGE_CURVE('',#729,#696,#890,.T.);
#597=EDGE_CURVE('',#728,#694,#891,.T.);
#598=EDGE_CURVE('',#710,#684,#892,.T.);
#599=EDGE_CURVE('',#711,#685,#893,.T.);
#600=EDGE_CURVE('',#712,#683,#894,.T.);
#601=EDGE_CURVE('',#713,#682,#895,.T.);
#602=VERTEX_POINT('',#1809);
#603=VERTEX_POINT('',#1810);
#604=VERTEX_POINT('',#1812);
#605=VERTEX_POINT('',#1814);
#606=VERTEX_POINT('',#1816);
#607=VERTEX_POINT('',#1818);
#608=VERTEX_POINT('',#1822);
#609=VERTEX_POINT('',#1823);
#610=VERTEX_POINT('',#1825);
#611=VERTEX_POINT('',#1827);
#612=VERTEX_POINT('',#1829);
#613=VERTEX_POINT('',#1831);
#614=VERTEX_POINT('',#1835);
#615=VERTEX_POINT('',#1836);
#616=VERTEX_POINT('',#1838);
#617=VERTEX_POINT('',#1840);
#618=VERTEX_POINT('',#1842);
#619=VERTEX_POINT('',#1844);
#620=VERTEX_POINT('',#1848);
#621=VERTEX_POINT('',#1850);
#622=VERTEX_POINT('',#1854);
#623=VERTEX_POINT('',#1856);
#624=VERTEX_POINT('',#1858);
#625=VERTEX_POINT('',#1860);
#626=VERTEX_POINT('',#1864);
#627=VERTEX_POINT('',#1865);
#628=VERTEX_POINT('',#1867);
#629=VERTEX_POINT('',#1869);
#630=VERTEX_POINT('',#1873);
#631=VERTEX_POINT('',#1875);
#632=VERTEX_POINT('',#1882);
#633=VERTEX_POINT('',#1884);
#634=VERTEX_POINT('',#1888);
#635=VERTEX_POINT('',#1890);
#636=VERTEX_POINT('',#1894);
#637=VERTEX_POINT('',#1896);
#638=VERTEX_POINT('',#1900);
#639=VERTEX_POINT('',#1902);
#640=VERTEX_POINT('',#1906);
#641=VERTEX_POINT('',#1908);
#642=VERTEX_POINT('',#1912);
#643=VERTEX_POINT('',#1914);
#644=VERTEX_POINT('',#1918);
#645=VERTEX_POINT('',#1920);
#646=VERTEX_POINT('',#1923);
#647=VERTEX_POINT('',#1925);
#648=VERTEX_POINT('',#1928);
#649=VERTEX_POINT('',#1930);
#650=VERTEX_POINT('',#1933);
#651=VERTEX_POINT('',#1935);
#652=VERTEX_POINT('',#1941);
#653=VERTEX_POINT('',#1942);
#654=VERTEX_POINT('',#1944);
#655=VERTEX_POINT('',#1946);
#656=VERTEX_POINT('',#1950);
#657=VERTEX_POINT('',#1952);
#658=VERTEX_POINT('',#1956);
#659=VERTEX_POINT('',#1958);
#660=VERTEX_POINT('',#1962);
#661=VERTEX_POINT('',#1963);
#662=VERTEX_POINT('',#1965);
#663=VERTEX_POINT('',#1967);
#664=VERTEX_POINT('',#1972);
#665=VERTEX_POINT('',#1974);
#666=VERTEX_POINT('',#1978);
#667=VERTEX_POINT('',#1980);
#668=VERTEX_POINT('',#1982);
#669=VERTEX_POINT('',#1984);
#670=VERTEX_POINT('',#1988);
#671=VERTEX_POINT('',#1990);
#672=VERTEX_POINT('',#1994);
#673=VERTEX_POINT('',#1996);
#674=VERTEX_POINT('',#2000);
#675=VERTEX_POINT('',#2002);
#676=VERTEX_POINT('',#2006);
#677=VERTEX_POINT('',#2008);
#678=VERTEX_POINT('',#2015);
#679=VERTEX_POINT('',#2016);
#680=VERTEX_POINT('',#2018);
#681=VERTEX_POINT('',#2020);
#682=VERTEX_POINT('',#2025);
#683=VERTEX_POINT('',#2026);
#684=VERTEX_POINT('',#2028);
#685=VERTEX_POINT('',#2030);
#686=VERTEX_POINT('',#2033);
#687=VERTEX_POINT('',#2035);
#688=VERTEX_POINT('',#2041);
#689=VERTEX_POINT('',#2043);
#690=VERTEX_POINT('',#2045);
#691=VERTEX_POINT('',#2047);
#692=VERTEX_POINT('',#2051);
#693=VERTEX_POINT('',#2053);
#694=VERTEX_POINT('',#2057);
#695=VERTEX_POINT('',#2058);
#696=VERTEX_POINT('',#2060);
#697=VERTEX_POINT('',#2062);
#698=VERTEX_POINT('',#2065);
#699=VERTEX_POINT('',#2066);
#700=VERTEX_POINT('',#2068);
#701=VERTEX_POINT('',#2070);
#702=VERTEX_POINT('',#2074);
#703=VERTEX_POINT('',#2075);
#704=VERTEX_POINT('',#2077);
#705=VERTEX_POINT('',#2079);
#706=VERTEX_POINT('',#2082);
#707=VERTEX_POINT('',#2084);
#708=VERTEX_POINT('',#2088);
#709=VERTEX_POINT('',#2090);
#710=VERTEX_POINT('',#2092);
#711=VERTEX_POINT('',#2093);
#712=VERTEX_POINT('',#2095);
#713=VERTEX_POINT('',#2097);
#714=VERTEX_POINT('',#2100);
#715=VERTEX_POINT('',#2102);
#716=VERTEX_POINT('',#2106);
#717=VERTEX_POINT('',#2108);
#718=VERTEX_POINT('',#2111);
#719=VERTEX_POINT('',#2113);
#720=VERTEX_POINT('',#2116);
#721=VERTEX_POINT('',#2118);
#722=VERTEX_POINT('',#2121);
#723=VERTEX_POINT('',#2123);
#724=VERTEX_POINT('',#2126);
#725=VERTEX_POINT('',#2127);
#726=VERTEX_POINT('',#2129);
#727=VERTEX_POINT('',#2131);
#728=VERTEX_POINT('',#2148);
#729=VERTEX_POINT('',#2149);
#730=VERTEX_POINT('',#2160);
#731=VERTEX_POINT('',#2162);
#732=LINE('',#1808,#896);
#733=LINE('',#1811,#897);
#734=LINE('',#1813,#898);
#735=LINE('',#1815,#899);
#736=LINE('',#1817,#900);
#737=LINE('',#1819,#901);
#738=LINE('',#1821,#902);
#739=LINE('',#1824,#903);
#740=LINE('',#1826,#904);
#741=LINE('',#1828,#905);
#742=LINE('',#1830,#906);
#743=LINE('',#1832,#907);
#744=LINE('',#1834,#908);
#745=LINE('',#1837,#909);
#746=LINE('',#1839,#910);
#747=LINE('',#1841,#911);
#748=LINE('',#1843,#912);
#749=LINE('',#1845,#913);
#750=LINE('',#1847,#914);
#751=LINE('',#1849,#915);
#752=LINE('',#1851,#916);
#753=LINE('',#1853,#917);
#754=LINE('',#1855,#918);
#755=LINE('',#1857,#919);
#756=LINE('',#1859,#920);
#757=LINE('',#1861,#921);
#758=LINE('',#1863,#922);
#759=LINE('',#1866,#923);
#760=LINE('',#1868,#924);
#761=LINE('',#1870,#925);
#762=LINE('',#1872,#926);
#763=LINE('',#1874,#927);
#764=LINE('',#1876,#928);
#765=LINE('',#1878,#929);
#766=LINE('',#1879,#930);
#767=LINE('',#1881,#931);
#768=LINE('',#1883,#932);
#769=LINE('',#1885,#933);
#770=LINE('',#1887,#934);
#771=LINE('',#1889,#935);
#772=LINE('',#1891,#936);
#773=LINE('',#1893,#937);
#774=LINE('',#1895,#938);
#775=LINE('',#1897,#939);
#776=LINE('',#1899,#940);
#777=LINE('',#1901,#941);
#778=LINE('',#1903,#942);
#779=LINE('',#1905,#943);
#780=LINE('',#1907,#944);
#781=LINE('',#1909,#945);
#782=LINE('',#1911,#946);
#783=LINE('',#1913,#947);
#784=LINE('',#1915,#948);
#785=LINE('',#1937,#949);
#786=LINE('',#1938,#950);
#787=LINE('',#1940,#951);
#788=LINE('',#1943,#952);
#789=LINE('',#1945,#953);
#790=LINE('',#1947,#954);
#791=LINE('',#1949,#955);
#792=LINE('',#1951,#956);
#793=LINE('',#1953,#957);
#794=LINE('',#1955,#958);
#795=LINE('',#1957,#959);
#796=LINE('',#1959,#960);
#797=LINE('',#1961,#961);
#798=LINE('',#1964,#962);
#799=LINE('',#1966,#963);
#800=LINE('',#1968,#964);
#801=LINE('',#1969,#965);
#802=LINE('',#1971,#966);
#803=LINE('',#1973,#967);
#804=LINE('',#1975,#968);
#805=LINE('',#1977,#969);
#806=LINE('',#1979,#970);
#807=LINE('',#1981,#971);
#808=LINE('',#1983,#972);
#809=LINE('',#1985,#973);
#810=LINE('',#1987,#974);
#811=LINE('',#1989,#975);
#812=LINE('',#1991,#976);
#813=LINE('',#1993,#977);
#814=LINE('',#1995,#978);
#815=LINE('',#1997,#979);
#816=LINE('',#1999,#980);
#817=LINE('',#2001,#981);
#818=LINE('',#2003,#982);
#819=LINE('',#2005,#983);
#820=LINE('',#2007,#984);
#821=LINE('',#2009,#985);
#822=LINE('',#2011,#986);
#823=LINE('',#2012,#987);
#824=LINE('',#2014,#988);
#825=LINE('',#2017,#989);
#826=LINE('',#2019,#990);
#827=LINE('',#2021,#991);
#828=LINE('',#2022,#992);
#829=LINE('',#2024,#993);
#830=LINE('',#2027,#994);
#831=LINE('',#2029,#995);
#832=LINE('',#2031,#996);
#833=LINE('',#2034,#997);
#834=LINE('',#2036,#998);
#835=LINE('',#2038,#999);
#836=LINE('',#2040,#1000);
#837=LINE('',#2042,#1001);
#838=LINE('',#2044,#1002);
#839=LINE('',#2046,#1003);
#840=LINE('',#2048,#1004);
#841=LINE('',#2050,#1005);
#842=LINE('',#2052,#1006);
#843=LINE('',#2054,#1007);
#844=LINE('',#2056,#1008);
#845=LINE('',#2059,#1009);
#846=LINE('',#2061,#1010);
#847=LINE('',#2063,#1011);
#848=LINE('',#2064,#1012);
#849=LINE('',#2067,#1013);
#850=LINE('',#2069,#1014);
#851=LINE('',#2071,#1015);
#852=LINE('',#2073,#1016);
#853=LINE('',#2076,#1017);
#854=LINE('',#2078,#1018);
#855=LINE('',#2080,#1019);
#856=LINE('',#2081,#1020);
#857=LINE('',#2083,#1021);
#858=LINE('',#2085,#1022);
#859=LINE('',#2091,#1023);
#860=LINE('',#2094,#1024);
#861=LINE('',#2096,#1025);
#862=LINE('',#2098,#1026);
#863=LINE('',#2099,#1027);
#864=LINE('',#2101,#1028);
#865=LINE('',#2103,#1029);
#866=LINE('',#2125,#1030);
#867=LINE('',#2128,#1031);
#868=LINE('',#2130,#1032);
#869=LINE('',#2132,#1033);
#870=LINE('',#2133,#1034);
#871=LINE('',#2134,#1035);
#872=LINE('',#2136,#1036);
#873=LINE('',#2137,#1037);
#874=LINE('',#2141,#1038);
#875=LINE('',#2142,#1039);
#876=LINE('',#2144,#1040);
#877=LINE('',#2145,#1041);
#878=LINE('',#2147,#1042);
#879=LINE('',#2150,#1043);
#880=LINE('',#2151,#1044);
#881=LINE('',#2156,#1045);
#882=LINE('',#2157,#1046);
#883=LINE('',#2159,#1047);
#884=LINE('',#2161,#1048);
#885=LINE('',#2163,#1049);
#886=LINE('',#2164,#1050);
#887=LINE('',#2165,#1051);
#888=LINE('',#2169,#1052);
#889=LINE('',#2170,#1053);
#890=LINE('',#2172,#1054);
#891=LINE('',#2174,#1055);
#892=LINE('',#2177,#1056);
#893=LINE('',#2178,#1057);
#894=LINE('',#2180,#1058);
#895=LINE('',#2182,#1059);
#896=VECTOR('',#1474,1.);
#897=VECTOR('',#1475,1.);
#898=VECTOR('',#1476,1.);
#899=VECTOR('',#1477,1.);
#900=VECTOR('',#1478,1.);
#901=VECTOR('',#1479,1.);
#902=VECTOR('',#1482,1.);
#903=VECTOR('',#1483,1.);
#904=VECTOR('',#1484,1.);
#905=VECTOR('',#1485,1.);
#906=VECTOR('',#1486,1.);
#907=VECTOR('',#1487,1.);
#908=VECTOR('',#1490,1.);
#909=VECTOR('',#1491,1.);
#910=VECTOR('',#1492,1.);
#911=VECTOR('',#1493,1.);
#912=VECTOR('',#1494,1.);
#913=VECTOR('',#1495,1.);
#914=VECTOR('',#1498,1.);
#915=VECTOR('',#1499,1.);
#916=VECTOR('',#1500,1.);
#917=VECTOR('',#1503,1.);
#918=VECTOR('',#1504,1.);
#919=VECTOR('',#1505,1.);
#920=VECTOR('',#1506,1.);
#921=VECTOR('',#1507,1.);
#922=VECTOR('',#1510,1.);
#923=VECTOR('',#1511,1.);
#924=VECTOR('',#1512,1.);
#925=VECTOR('',#1513,1.);
#926=VECTOR('',#1516,1.);
#927=VECTOR('',#1517,1.);
#928=VECTOR('',#1518,1.);
#929=VECTOR('',#1521,1.);
#930=VECTOR('',#1522,1.);
#931=VECTOR('',#1525,1.);
#932=VECTOR('',#1526,1.);
#933=VECTOR('',#1527,1.);
#934=VECTOR('',#1530,1.);
#935=VECTOR('',#1531,1.);
#936=VECTOR('',#1532,1.);
#937=VECTOR('',#1535,1.);
#938=VECTOR('',#1536,1.);
#939=VECTOR('',#1537,1.);
#940=VECTOR('',#1540,1.);
#941=VECTOR('',#1541,1.);
#942=VECTOR('',#1542,1.);
#943=VECTOR('',#1545,1.);
#944=VECTOR('',#1546,1.);
#945=VECTOR('',#1547,1.);
#946=VECTOR('',#1550,1.);
#947=VECTOR('',#1551,1.);
#948=VECTOR('',#1552,1.);
#949=VECTOR('',#1579,1.);
#950=VECTOR('',#1580,1.);
#951=VECTOR('',#1583,1.);
#952=VECTOR('',#1584,1.);
#953=VECTOR('',#1585,1.);
#954=VECTOR('',#1586,1.);
#955=VECTOR('',#1589,1.);
#956=VECTOR('',#1590,1.);
#957=VECTOR('',#1591,1.);
#958=VECTOR('',#1594,1.);
#959=VECTOR('',#1595,1.);
#960=VECTOR('',#1596,1.);
#961=VECTOR('',#1599,1.);
#962=VECTOR('',#1600,1.);
#963=VECTOR('',#1601,1.);
#964=VECTOR('',#1602,1.);
#965=VECTOR('',#1603,1.);
#966=VECTOR('',#1606,1.);
#967=VECTOR('',#1607,1.);
#968=VECTOR('',#1608,1.);
#969=VECTOR('',#1611,1.);
#970=VECTOR('',#1612,1.);
#971=VECTOR('',#1613,1.);
#972=VECTOR('',#1614,1.);
#973=VECTOR('',#1615,1.);
#974=VECTOR('',#1618,1.);
#975=VECTOR('',#1619,1.);
#976=VECTOR('',#1620,1.);
#977=VECTOR('',#1623,1.);
#978=VECTOR('',#1624,1.);
#979=VECTOR('',#1625,1.);
#980=VECTOR('',#1628,1.);
#981=VECTOR('',#1629,1.);
#982=VECTOR('',#1630,1.);
#983=VECTOR('',#1633,1.);
#984=VECTOR('',#1634,1.);
#985=VECTOR('',#1635,1.);
#986=VECTOR('',#1638,1.);
#987=VECTOR('',#1639,1.);
#988=VECTOR('',#1642,1.);
#989=VECTOR('',#1643,1.);
#990=VECTOR('',#1644,1.);
#991=VECTOR('',#1645,1.);
#992=VECTOR('',#1646,1.);
#993=VECTOR('',#1649,1.);
#994=VECTOR('',#1650,1.);
#995=VECTOR('',#1651,1.);
#996=VECTOR('',#1652,1.);
#997=VECTOR('',#1655,1.);
#998=VECTOR('',#1656,1.);
#999=VECTOR('',#1659,1.);
#1000=VECTOR('',#1662,1.);
#1001=VECTOR('',#1663,1.);
#1002=VECTOR('',#1664,1.);
#1003=VECTOR('',#1665,1.);
#1004=VECTOR('',#1666,1.);
#1005=VECTOR('',#1669,1.);
#1006=VECTOR('',#1670,1.);
#1007=VECTOR('',#1671,1.);
#1008=VECTOR('',#1674,1.);
#1009=VECTOR('',#1675,1.);
#1010=VECTOR('',#1676,1.);
#1011=VECTOR('',#1677,1.);
#1012=VECTOR('',#1678,1.);
#1013=VECTOR('',#1679,1.);
#1014=VECTOR('',#1680,1.);
#1015=VECTOR('',#1681,1.);
#1016=VECTOR('',#1684,1.);
#1017=VECTOR('',#1685,1.);
#1018=VECTOR('',#1686,1.);
#1019=VECTOR('',#1687,1.);
#1020=VECTOR('',#1688,1.);
#1021=VECTOR('',#1689,1.);
#1022=VECTOR('',#1690,1.);
#1023=VECTOR('',#1697,1.);
#1024=VECTOR('',#1698,1.);
#1025=VECTOR('',#1699,1.);
#1026=VECTOR('',#1700,1.);
#1027=VECTOR('',#1701,1.);
#1028=VECTOR('',#1702,1.);
#1029=VECTOR('',#1703,1.);
#1030=VECTOR('',#1730,1.);
#1031=VECTOR('',#1731,1.);
#1032=VECTOR('',#1732,1.);
#1033=VECTOR('',#1733,1.);
#1034=VECTOR('',#1734,1.);
#1035=VECTOR('',#1735,1.);
#1036=VECTOR('',#1738,1.);
#1037=VECTOR('',#1739,1.);
#1038=VECTOR('',#1746,1.);
#1039=VECTOR('',#1747,1.);
#1040=VECTOR('',#1750,1.);
#1041=VECTOR('',#1751,1.);
#1042=VECTOR('',#1754,1.);
#1043=VECTOR('',#1755,1.);
#1044=VECTOR('',#1756,1.);
#1045=VECTOR('',#1765,1.);
#1046=VECTOR('',#1766,1.);
#1047=VECTOR('',#1769,1.);
#1048=VECTOR('',#1770,1.);
#1049=VECTOR('',#1771,1.);
#1050=VECTOR('',#1772,1.);
#1051=VECTOR('',#1773,1.);
#1052=VECTOR('',#1780,1.);
#1053=VECTOR('',#1781,1.);
#1054=VECTOR('',#1784,1.);
#1055=VECTOR('',#1787,1.);
#1056=VECTOR('',#1792,1.);
#1057=VECTOR('',#1793,1.);
#1058=VECTOR('',#1796,1.);
#1059=VECTOR('',#1799,1.);
#1060=EDGE_LOOP('',(#44,#45,#46,#47,#48,#49));
#1061=EDGE_LOOP('',(#50,#51,#52,#53,#54,#55));
#1062=EDGE_LOOP('',(#56,#57,#58,#59,#60,#61));
#1063=EDGE_LOOP('',(#62,#63,#64,#65));
#1064=EDGE_LOOP('',(#66,#67,#68,#69,#70,#71));
#1065=EDGE_LOOP('',(#72,#73,#74,#75));
#1066=EDGE_LOOP('',(#76,#77,#78,#79));
#1067=EDGE_LOOP('',(#80,#81,#82,#83));
#1068=EDGE_LOOP('',(#84,#85,#86,#87));
#1069=EDGE_LOOP('',(#88,#89,#90,#91));
#1070=EDGE_LOOP('',(#92,#93,#94,#95));
#1071=EDGE_LOOP('',(#96,#97,#98,#99));
#1072=EDGE_LOOP('',(#100,#101,#102,#103));
#1073=EDGE_LOOP('',(#104,#105,#106,#107));
#1074=EDGE_LOOP('',(#108));
#1075=EDGE_LOOP('',(#109));
#1076=EDGE_LOOP('',(#110));
#1077=EDGE_LOOP('',(#111));
#1078=EDGE_LOOP('',(#112));
#1079=EDGE_LOOP('',(#113));
#1080=EDGE_LOOP('',(#114));
#1081=EDGE_LOOP('',(#115));
#1082=EDGE_LOOP('',(#116,#117,#118,#119));
#1083=EDGE_LOOP('',(#120,#121,#122,#123));
#1084=EDGE_LOOP('',(#124,#125,#126,#127));
#1085=EDGE_LOOP('',(#128,#129,#130,#131));
#1086=EDGE_LOOP('',(#132,#133,#134,#135,#136,#137));
#1087=EDGE_LOOP('',(#138,#139,#140,#141));
#1088=EDGE_LOOP('',(#142,#143,#144,#145,#146,#147));
#1089=EDGE_LOOP('',(#148,#149,#150,#151));
#1090=EDGE_LOOP('',(#152,#153,#154,#155));
#1091=EDGE_LOOP('',(#156,#157,#158,#159));
#1092=EDGE_LOOP('',(#160,#161,#162,#163));
#1093=EDGE_LOOP('',(#164,#165,#166,#167));
#1094=EDGE_LOOP('',(#168,#169,#170,#171,#172,#173));
#1095=EDGE_LOOP('',(#174,#175,#176,#177));
#1096=EDGE_LOOP('',(#178,#179,#180,#181,#182,#183,#184,#185));
#1097=EDGE_LOOP('',(#186,#187,#188,#189,#190,#191));
#1098=EDGE_LOOP('',(#192,#193,#194,#195));
#1099=EDGE_LOOP('',(#196,#197,#198,#199));
#1100=EDGE_LOOP('',(#200,#201,#202,#203));
#1101=EDGE_LOOP('',(#204,#205,#206,#207));
#1102=EDGE_LOOP('',(#208,#209,#210,#211));
#1103=EDGE_LOOP('',(#212));
#1104=EDGE_LOOP('',(#213));
#1105=EDGE_LOOP('',(#214,#215,#216,#217));
#1106=EDGE_LOOP('',(#218,#219,#220,#221));
#1107=EDGE_LOOP('',(#222));
#1108=EDGE_LOOP('',(#223));
#1109=EDGE_LOOP('',(#224));
#1110=EDGE_LOOP('',(#225));
#1111=EDGE_LOOP('',(#226));
#1112=EDGE_LOOP('',(#227));
#1113=EDGE_LOOP('',(#228));
#1114=EDGE_LOOP('',(#229));
#1115=EDGE_LOOP('',(#230,#231,#232,#233));
#1116=EDGE_LOOP('',(#234,#235,#236,#237));
#1117=EDGE_LOOP('',(#238,#239,#240,#241));
#1118=EDGE_LOOP('',(#242,#243,#244,#245));
#1119=EDGE_LOOP('',(#246));
#1120=EDGE_LOOP('',(#247));
#1121=EDGE_LOOP('',(#248));
#1122=EDGE_LOOP('',(#249));
#1123=EDGE_LOOP('',(#250,#251,#252,#253,#254,#255,#256,#257,#258,#259,#260,
#261,#262,#263,#264,#265));
#1124=EDGE_LOOP('',(#266,#267,#268,#269));
#1125=EDGE_LOOP('',(#270));
#1126=EDGE_LOOP('',(#271));
#1127=EDGE_LOOP('',(#272));
#1128=EDGE_LOOP('',(#273));
#1129=EDGE_LOOP('',(#274,#275,#276,#277,#278,#279,#280,#281,#282,#283,#284,
#285,#286,#287,#288,#289));
#1130=EDGE_LOOP('',(#290));
#1131=EDGE_LOOP('',(#291));
#1132=EDGE_LOOP('',(#292,#293,#294,#295,#296,#297,#298,#299,#300,#301));
#1133=EDGE_LOOP('',(#302));
#1134=EDGE_LOOP('',(#303));
#1135=EDGE_LOOP('',(#304,#305,#306,#307,#308,#309,#310,#311,#312,#313));
#1136=EDGE_LOOP('',(#314,#315,#316,#317,#318,#319,#320,#321));
#1137=EDGE_LOOP('',(#322,#323,#324,#325,#326,#327));
#1138=EDGE_LOOP('',(#328,#329,#330,#331,#332,#333));
#1139=EDGE_LOOP('',(#334,#335,#336,#337,#338,#339,#340,#341));
#1140=EDGE_LOOP('',(#342));
#1141=EDGE_LOOP('',(#343));
#1142=EDGE_LOOP('',(#344,#345,#346,#347,#348,#349,#350,#351,#352,#353));
#1143=EDGE_LOOP('',(#354));
#1144=EDGE_LOOP('',(#355));
#1145=EDGE_LOOP('',(#356,#357,#358,#359,#360,#361,#362,#363,#364,#365));
#1146=EDGE_LOOP('',(#366,#367,#368,#369));
#1147=EDGE_LOOP('',(#370,#371,#372,#373,#374,#375,#376,#377));
#1148=EDGE_LOOP('',(#378,#379,#380,#381,#382,#383,#384,#385));
#1149=EDGE_LOOP('',(#386,#387,#388,#389));
#1150=EDGE_LOOP('',(#390,#391,#392,#393));
#1151=EDGE_LOOP('',(#394,#395,#396,#397));
#1152=EDGE_LOOP('',(#398,#399,#400,#401));
#1153=EDGE_LOOP('',(#402,#403,#404,#405));
#1154=EDGE_LOOP('',(#406));
#1155=EDGE_LOOP('',(#407,#408,#409,#410));
#1156=EDGE_LOOP('',(#411));
#1157=EDGE_LOOP('',(#412,#413,#414,#415));
#1158=FACE_BOUND('',#1060,.T.);
#1159=FACE_BOUND('',#1061,.T.);
#1160=FACE_BOUND('',#1062,.T.);
#1161=FACE_BOUND('',#1063,.T.);
#1162=FACE_BOUND('',#1064,.T.);
#1163=FACE_BOUND('',#1065,.T.);
#1164=FACE_BOUND('',#1066,.T.);
#1165=FACE_BOUND('',#1067,.T.);
#1166=FACE_BOUND('',#1068,.T.);
#1167=FACE_BOUND('',#1069,.T.);
#1168=FACE_BOUND('',#1070,.T.);
#1169=FACE_BOUND('',#1071,.T.);
#1170=FACE_BOUND('',#1072,.T.);
#1171=FACE_BOUND('',#1073,.T.);
#1172=FACE_BOUND('',#1074,.T.);
#1173=FACE_BOUND('',#1075,.T.);
#1174=FACE_BOUND('',#1076,.T.);
#1175=FACE_BOUND('',#1077,.T.);
#1176=FACE_BOUND('',#1078,.T.);
#1177=FACE_BOUND('',#1079,.T.);
#1178=FACE_BOUND('',#1080,.T.);
#1179=FACE_BOUND('',#1081,.T.);
#1180=FACE_BOUND('',#1082,.T.);
#1181=FACE_BOUND('',#1083,.T.);
#1182=FACE_BOUND('',#1084,.T.);
#1183=FACE_BOUND('',#1085,.T.);
#1184=FACE_BOUND('',#1086,.T.);
#1185=FACE_BOUND('',#1087,.T.);
#1186=FACE_BOUND('',#1088,.T.);
#1187=FACE_BOUND('',#1089,.T.);
#1188=FACE_BOUND('',#1090,.T.);
#1189=FACE_BOUND('',#1091,.T.);
#1190=FACE_BOUND('',#1092,.T.);
#1191=FACE_BOUND('',#1093,.T.);
#1192=FACE_BOUND('',#1094,.T.);
#1193=FACE_BOUND('',#1095,.T.);
#1194=FACE_BOUND('',#1096,.T.);
#1195=FACE_BOUND('',#1097,.T.);
#1196=FACE_BOUND('',#1098,.T.);
#1197=FACE_BOUND('',#1099,.T.);
#1198=FACE_BOUND('',#1100,.T.);
#1199=FACE_BOUND('',#1101,.T.);
#1200=FACE_BOUND('',#1102,.T.);
#1201=FACE_BOUND('',#1103,.T.);
#1202=FACE_BOUND('',#1104,.T.);
#1203=FACE_BOUND('',#1105,.T.);
#1204=FACE_BOUND('',#1106,.T.);
#1205=FACE_BOUND('',#1107,.T.);
#1206=FACE_BOUND('',#1108,.T.);
#1207=FACE_BOUND('',#1109,.T.);
#1208=FACE_BOUND('',#1110,.T.);
#1209=FACE_BOUND('',#1111,.T.);
#1210=FACE_BOUND('',#1112,.T.);
#1211=FACE_BOUND('',#1113,.T.);
#1212=FACE_BOUND('',#1114,.T.);
#1213=FACE_BOUND('',#1115,.T.);
#1214=FACE_BOUND('',#1116,.T.);
#1215=FACE_BOUND('',#1117,.T.);
#1216=FACE_BOUND('',#1118,.T.);
#1217=FACE_BOUND('',#1119,.T.);
#1218=FACE_BOUND('',#1120,.T.);
#1219=FACE_BOUND('',#1121,.T.);
#1220=FACE_BOUND('',#1122,.T.);
#1221=FACE_BOUND('',#1123,.T.);
#1222=FACE_BOUND('',#1124,.T.);
#1223=FACE_BOUND('',#1125,.T.);
#1224=FACE_BOUND('',#1126,.T.);
#1225=FACE_BOUND('',#1127,.T.);
#1226=FACE_BOUND('',#1128,.T.);
#1227=FACE_BOUND('',#1129,.T.);
#1228=FACE_BOUND('',#1130,.T.);
#1229=FACE_BOUND('',#1131,.T.);
#1230=FACE_BOUND('',#1132,.T.);
#1231=FACE_BOUND('',#1133,.T.);
#1232=FACE_BOUND('',#1134,.T.);
#1233=FACE_BOUND('',#1135,.T.);
#1234=FACE_BOUND('',#1136,.T.);
#1235=FACE_BOUND('',#1137,.T.);
#1236=FACE_BOUND('',#1138,.T.);
#1237=FACE_BOUND('',#1139,.T.);
#1238=FACE_BOUND('',#1140,.T.);
#1239=FACE_BOUND('',#1141,.T.);
#1240=FACE_BOUND('',#1142,.T.);
#1241=FACE_BOUND('',#1143,.T.);
#1242=FACE_BOUND('',#1144,.T.);
#1243=FACE_BOUND('',#1145,.T.);
#1244=FACE_BOUND('',#1146,.T.);
#1245=FACE_BOUND('',#1147,.T.);
#1246=FACE_BOUND('',#1148,.T.);
#1247=FACE_BOUND('',#1149,.T.);
#1248=FACE_BOUND('',#1150,.T.);
#1249=FACE_BOUND('',#1151,.T.);
#1250=FACE_BOUND('',#1152,.T.);
#1251=FACE_BOUND('',#1153,.T.);
#1252=FACE_BOUND('',#1154,.T.);
#1253=FACE_BOUND('',#1155,.T.);
#1254=FACE_BOUND('',#1156,.T.);
#1255=FACE_BOUND('',#1157,.T.);
#1256=PLANE('',#1385);
#1257=PLANE('',#1386);
#1258=PLANE('',#1387);
#1259=PLANE('',#1388);
#1260=PLANE('',#1389);
#1261=PLANE('',#1390);
#1262=PLANE('',#1391);
#1263=PLANE('',#1392);
#1264=PLANE('',#1393);
#1265=PLANE('',#1394);
#1266=PLANE('',#1395);
#1267=PLANE('',#1396);
#1268=PLANE('',#1397);
#1269=PLANE('',#1398);
#1270=PLANE('',#1411);
#1271=PLANE('',#1412);
#1272=PLANE('',#1413);
#1273=PLANE('',#1414);
#1274=PLANE('',#1415);
#1275=PLANE('',#1416);
#1276=PLANE('',#1417);
#1277=PLANE('',#1418);
#1278=PLANE('',#1419);
#1279=PLANE('',#1420);
#1280=PLANE('',#1421);
#1281=PLANE('',#1422);
#1282=PLANE('',#1423);
#1283=PLANE('',#1424);
#1284=PLANE('',#1427);
#1285=PLANE('',#1428);
#1286=PLANE('',#1429);
#1287=PLANE('',#1430);
#1288=PLANE('',#1431);
#1289=PLANE('',#1446);
#1290=PLANE('',#1447);
#1291=PLANE('',#1448);
#1292=PLANE('',#1449);
#1293=PLANE('',#1450);
#1294=PLANE('',#1451);
#1295=PLANE('',#1452);
#1296=PLANE('',#1453);
#1297=PLANE('',#1455);
#1298=PLANE('',#1457);
#1299=PLANE('',#1458);
#1300=PLANE('',#1459);
#1301=PLANE('',#1460);
#1302=PLANE('',#1461);
#1303=PLANE('',#1462);
#1304=PLANE('',#1463);
#1305=PLANE('',#1464);
#1306=PLANE('',#1465);
#1307=PLANE('',#1466);
#1308=PLANE('',#1467);
#1309=ADVANCED_FACE('',(#1158),#1256,.F.);
#1310=ADVANCED_FACE('',(#1159),#1257,.F.);
#1311=ADVANCED_FACE('',(#1160),#1258,.F.);
#1312=ADVANCED_FACE('',(#1161),#1259,.F.);
#1313=ADVANCED_FACE('',(#1162),#1260,.F.);
#1314=ADVANCED_FACE('',(#1163),#1261,.F.);
#1315=ADVANCED_FACE('',(#1164),#1262,.F.);
#1316=ADVANCED_FACE('',(#1165),#1263,.F.);
#1317=ADVANCED_FACE('',(#1166),#1264,.F.);
#1318=ADVANCED_FACE('',(#1167),#1265,.F.);
#1319=ADVANCED_FACE('',(#1168),#1266,.F.);
#1320=ADVANCED_FACE('',(#1169),#1267,.F.);
#1321=ADVANCED_FACE('',(#1170),#1268,.F.);
#1322=ADVANCED_FACE('',(#1171),#1269,.F.);
#1323=ADVANCED_FACE('',(#1172,#1173),#34,.F.);
#1324=ADVANCED_FACE('',(#1174,#1175),#35,.F.);
#1325=ADVANCED_FACE('',(#1176,#1177),#36,.F.);
#1326=ADVANCED_FACE('',(#1178,#1179),#37,.F.);
#1327=ADVANCED_FACE('',(#1180),#1270,.F.);
#1328=ADVANCED_FACE('',(#1181),#1271,.F.);
#1329=ADVANCED_FACE('',(#1182),#1272,.F.);
#1330=ADVANCED_FACE('',(#1183),#1273,.F.);
#1331=ADVANCED_FACE('',(#1184),#1274,.F.);
#1332=ADVANCED_FACE('',(#1185),#1275,.F.);
#1333=ADVANCED_FACE('',(#1186),#1276,.F.);
#1334=ADVANCED_FACE('',(#1187),#1277,.F.);
#1335=ADVANCED_FACE('',(#1188),#1278,.F.);
#1336=ADVANCED_FACE('',(#1189),#1279,.F.);
#1337=ADVANCED_FACE('',(#1190),#1280,.F.);
#1338=ADVANCED_FACE('',(#1191),#1281,.F.);
#1339=ADVANCED_FACE('',(#1192),#1282,.F.);
#1340=ADVANCED_FACE('',(#1193,#1194),#1283,.F.);
#1341=ADVANCED_FACE('',(#1195),#1284,.F.);
#1342=ADVANCED_FACE('',(#1196),#1285,.F.);
#1343=ADVANCED_FACE('',(#1197,#1198),#1286,.T.);
#1344=ADVANCED_FACE('',(#1199,#1200),#1287,.F.);
#1345=ADVANCED_FACE('',(#1201,#1202,#1203,#1204),#1288,.F.);
#1346=ADVANCED_FACE('',(#1205,#1206),#38,.F.);
#1347=ADVANCED_FACE('',(#1207,#1208),#39,.F.);
#1348=ADVANCED_FACE('',(#1209,#1210),#40,.F.);
#1349=ADVANCED_FACE('',(#1211,#1212),#41,.F.);
#1350=ADVANCED_FACE('',(#1213,#1214),#1289,.T.);
#1351=ADVANCED_FACE('',(#1215),#1290,.F.);
#1352=ADVANCED_FACE('',(#1216,#1217,#1218,#1219,#1220,#1221),#1291,.T.);
#1353=ADVANCED_FACE('',(#1222,#1223,#1224,#1225,#1226,#1227),#1292,.F.);
#1354=ADVANCED_FACE('',(#1228,#1229,#1230),#1293,.T.);
#1355=ADVANCED_FACE('',(#1231,#1232,#1233),#1294,.F.);
#1356=ADVANCED_FACE('',(#1234),#1295,.F.);
#1357=ADVANCED_FACE('',(#1235),#1296,.T.);
#1358=ADVANCED_FACE('',(#1236),#1297,.T.);
#1359=ADVANCED_FACE('',(#1237),#1298,.F.);
#1360=ADVANCED_FACE('',(#1238,#1239,#1240),#1299,.F.);
#1361=ADVANCED_FACE('',(#1241,#1242,#1243),#1300,.T.);
#1362=ADVANCED_FACE('',(#1244),#1301,.F.);
#1363=ADVANCED_FACE('',(#1245),#1302,.T.);
#1364=ADVANCED_FACE('',(#1246),#1303,.F.);
#1365=ADVANCED_FACE('',(#1247),#1304,.T.);
#1366=ADVANCED_FACE('',(#1248),#1305,.T.);
#1367=ADVANCED_FACE('',(#1249),#1306,.F.);
#1368=ADVANCED_FACE('',(#1250),#1307,.T.);
#1369=ADVANCED_FACE('',(#1251),#1308,.F.);
#1370=ADVANCED_FACE('',(#1252,#1253),#42,.F.);
#1371=ADVANCED_FACE('',(#1254,#1255),#43,.F.);
#1372=CLOSED_SHELL('',(#1309,#1310,#1311,#1312,#1313,#1314,#1315,#1316,
#1317,#1318,#1319,#1320,#1321,#1322,#1323,#1324,#1325,#1326,#1327,#1328,
#1329,#1330,#1331,#1332,#1333,#1334,#1335,#1336,#1337,#1338,#1339,#1340,
#1341,#1342,#1343,#1344,#1345,#1346,#1347,#1348,#1349,#1350,#1351,#1352,
#1353,#1354,#1355,#1356,#1357,#1358,#1359,#1360,#1361,#1362,#1363,#1364,
#1365,#1366,#1367,#1368,#1369,#1370,#1371));
#1373=STYLED_ITEM('',(#1374),#1381);
#1374=PRESENTATION_STYLE_ASSIGNMENT((#1375));
#1375=SURFACE_STYLE_USAGE(.BOTH.,#1376);
#1376=SURFACE_SIDE_STYLE('',(#1377));
#1377=SURFACE_STYLE_FILL_AREA(#1378);
#1378=FILL_AREA_STYLE('',(#1379));
#1379=FILL_AREA_STYLE_COLOUR('',#1380);
#1380=COLOUR_RGB('',0.231372549019608,0.380392156862745,0.705882352941177);
#1381=MANIFOLD_SOLID_BREP('Part 2',#1372);
#1382=SHAPE_DEFINITION_REPRESENTATION(#2192,#1383);
#1383=SHAPE_REPRESENTATION('Part 2',(#1384),#2187);
#1384=AXIS2_PLACEMENT_3D('',#1806,#1470,#1471);
#1385=AXIS2_PLACEMENT_3D('',#1807,#1472,#1473);
#1386=AXIS2_PLACEMENT_3D('',#1820,#1480,#1481);
#1387=AXIS2_PLACEMENT_3D('',#1833,#1488,#1489);
#1388=AXIS2_PLACEMENT_3D('',#1846,#1496,#1497);
#1389=AXIS2_PLACEMENT_3D('',#1852,#1501,#1502);
#1390=AXIS2_PLACEMENT_3D('',#1862,#1508,#1509);
#1391=AXIS2_PLACEMENT_3D('',#1871,#1514,#1515);
#1392=AXIS2_PLACEMENT_3D('',#1877,#1519,#1520);
#1393=AXIS2_PLACEMENT_3D('',#1880,#1523,#1524);
#1394=AXIS2_PLACEMENT_3D('',#1886,#1528,#1529);
#1395=AXIS2_PLACEMENT_3D('',#1892,#1533,#1534);
#1396=AXIS2_PLACEMENT_3D('',#1898,#1538,#1539);
#1397=AXIS2_PLACEMENT_3D('',#1904,#1543,#1544);
#1398=AXIS2_PLACEMENT_3D('',#1910,#1548,#1549);
#1399=AXIS2_PLACEMENT_3D('',#1916,#1553,#1554);
#1400=AXIS2_PLACEMENT_3D('',#1917,#1555,#1556);
#1401=AXIS2_PLACEMENT_3D('',#1919,#1557,#1558);
#1402=AXIS2_PLACEMENT_3D('',#1921,#1559,#1560);
#1403=AXIS2_PLACEMENT_3D('',#1922,#1561,#1562);
#1404=AXIS2_PLACEMENT_3D('',#1924,#1563,#1564);
#1405=AXIS2_PLACEMENT_3D('',#1926,#1565,#1566);
#1406=AXIS2_PLACEMENT_3D('',#1927,#1567,#1568);
#1407=AXIS2_PLACEMENT_3D('',#1929,#1569,#1570);
#1408=AXIS2_PLACEMENT_3D('',#1931,#1571,#1572);
#1409=AXIS2_PLACEMENT_3D('',#1932,#1573,#1574);
#1410=AXIS2_PLACEMENT_3D('',#1934,#1575,#1576);
#1411=AXIS2_PLACEMENT_3D('',#1936,#1577,#1578);
#1412=AXIS2_PLACEMENT_3D('',#1939,#1581,#1582);
#1413=AXIS2_PLACEMENT_3D('',#1948,#1587,#1588);
#1414=AXIS2_PLACEMENT_3D('',#1954,#1592,#1593);
#1415=AXIS2_PLACEMENT_3D('',#1960,#1597,#1598);
#1416=AXIS2_PLACEMENT_3D('',#1970,#1604,#1605);
#1417=AXIS2_PLACEMENT_3D('',#1976,#1609,#1610);
#1418=AXIS2_PLACEMENT_3D('',#1986,#1616,#1617);
#1419=AXIS2_PLACEMENT_3D('',#1992,#1621,#1622);
#1420=AXIS2_PLACEMENT_3D('',#1998,#1626,#1627);
#1421=AXIS2_PLACEMENT_3D('',#2004,#1631,#1632);
#1422=AXIS2_PLACEMENT_3D('',#2010,#1636,#1637);
#1423=AXIS2_PLACEMENT_3D('',#2013,#1640,#1641);
#1424=AXIS2_PLACEMENT_3D('',#2023,#1647,#1648);
#1425=AXIS2_PLACEMENT_3D('',#2032,#1653,#1654);
#1426=AXIS2_PLACEMENT_3D('',#2037,#1657,#1658);
#1427=AXIS2_PLACEMENT_3D('',#2039,#1660,#1661);
#1428=AXIS2_PLACEMENT_3D('',#2049,#1667,#1668);
#1429=AXIS2_PLACEMENT_3D('',#2055,#1672,#1673);
#1430=AXIS2_PLACEMENT_3D('',#2072,#1682,#1683);
#1431=AXIS2_PLACEMENT_3D('',#2086,#1691,#1692);
#1432=AXIS2_PLACEMENT_3D('',#2087,#1693,#1694);
#1433=AXIS2_PLACEMENT_3D('',#2089,#1695,#1696);
#1434=AXIS2_PLACEMENT_3D('',#2104,#1704,#1705);
#1435=AXIS2_PLACEMENT_3D('',#2105,#1706,#1707);
#1436=AXIS2_PLACEMENT_3D('',#2107,#1708,#1709);
#1437=AXIS2_PLACEMENT_3D('',#2109,#1710,#1711);
#1438=AXIS2_PLACEMENT_3D('',#2110,#1712,#1713);
#1439=AXIS2_PLACEMENT_3D('',#2112,#1714,#1715);
#1440=AXIS2_PLACEMENT_3D('',#2114,#1716,#1717);
#1441=AXIS2_PLACEMENT_3D('',#2115,#1718,#1719);
#1442=AXIS2_PLACEMENT_3D('',#2117,#1720,#1721);
#1443=AXIS2_PLACEMENT_3D('',#2119,#1722,#1723);
#1444=AXIS2_PLACEMENT_3D('',#2120,#1724,#1725);
#1445=AXIS2_PLACEMENT_3D('',#2122,#1726,#1727);
#1446=AXIS2_PLACEMENT_3D('',#2124,#1728,#1729);
#1447=AXIS2_PLACEMENT_3D('',#2135,#1736,#1737);
#1448=AXIS2_PLACEMENT_3D('',#2138,#1740,#1741);
#1449=AXIS2_PLACEMENT_3D('',#2139,#1742,#1743);
#1450=AXIS2_PLACEMENT_3D('',#2140,#1744,#1745);
#1451=AXIS2_PLACEMENT_3D('',#2143,#1748,#1749);
#1452=AXIS2_PLACEMENT_3D('',#2146,#1752,#1753);
#1453=AXIS2_PLACEMENT_3D('',#2152,#1757,#1758);
#1454=AXIS2_PLACEMENT_3D('',#2153,#1759,#1760);
#1455=AXIS2_PLACEMENT_3D('',#2154,#1761,#1762);
#1456=AXIS2_PLACEMENT_3D('',#2155,#1763,#1764);
#1457=AXIS2_PLACEMENT_3D('',#2158,#1767,#1768);
#1458=AXIS2_PLACEMENT_3D('',#2166,#1774,#1775);
#1459=AXIS2_PLACEMENT_3D('',#2167,#1776,#1777);
#1460=AXIS2_PLACEMENT_3D('',#2168,#1778,#1779);
#1461=AXIS2_PLACEMENT_3D('',#2171,#1782,#1783);
#1462=AXIS2_PLACEMENT_3D('',#2173,#1785,#1786);
#1463=AXIS2_PLACEMENT_3D('',#2175,#1788,#1789);
#1464=AXIS2_PLACEMENT_3D('',#2176,#1790,#1791);
#1465=AXIS2_PLACEMENT_3D('',#2179,#1794,#1795);
#1466=AXIS2_PLACEMENT_3D('',#2181,#1797,#1798);
#1467=AXIS2_PLACEMENT_3D('',#2183,#1800,#1801);
#1468=AXIS2_PLACEMENT_3D('',#2184,#1802,#1803);
#1469=AXIS2_PLACEMENT_3D('',#2185,#1804,#1805);
#1470=DIRECTION('',(0.,0.,1.));
#1471=DIRECTION('',(1.,0.,0.));
#1472=DIRECTION('',(1.,0.,0.));
#1473=DIRECTION('',(0.,0.,-1.));
#1474=DIRECTION('',(0.,0.,1.));
#1475=DIRECTION('',(0.,-1.,0.));
#1476=DIRECTION('',(0.,0.,-1.));
#1477=DIRECTION('',(0.,-1.,0.));
#1478=DIRECTION('',(0.,0.,-1.));
#1479=DIRECTION('',(0.,-1.,0.));
#1480=DIRECTION('',(-1.,0.,0.));
#1481=DIRECTION('',(0.,0.,1.));
#1482=DIRECTION('',(0.,0.,-1.));
#1483=DIRECTION('',(0.,-1.,0.));
#1484=DIRECTION('',(0.,0.,-1.));
#1485=DIRECTION('',(0.,1.,0.));
#1486=DIRECTION('',(0.,0.,-1.));
#1487=DIRECTION('',(0.,1.,0.));
#1488=DIRECTION('',(-1.,0.,0.));
#1489=DIRECTION('',(0.,0.,1.));
#1490=DIRECTION('',(0.,1.,0.));
#1491=DIRECTION('',(0.,0.,-1.));
#1492=DIRECTION('',(0.,1.,0.));
#1493=DIRECTION('',(0.,0.,-1.));
#1494=DIRECTION('',(0.,1.,0.));
#1495=DIRECTION('',(0.,0.,-1.));
#1496=DIRECTION('',(0.,1.,0.));
#1497=DIRECTION('',(0.,0.,1.));
#1498=DIRECTION('',(1.,0.,0.));
#1499=DIRECTION('',(1.,0.,0.));
#1500=DIRECTION('',(0.,0.,-1.));
#1501=DIRECTION('',(1.,0.,0.));
#1502=DIRECTION('',(0.,0.,-1.));
#1503=DIRECTION('',(0.,-1.,0.));
#1504=DIRECTION('',(0.,-1.,0.));
#1505=DIRECTION('',(0.,0.,-1.));
#1506=DIRECTION('',(0.,-1.,0.));
#1507=DIRECTION('',(0.,0.,1.));
#1508=DIRECTION('',(0.0119653856628953,-0.999928412210563,0.));
#1509=DIRECTION('',(0.999928412210563,0.0119653856628953,0.));
#1510=DIRECTION('',(-0.999928412210563,-0.0119653856628953,0.));
#1511=DIRECTION('',(0.,0.,-1.));
#1512=DIRECTION('',(-0.999928412210563,-0.0119653856628953,0.));
#1513=DIRECTION('',(0.,0.,-1.));
#1514=DIRECTION('',(-1.,0.,0.));
#1515=DIRECTION('',(0.,0.,1.));
#1516=DIRECTION('',(0.,1.,0.));
#1517=DIRECTION('',(0.,1.,0.));
#1518=DIRECTION('',(0.,0.,-1.));
#1519=DIRECTION('',(0.,1.,0.));
#1520=DIRECTION('',(0.,0.,1.));
#1521=DIRECTION('',(1.,0.,0.));
#1522=DIRECTION('',(1.,0.,0.));
#1523=DIRECTION('',(0.,1.,0.));
#1524=DIRECTION('',(0.,0.,1.));
#1525=DIRECTION('',(1.,0.,0.));
#1526=DIRECTION('',(1.,0.,0.));
#1527=DIRECTION('',(0.,0.,-1.));
#1528=DIRECTION('',(1.,0.,0.));
#1529=DIRECTION('',(0.,0.,-1.));
#1530=DIRECTION('',(0.,-1.,0.));
#1531=DIRECTION('',(0.,-1.,0.));
#1532=DIRECTION('',(0.,0.,-1.));
#1533=DIRECTION('',(0.,-1.,0.));
#1534=DIRECTION('',(0.,0.,-1.));
#1535=DIRECTION('',(-1.,0.,0.));
#1536=DIRECTION('',(-1.,0.,0.));
#1537=DIRECTION('',(0.,0.,-1.));
#1538=DIRECTION('',(1.,0.,0.));
#1539=DIRECTION('',(0.,0.,-1.));
#1540=DIRECTION('',(0.,-1.,0.));
#1541=DIRECTION('',(0.,-1.,0.));
#1542=DIRECTION('',(0.,0.,-1.));
#1543=DIRECTION('',(0.,1.,0.));
#1544=DIRECTION('',(0.,0.,1.));
#1545=DIRECTION('',(1.,0.,0.));
#1546=DIRECTION('',(1.,0.,0.));
#1547=DIRECTION('',(0.,0.,-1.));
#1548=DIRECTION('',(0.,1.,0.));
#1549=DIRECTION('',(0.,0.,1.));
#1550=DIRECTION('',(1.,0.,0.));
#1551=DIRECTION('',(1.,0.,0.));
#1552=DIRECTION('',(0.,0.,-1.));
#1553=DIRECTION('',(0.,0.,-1.));
#1554=DIRECTION('',(-1.,0.,0.));
#1555=DIRECTION('',(0.,0.,1.));
#1556=DIRECTION('',(1.,0.,0.));
#1557=DIRECTION('',(0.,0.,1.));
#1558=DIRECTION('',(1.,0.,0.));
#1559=DIRECTION('',(0.,0.,-1.));
#1560=DIRECTION('',(-1.,0.,0.));
#1561=DIRECTION('',(0.,0.,1.));
#1562=DIRECTION('',(1.,0.,0.));
#1563=DIRECTION('',(0.,0.,1.));
#1564=DIRECTION('',(1.,0.,0.));
#1565=DIRECTION('',(0.,0.,-1.));
#1566=DIRECTION('',(-1.,0.,0.));
#1567=DIRECTION('',(0.,0.,1.));
#1568=DIRECTION('',(1.,0.,0.));
#1569=DIRECTION('',(0.,0.,1.));
#1570=DIRECTION('',(1.,0.,0.));
#1571=DIRECTION('',(0.,0.,-1.));
#1572=DIRECTION('',(-1.,0.,0.));
#1573=DIRECTION('',(0.,0.,1.));
#1574=DIRECTION('',(1.,0.,0.));
#1575=DIRECTION('',(0.,0.,1.));
#1576=DIRECTION('',(1.,0.,0.));
#1577=DIRECTION('',(-1.,0.,0.));
#1578=DIRECTION('',(0.,0.,1.));
#1579=DIRECTION('',(0.,1.,0.));
#1580=DIRECTION('',(0.,1.,0.));
#1581=DIRECTION('',(0.0119653856628953,-0.999928412210563,0.));
#1582=DIRECTION('',(0.999928412210563,0.0119653856628953,0.));
#1583=DIRECTION('',(0.,0.,-1.));
#1584=DIRECTION('',(-0.999928412210563,-0.0119653856628953,0.));
#1585=DIRECTION('',(0.,0.,-1.));
#1586=DIRECTION('',(-0.999928412210563,-0.0119653856628953,0.));
#1587=DIRECTION('',(-1.,0.,0.));
#1588=DIRECTION('',(0.,0.,1.));
#1589=DIRECTION('',(0.,1.,0.));
#1590=DIRECTION('',(0.,0.,-1.));
#1591=DIRECTION('',(0.,1.,0.));
#1592=DIRECTION('',(0.,1.,0.));
#1593=DIRECTION('',(0.,0.,1.));
#1594=DIRECTION('',(1.,0.,0.));
#1595=DIRECTION('',(0.,0.,-1.));
#1596=DIRECTION('',(1.,0.,0.));
#1597=DIRECTION('',(-1.,0.,0.));
#1598=DIRECTION('',(0.,0.,1.));
#1599=DIRECTION('',(0.,0.,-1.));
#1600=DIRECTION('',(0.,1.,0.));
#1601=DIRECTION('',(0.,0.,-1.));
#1602=DIRECTION('',(0.,1.,0.));
#1603=DIRECTION('',(0.,1.,0.));
#1604=DIRECTION('',(0.,1.,0.));
#1605=DIRECTION('',(0.,0.,1.));
#1606=DIRECTION('',(1.,0.,0.));
#1607=DIRECTION('',(0.,0.,-1.));
#1608=DIRECTION('',(1.,0.,0.));
#1609=DIRECTION('',(1.,0.,0.));
#1610=DIRECTION('',(0.,0.,-1.));
#1611=DIRECTION('',(0.,-1.,0.));
#1612=DIRECTION('',(0.,0.,1.));
#1613=DIRECTION('',(0.,-1.,0.));
#1614=DIRECTION('',(0.,0.,-1.));
#1615=DIRECTION('',(0.,-1.,0.));
#1616=DIRECTION('',(0.,1.,0.));
#1617=DIRECTION('',(0.,0.,1.));
#1618=DIRECTION('',(1.,0.,0.));
#1619=DIRECTION('',(0.,0.,-1.));
#1620=DIRECTION('',(1.,0.,0.));
#1621=DIRECTION('',(1.,0.,0.));
#1622=DIRECTION('',(0.,0.,-1.));
#1623=DIRECTION('',(0.,-1.,0.));
#1624=DIRECTION('',(0.,0.,-1.));
#1625=DIRECTION('',(0.,-1.,0.));
#1626=DIRECTION('',(0.,-1.,0.));
#1627=DIRECTION('',(0.,0.,-1.));
#1628=DIRECTION('',(-1.,0.,0.));
#1629=DIRECTION('',(0.,0.,-1.));
#1630=DIRECTION('',(-1.,0.,0.));
#1631=DIRECTION('',(1.,0.,0.));
#1632=DIRECTION('',(0.,0.,-1.));
#1633=DIRECTION('',(0.,-1.,0.));
#1634=DIRECTION('',(0.,0.,-1.));
#1635=DIRECTION('',(0.,-1.,0.));
#1636=DIRECTION('',(0.,1.,0.));
#1637=DIRECTION('',(0.,0.,1.));
#1638=DIRECTION('',(1.,0.,0.));
#1639=DIRECTION('',(1.,0.,0.));
#1640=DIRECTION('',(1.,0.,0.));
#1641=DIRECTION('',(0.,0.,-1.));
#1642=DIRECTION('',(0.,0.,-1.));
#1643=DIRECTION('',(0.,-1.,0.));
#1644=DIRECTION('',(0.,0.,1.));
#1645=DIRECTION('',(0.,-1.,0.));
#1646=DIRECTION('',(0.,-1.,0.));
#1647=DIRECTION('',(0.,-1.,0.));
#1648=DIRECTION('',(0.,0.,-1.));
#1649=DIRECTION('',(0.,0.,1.));
#1650=DIRECTION('',(-1.,0.,0.));
#1651=DIRECTION('',(0.,0.,1.));
#1652=DIRECTION('',(-1.,0.,0.));
#1653=DIRECTION('',(0.,-1.,0.));
#1654=DIRECTION('',(0.,0.,-1.));
#1655=DIRECTION('',(0.,0.,-1.));
#1656=DIRECTION('',(-1.,0.,0.));
#1657=DIRECTION('',(0.,-1.,0.));
#1658=DIRECTION('',(0.,0.,-1.));
#1659=DIRECTION('',(-1.,0.,0.));
#1660=DIRECTION('',(-1.,0.,0.));
#1661=DIRECTION('',(0.,0.,1.));
#1662=DIRECTION('',(0.,-1.,0.));
#1663=DIRECTION('',(0.,0.,-1.));
#1664=DIRECTION('',(0.,1.,0.));
#1665=DIRECTION('',(0.,0.,-1.));
#1666=DIRECTION('',(0.,1.,0.));
#1667=DIRECTION('',(0.,1.,0.));
#1668=DIRECTION('',(0.,0.,1.));
#1669=DIRECTION('',(1.,0.,0.));
#1670=DIRECTION('',(0.,0.,-1.));
#1671=DIRECTION('',(1.,0.,0.));
#1672=DIRECTION('',(0.,1.,0.));
#1673=DIRECTION('',(0.,0.,1.));
#1674=DIRECTION('',(1.,0.,0.));
#1675=DIRECTION('',(0.,0.,-1.));
#1676=DIRECTION('',(1.,0.,0.));
#1677=DIRECTION('',(0.,0.,-1.));
#1678=DIRECTION('',(1.,0.,0.));
#1679=DIRECTION('',(0.,0.,-1.));
#1680=DIRECTION('',(1.,0.,0.));
#1681=DIRECTION('',(0.,0.,-1.));
#1682=DIRECTION('',(1.,0.,0.));
#1683=DIRECTION('',(0.,0.,-1.));
#1684=DIRECTION('',(0.,0.,1.));
#1685=DIRECTION('',(0.,-1.,0.));
#1686=DIRECTION('',(0.,0.,1.));
#1687=DIRECTION('',(0.,-1.,0.));
#1688=DIRECTION('',(0.,-1.,0.));
#1689=DIRECTION('',(0.,0.,-1.));
#1690=DIRECTION('',(0.,-1.,0.));
#1691=DIRECTION('',(0.,1.,0.));
#1692=DIRECTION('',(0.,0.,1.));
#1693=DIRECTION('',(0.,-1.,0.));
#1694=DIRECTION('',(0.,0.,-1.));
#1695=DIRECTION('',(0.,-1.,0.));
#1696=DIRECTION('',(0.,0.,-1.));
#1697=DIRECTION('',(0.,0.,-1.));
#1698=DIRECTION('',(1.,0.,0.));
#1699=DIRECTION('',(0.,0.,-1.));
#1700=DIRECTION('',(1.,0.,0.));
#1701=DIRECTION('',(1.,0.,0.));
#1702=DIRECTION('',(0.,0.,-1.));
#1703=DIRECTION('',(1.,0.,0.));
#1704=DIRECTION('',(0.,0.,-1.));
#1705=DIRECTION('',(-1.,0.,0.));
#1706=DIRECTION('',(0.,0.,1.));
#1707=DIRECTION('',(1.,0.,0.));
#1708=DIRECTION('',(0.,0.,1.));
#1709=DIRECTION('',(1.,0.,0.));
#1710=DIRECTION('',(0.,0.,-1.));
#1711=DIRECTION('',(-1.,0.,0.));
#1712=DIRECTION('',(0.,0.,1.));
#1713=DIRECTION('',(1.,0.,0.));
#1714=DIRECTION('',(0.,0.,1.));
#1715=DIRECTION('',(1.,0.,0.));
#1716=DIRECTION('',(0.,0.,-1.));
#1717=DIRECTION('',(-1.,0.,0.));
#1718=DIRECTION('',(0.,0.,1.));
#1719=DIRECTION('',(1.,0.,0.));
#1720=DIRECTION('',(0.,0.,1.));
#1721=DIRECTION('',(1.,0.,0.));
#1722=DIRECTION('',(0.,0.,-1.));
#1723=DIRECTION('',(-1.,0.,0.));
#1724=DIRECTION('',(0.,0.,1.));
#1725=DIRECTION('',(1.,0.,0.));
#1726=DIRECTION('',(0.,0.,1.));
#1727=DIRECTION('',(1.,0.,0.));
#1728=DIRECTION('',(1.,0.,0.));
#1729=DIRECTION('',(0.,0.,-1.));
#1730=DIRECTION('',(0.,-1.,0.));
#1731=DIRECTION('',(0.,0.,1.));
#1732=DIRECTION('',(0.,-1.,0.));
#1733=DIRECTION('',(0.,0.,1.));
#1734=DIRECTION('',(0.,-1.,0.));
#1735=DIRECTION('',(0.,-1.,0.));
#1736=DIRECTION('',(-1.,0.,0.));
#1737=DIRECTION('',(0.,0.,1.));
#1738=DIRECTION('',(0.,1.,0.));
#1739=DIRECTION('',(0.,1.,0.));
#1740=DIRECTION('',(0.,0.,1.));
#1741=DIRECTION('',(1.,0.,0.));
#1742=DIRECTION('',(0.,0.,1.));
#1743=DIRECTION('',(1.,0.,0.));
#1744=DIRECTION('',(0.,0.,1.));
#1745=DIRECTION('',(1.,0.,0.));
#1746=DIRECTION('',(-1.,0.,0.));
#1747=DIRECTION('',(-1.,0.,0.));
#1748=DIRECTION('',(0.,0.,1.));
#1749=DIRECTION('',(1.,0.,0.));
#1750=DIRECTION('',(-1.,0.,0.));
#1751=DIRECTION('',(-1.,0.,0.));
#1752=DIRECTION('',(0.,1.,0.));
#1753=DIRECTION('',(0.,0.,1.));
#1754=DIRECTION('',(0.,0.,-1.));
#1755=DIRECTION('',(1.,0.,0.));
#1756=DIRECTION('',(1.,0.,0.));
#1757=DIRECTION('',(0.,1.,0.));
#1758=DIRECTION('',(0.,0.,1.));
#1759=DIRECTION('',(0.,1.,0.));
#1760=DIRECTION('',(0.,0.,1.));
#1761=DIRECTION('',(0.,1.,0.));
#1762=DIRECTION('',(0.,0.,1.));
#1763=DIRECTION('',(0.,1.,0.));
#1764=DIRECTION('',(0.,0.,1.));
#1765=DIRECTION('',(-1.,0.,0.));
#1766=DIRECTION('',(-1.,0.,0.));
#1767=DIRECTION('',(0.,1.,0.));
#1768=DIRECTION('',(0.,0.,1.));
#1769=DIRECTION('',(1.,0.,0.));
#1770=DIRECTION('',(0.,0.,-1.));
#1771=DIRECTION('',(1.,0.,0.));
#1772=DIRECTION('',(-1.,0.,0.));
#1773=DIRECTION('',(-1.,0.,0.));
#1774=DIRECTION('',(0.,0.,1.));
#1775=DIRECTION('',(1.,0.,0.));
#1776=DIRECTION('',(0.,0.,1.));
#1777=DIRECTION('',(1.,0.,0.));
#1778=DIRECTION('',(1.,0.,0.));
#1779=DIRECTION('',(0.,0.,-1.));
#1780=DIRECTION('',(0.,1.,0.));
#1781=DIRECTION('',(0.,1.,0.));
#1782=DIRECTION('',(0.,0.,1.));
#1783=DIRECTION('',(1.,0.,0.));
#1784=DIRECTION('',(0.,1.,0.));
#1785=DIRECTION('',(0.,0.,1.));
#1786=DIRECTION('',(1.,0.,0.));
#1787=DIRECTION('',(0.,1.,0.));
#1788=DIRECTION('',(1.,0.,0.));
#1789=DIRECTION('',(0.,0.,-1.));
#1790=DIRECTION('',(1.,0.,0.));
#1791=DIRECTION('',(0.,0.,-1.));
#1792=DIRECTION('',(0.,1.,0.));
#1793=DIRECTION('',(0.,1.,0.));
#1794=DIRECTION('',(0.,0.,1.));
#1795=DIRECTION('',(1.,0.,0.));
#1796=DIRECTION('',(0.,1.,0.));
#1797=DIRECTION('',(0.,0.,1.));
#1798=DIRECTION('',(1.,0.,0.));
#1799=DIRECTION('',(0.,1.,0.));
#1800=DIRECTION('',(1.,0.,0.));
#1801=DIRECTION('',(0.,0.,-1.));
#1802=DIRECTION('',(0.,-1.,0.));
#1803=DIRECTION('',(0.,0.,-1.));
#1804=DIRECTION('',(0.,-1.,0.));
#1805=DIRECTION('',(0.,0.,-1.));
#1806=CARTESIAN_POINT('',(0.,0.,0.));
#1807=CARTESIAN_POINT('',(0.1776,-0.117190763354301,0.02651));
#1808=CARTESIAN_POINT('',(0.1776,-0.118203826248646,0.02651));
#1809=CARTESIAN_POINT('',(0.1776,-0.118203826248646,0.0148534968562525));
#1810=CARTESIAN_POINT('',(0.1776,-0.118203826248646,0.022666897624731));
#1811=CARTESIAN_POINT('',(0.1776,-0.0977677911520004,0.0148534968562525));
#1812=CARTESIAN_POINT('',(0.1776,-0.121407583355904,0.0148534968562525));
#1813=CARTESIAN_POINT('',(0.1776,-0.121407583355904,0.02651));
#1814=CARTESIAN_POINT('',(0.1776,-0.121407583355904,0.02651));
#1815=CARTESIAN_POINT('',(0.1776,-0.117190763354301,0.02651));
#1816=CARTESIAN_POINT('',(0.1776,-0.112973943352699,0.02651));
#1817=CARTESIAN_POINT('',(0.1776,-0.112973943352699,0.02651));
#1818=CARTESIAN_POINT('',(0.1776,-0.112973943352699,0.022666897624731));
#1819=CARTESIAN_POINT('',(0.1776,-0.117190763354301,0.022666897624731));
#1820=CARTESIAN_POINT('',(0.0638,-0.116807166486978,0.02651));
#1821=CARTESIAN_POINT('',(0.0638,-0.118203826248646,0.02651));
#1822=CARTESIAN_POINT('',(0.0638,-0.118203826248646,0.0126452717965778));
#1823=CARTESIAN_POINT('',(0.0638,-0.118203826248646,0.00509816827252507));
#1824=CARTESIAN_POINT('',(0.0638,-0.0977677911520004,0.0126452717965778));
#1825=CARTESIAN_POINT('',(0.0638,-0.121407583355904,0.0126452717965778));
#1826=CARTESIAN_POINT('',(0.0638,-0.121407583355904,0.02651));
#1827=CARTESIAN_POINT('',(0.0638,-0.121407583355904,0.00151));
#1828=CARTESIAN_POINT('',(0.0638,-0.116807166486978,0.00151));
#1829=CARTESIAN_POINT('',(0.0638,-0.112206749618053,0.00151));
#1830=CARTESIAN_POINT('',(0.0638,-0.112206749618053,0.02651));
#1831=CARTESIAN_POINT('',(0.0638,-0.112206749618053,0.00509816827252507));
#1832=CARTESIAN_POINT('',(0.0638,-0.116807166486978,0.00509816827252507));
#1833=CARTESIAN_POINT('',(0.0717770978808403,-0.0471450611948967,0.02651));
#1834=CARTESIAN_POINT('',(0.0717770978808403,-0.0471450611948967,0.00715578161180019));
#1835=CARTESIAN_POINT('',(0.0717770978808403,-0.0440335758030415,0.00715578161180019));
#1836=CARTESIAN_POINT('',(0.0717770978808403,-0.0419997684657573,0.00715578161180019));
#1837=CARTESIAN_POINT('',(0.0717770978808403,-0.0440335758030415,0.02651));
#1838=CARTESIAN_POINT('',(0.0717770978808403,-0.0440335758030415,0.00509816827252507));
#1839=CARTESIAN_POINT('',(0.0717770978808403,-0.0471450611948967,0.00509816827252507));
#1840=CARTESIAN_POINT('',(0.0717770978808403,-0.052290353924036,0.00509816827252507));
#1841=CARTESIAN_POINT('',(0.0717770978808403,-0.052290353924036,0.02651));
#1842=CARTESIAN_POINT('',(0.0717770978808403,-0.052290353924036,0.00151));
#1843=CARTESIAN_POINT('',(0.0717770978808403,-0.0471450611948967,0.00151));
#1844=CARTESIAN_POINT('',(0.0717770978808403,-0.0419997684657573,0.00151));
#1845=CARTESIAN_POINT('',(0.0717770978808403,-0.0419997684657573,0.02651));
#1846=CARTESIAN_POINT('',(0.120734754949808,-0.0419997684657573,0.02651));
#1847=CARTESIAN_POINT('',(0.120734754949808,-0.0419997684657573,0.00715578161180019));
#1848=CARTESIAN_POINT('',(0.169692412018776,-0.0419997684657573,0.00715578161180019));
#1849=CARTESIAN_POINT('',(0.120734754949808,-0.0419997684657573,0.00151));
#1850=CARTESIAN_POINT('',(0.169692412018776,-0.0419997684657573,0.00151));
#1851=CARTESIAN_POINT('',(0.169692412018776,-0.0419997684657573,0.02651));
#1852=CARTESIAN_POINT('',(0.169692412018776,-0.0465400833636522,0.02651));
#1853=CARTESIAN_POINT('',(0.169692412018776,-0.0465400833636522,0.00715578161180019));
#1854=CARTESIAN_POINT('',(0.169692412018776,-0.0440335758030415,0.00715578161180019));
#1855=CARTESIAN_POINT('',(0.169692412018776,-0.0465400833636522,0.00151));
#1856=CARTESIAN_POINT('',(0.169692412018776,-0.0527971163392067,0.00151));
#1857=CARTESIAN_POINT('',(0.169692412018776,-0.0527971163392067,0.02651));
#1858=CARTESIAN_POINT('',(0.169692412018776,-0.0527971163392067,0.00509816827252507));
#1859=CARTESIAN_POINT('',(0.169692412018776,-0.0465400833636522,0.00509816827252507));
#1860=CARTESIAN_POINT('',(0.169692412018776,-0.0440335758030415,0.00509816827252507));
#1861=CARTESIAN_POINT('',(0.169692412018776,-0.0440335758030415,0.02651));
#1862=CARTESIAN_POINT('',(0.0670861788094044,-0.100443936884403,0.02651));
#1863=CARTESIAN_POINT('',(0.0670861788094044,-0.100443936884403,0.00509816827252507));
#1864=CARTESIAN_POINT('',(0.0717770978808403,-0.100387804210186,0.00509816827252507));
#1865=CARTESIAN_POINT('',(0.0623952597379684,-0.10050006955862,0.00509816827252507));
#1866=CARTESIAN_POINT('',(0.0717770978808403,-0.100387804210186,0.02651));
#1867=CARTESIAN_POINT('',(0.0717770978808403,-0.100387804210186,0.00151));
#1868=CARTESIAN_POINT('',(0.0670861788094044,-0.100443936884403,0.00151));
#1869=CARTESIAN_POINT('',(0.0623952597379684,-0.10050006955862,0.00151));
#1870=CARTESIAN_POINT('',(0.0623952597379684,-0.10050006955862,0.02651));
#1871=CARTESIAN_POINT('',(0.0623952597379684,-0.0763952117413282,0.02651));
#1872=CARTESIAN_POINT('',(0.0623952597379684,-0.0763952117413282,0.00509816827252507));
#1873=CARTESIAN_POINT('',(0.0623952597379684,-0.052290353924036,0.00509816827252507));
#1874=CARTESIAN_POINT('',(0.0623952597379684,-0.0763952117413282,0.00151));
#1875=CARTESIAN_POINT('',(0.0623952597379684,-0.052290353924036,0.00151));
#1876=CARTESIAN_POINT('',(0.0623952597379684,-0.052290353924036,0.02651));
#1877=CARTESIAN_POINT('',(0.0670861788094044,-0.052290353924036,0.02651));
#1878=CARTESIAN_POINT('',(0.0670861788094044,-0.052290353924036,0.00509816827252507));
#1879=CARTESIAN_POINT('',(0.0670861788094044,-0.052290353924036,0.00151));
#1880=CARTESIAN_POINT('',(0.17401722073555,-0.0527971163392067,0.02651));
#1881=CARTESIAN_POINT('',(0.17401722073555,-0.0527971163392067,0.00509816827252507));
#1882=CARTESIAN_POINT('',(0.178342029452324,-0.0527971163392067,0.00509816827252507));
#1883=CARTESIAN_POINT('',(0.17401722073555,-0.0527971163392067,0.00151));
#1884=CARTESIAN_POINT('',(0.178342029452324,-0.0527971163392067,0.00151));
#1885=CARTESIAN_POINT('',(0.178342029452324,-0.0527971163392067,0.02651));
#1886=CARTESIAN_POINT('',(0.178342029452324,-0.0771297849714756,0.02651));
#1887=CARTESIAN_POINT('',(0.178342029452324,-0.0771297849714756,0.00509816827252507));
#1888=CARTESIAN_POINT('',(0.178342029452324,-0.101462453603744,0.00509816827252507));
#1889=CARTESIAN_POINT('',(0.178342029452324,-0.0771297849714756,0.00151));
#1890=CARTESIAN_POINT('',(0.178342029452324,-0.101462453603744,0.00151));
#1891=CARTESIAN_POINT('',(0.178342029452324,-0.101462453603744,0.02651));
#1892=CARTESIAN_POINT('',(0.174150593578816,-0.101462453603744,0.02651));
#1893=CARTESIAN_POINT('',(0.174150593578816,-0.101462453603744,0.00509816827252507));
#1894=CARTESIAN_POINT('',(0.169959157705307,-0.101462453603744,0.00509816827252507));
#1895=CARTESIAN_POINT('',(0.174150593578816,-0.101462453603744,0.00151));
#1896=CARTESIAN_POINT('',(0.169959157705307,-0.101462453603744,0.00151));
#1897=CARTESIAN_POINT('',(0.169959157705307,-0.101462453603744,0.02651));
#1898=CARTESIAN_POINT('',(0.169959157705307,-0.107218198478222,0.02651));
#1899=CARTESIAN_POINT('',(0.169959157705307,-0.107218198478222,0.00509816827252507));
#1900=CARTESIAN_POINT('',(0.169959157705307,-0.112973943352699,0.00509816827252507));
#1901=CARTESIAN_POINT('',(0.169959157705307,-0.107218198478222,0.00151));
#1902=CARTESIAN_POINT('',(0.169959157705307,-0.112973943352699,0.00151));
#1903=CARTESIAN_POINT('',(0.169959157705307,-0.112973943352699,0.02651));
#1904=CARTESIAN_POINT('',(0.173779578852653,-0.112973943352699,0.02651));
#1905=CARTESIAN_POINT('',(0.173779578852653,-0.112973943352699,0.00509816827252507));
#1906=CARTESIAN_POINT('',(0.1776,-0.112973943352699,0.00509816827252507));
#1907=CARTESIAN_POINT('',(0.173779578852653,-0.112973943352699,0.00151));
#1908=CARTESIAN_POINT('',(0.1776,-0.112973943352699,0.00151));
#1909=CARTESIAN_POINT('',(0.1776,-0.112973943352699,0.02651));
#1910=CARTESIAN_POINT('',(0.0677885489404202,-0.112206749618053,0.02651));
#1911=CARTESIAN_POINT('',(0.0677885489404202,-0.112206749618053,0.00509816827252507));
#1912=CARTESIAN_POINT('',(0.0717770978808403,-0.112206749618053,0.00509816827252507));
#1913=CARTESIAN_POINT('',(0.0677885489404202,-0.112206749618053,0.00151));
#1914=CARTESIAN_POINT('',(0.0717770978808403,-0.112206749618053,0.00151));
#1915=CARTESIAN_POINT('',(0.0717770978808403,-0.112206749618053,0.02651));
#1916=CARTESIAN_POINT('',(0.1752,-0.1069,0.02651));
#1917=CARTESIAN_POINT('',(0.1752,-0.1069,0.00151));
#1918=CARTESIAN_POINT('',(0.176437906885818,-0.1069,0.00151));
#1919=CARTESIAN_POINT('',(0.1752,-0.1069,0.00509816827252507));
#1920=CARTESIAN_POINT('',(0.176437906885818,-0.1069,0.00509816827252507));
#1921=CARTESIAN_POINT('',(0.0668,-0.1069,0.02651));
#1922=CARTESIAN_POINT('',(0.0668,-0.1069,0.00151));
#1923=CARTESIAN_POINT('',(0.0680782875975962,-0.1069,0.00151));
#1924=CARTESIAN_POINT('',(0.0668,-0.1069,0.00509816827252507));
#1925=CARTESIAN_POINT('',(0.0680782875975962,-0.1069,0.00509816827252507));
#1926=CARTESIAN_POINT('',(0.1752,-0.0462,0.02651));
#1927=CARTESIAN_POINT('',(0.1752,-0.0462,0.00151));
#1928=CARTESIAN_POINT('',(0.176470679847074,-0.0462,0.00151));
#1929=CARTESIAN_POINT('',(0.1752,-0.0462,0.00509816827252507));
#1930=CARTESIAN_POINT('',(0.176470679847074,-0.0462,0.00509816827252507));
#1931=CARTESIAN_POINT('',(0.0669,-0.0474,0.02651));
#1932=CARTESIAN_POINT('',(0.0669,-0.0474,0.00151));
#1933=CARTESIAN_POINT('',(0.068150169193259,-0.0474,0.00151));
#1934=CARTESIAN_POINT('',(0.0669,-0.0474,0.00509816827252507));
#1935=CARTESIAN_POINT('',(0.068150169193259,-0.0474,0.00509816827252507));
#1936=CARTESIAN_POINT('',(0.0717770978808403,-0.10629727691412,0.02651));
#1937=CARTESIAN_POINT('',(0.0717770978808403,-0.10629727691412,0.00509816827252507));
#1938=CARTESIAN_POINT('',(0.0717770978808403,-0.10629727691412,0.00151));
#1939=CARTESIAN_POINT('',(0.0670861788094044,-0.100443936884403,0.02651));
#1940=CARTESIAN_POINT('',(0.0717770978808403,-0.100387804210186,0.02651));
#1941=CARTESIAN_POINT('',(0.0717770978808403,-0.100387804210186,0.02651));
#1942=CARTESIAN_POINT('',(0.0717770978808403,-0.100387804210186,0.022666897624731));
#1943=CARTESIAN_POINT('',(0.0670861788094044,-0.100443936884403,0.022666897624731));
#1944=CARTESIAN_POINT('',(0.0623952597379684,-0.10050006955862,0.022666897624731));
#1945=CARTESIAN_POINT('',(0.0623952597379684,-0.10050006955862,0.02651));
#1946=CARTESIAN_POINT('',(0.0623952597379684,-0.10050006955862,0.02651));
#1947=CARTESIAN_POINT('',(0.0670861788094044,-0.100443936884403,0.02651));
#1948=CARTESIAN_POINT('',(0.0623952597379684,-0.0763952117413282,0.02651));
#1949=CARTESIAN_POINT('',(0.0623952597379684,-0.0763952117413282,0.022666897624731));
#1950=CARTESIAN_POINT('',(0.0623952597379684,-0.052290353924036,0.022666897624731));
#1951=CARTESIAN_POINT('',(0.0623952597379684,-0.052290353924036,0.02651));
#1952=CARTESIAN_POINT('',(0.0623952597379684,-0.052290353924036,0.02651));
#1953=CARTESIAN_POINT('',(0.0623952597379684,-0.0763952117413282,0.02651));
#1954=CARTESIAN_POINT('',(0.0670861788094044,-0.052290353924036,0.02651));
#1955=CARTESIAN_POINT('',(0.0670861788094044,-0.052290353924036,0.022666897624731));
#1956=CARTESIAN_POINT('',(0.0717770978808403,-0.052290353924036,0.022666897624731));
#1957=CARTESIAN_POINT('',(0.0717770978808403,-0.052290353924036,0.02651));
#1958=CARTESIAN_POINT('',(0.0717770978808403,-0.052290353924036,0.02651));
#1959=CARTESIAN_POINT('',(0.0670861788094044,-0.052290353924036,0.02651));
#1960=CARTESIAN_POINT('',(0.0717770978808403,-0.0471450611948967,0.02651));
#1961=CARTESIAN_POINT('',(0.0717770978808403,-0.0440335758030415,0.02651));
#1962=CARTESIAN_POINT('',(0.0717770978808403,-0.0440335758030415,0.022666897624731));
#1963=CARTESIAN_POINT('',(0.0717770978808403,-0.0440335758030415,0.020033236593008));
#1964=CARTESIAN_POINT('',(0.0717770978808403,-0.0471450611948967,0.020033236593008));
#1965=CARTESIAN_POINT('',(0.0717770978808403,-0.0419997684657573,0.020033236593008));
#1966=CARTESIAN_POINT('',(0.0717770978808403,-0.0419997684657573,0.02651));
#1967=CARTESIAN_POINT('',(0.0717770978808403,-0.0419997684657573,0.02651));
#1968=CARTESIAN_POINT('',(0.0717770978808403,-0.0471450611948967,0.02651));
#1969=CARTESIAN_POINT('',(0.0717770978808403,-0.0471450611948967,0.022666897624731));
#1970=CARTESIAN_POINT('',(0.120734754949808,-0.0419997684657573,0.02651));
#1971=CARTESIAN_POINT('',(0.120734754949808,-0.0419997684657573,0.020033236593008));
#1972=CARTESIAN_POINT('',(0.169692412018776,-0.0419997684657573,0.020033236593008));
#1973=CARTESIAN_POINT('',(0.169692412018776,-0.0419997684657573,0.02651));
#1974=CARTESIAN_POINT('',(0.169692412018776,-0.0419997684657573,0.02651));
#1975=CARTESIAN_POINT('',(0.120734754949808,-0.0419997684657573,0.02651));
#1976=CARTESIAN_POINT('',(0.169692412018776,-0.0465400833636522,0.02651));
#1977=CARTESIAN_POINT('',(0.169692412018776,-0.0465400833636522,0.020033236593008));
#1978=CARTESIAN_POINT('',(0.169692412018776,-0.0440335758030415,0.020033236593008));
#1979=CARTESIAN_POINT('',(0.169692412018776,-0.0440335758030415,0.02651));
#1980=CARTESIAN_POINT('',(0.169692412018776,-0.0440335758030415,0.022666897624731));
#1981=CARTESIAN_POINT('',(0.169692412018776,-0.0465400833636522,0.022666897624731));
#1982=CARTESIAN_POINT('',(0.169692412018776,-0.0527971163392067,0.022666897624731));
#1983=CARTESIAN_POINT('',(0.169692412018776,-0.0527971163392067,0.02651));
#1984=CARTESIAN_POINT('',(0.169692412018776,-0.0527971163392067,0.02651));
#1985=CARTESIAN_POINT('',(0.169692412018776,-0.0465400833636522,0.02651));
#1986=CARTESIAN_POINT('',(0.17401722073555,-0.0527971163392067,0.02651));
#1987=CARTESIAN_POINT('',(0.17401722073555,-0.0527971163392067,0.022666897624731));
#1988=CARTESIAN_POINT('',(0.178342029452324,-0.0527971163392067,0.022666897624731));
#1989=CARTESIAN_POINT('',(0.178342029452324,-0.0527971163392067,0.02651));
#1990=CARTESIAN_POINT('',(0.178342029452324,-0.0527971163392067,0.02651));
#1991=CARTESIAN_POINT('',(0.17401722073555,-0.0527971163392067,0.02651));
#1992=CARTESIAN_POINT('',(0.178342029452324,-0.0771297849714756,0.02651));
#1993=CARTESIAN_POINT('',(0.178342029452324,-0.0771297849714756,0.022666897624731));
#1994=CARTESIAN_POINT('',(0.178342029452324,-0.101462453603744,0.022666897624731));
#1995=CARTESIAN_POINT('',(0.178342029452324,-0.101462453603744,0.02651));
#1996=CARTESIAN_POINT('',(0.178342029452324,-0.101462453603744,0.02651));
#1997=CARTESIAN_POINT('',(0.178342029452324,-0.0771297849714756,0.02651));
#1998=CARTESIAN_POINT('',(0.174150593578816,-0.101462453603744,0.02651));
#1999=CARTESIAN_POINT('',(0.174150593578816,-0.101462453603744,0.022666897624731));
#2000=CARTESIAN_POINT('',(0.169959157705307,-0.101462453603744,0.022666897624731));
#2001=CARTESIAN_POINT('',(0.169959157705307,-0.101462453603744,0.02651));
#2002=CARTESIAN_POINT('',(0.169959157705307,-0.101462453603744,0.02651));
#2003=CARTESIAN_POINT('',(0.174150593578816,-0.101462453603744,0.02651));
#2004=CARTESIAN_POINT('',(0.169959157705307,-0.107218198478222,0.02651));
#2005=CARTESIAN_POINT('',(0.169959157705307,-0.107218198478222,0.022666897624731));
#2006=CARTESIAN_POINT('',(0.169959157705307,-0.112973943352699,0.022666897624731));
#2007=CARTESIAN_POINT('',(0.169959157705307,-0.112973943352699,0.02651));
#2008=CARTESIAN_POINT('',(0.169959157705307,-0.112973943352699,0.02651));
#2009=CARTESIAN_POINT('',(0.169959157705307,-0.107218198478222,0.02651));
#2010=CARTESIAN_POINT('',(0.173779578852653,-0.112973943352699,0.02651));
#2011=CARTESIAN_POINT('',(0.173779578852653,-0.112973943352699,0.022666897624731));
#2012=CARTESIAN_POINT('',(0.173779578852653,-0.112973943352699,0.02651));
#2013=CARTESIAN_POINT('',(0.1776,-0.117190763354301,0.02651));
#2014=CARTESIAN_POINT('',(0.1776,-0.121407583355904,0.02651));
#2015=CARTESIAN_POINT('',(0.1776,-0.121407583355904,0.0123355213485557));
#2016=CARTESIAN_POINT('',(0.1776,-0.121407583355904,0.00151));
#2017=CARTESIAN_POINT('',(0.1776,-0.0977677911520004,0.0123355213485557));
#2018=CARTESIAN_POINT('',(0.1776,-0.118203826248646,0.0123355213485557));
#2019=CARTESIAN_POINT('',(0.1776,-0.118203826248646,0.02651));
#2020=CARTESIAN_POINT('',(0.1776,-0.118203826248646,0.00509816827252507));
#2021=CARTESIAN_POINT('',(0.1776,-0.117190763354301,0.00509816827252507));
#2022=CARTESIAN_POINT('',(0.1776,-0.117190763354301,0.00151));
#2023=CARTESIAN_POINT('',(0.1207,-0.121407583355904,0.02651));
#2024=CARTESIAN_POINT('',(0.174485370516777,-0.121407583355904,0.02651));
#2025=CARTESIAN_POINT('',(0.174485370516777,-0.121407583355904,0.00715578161180019));
#2026=CARTESIAN_POINT('',(0.174485370516777,-0.121407583355904,0.020033236593008));
#2027=CARTESIAN_POINT('',(0.1207,-0.121407583355904,0.020033236593008));
#2028=CARTESIAN_POINT('',(0.0682758986949921,-0.121407583355904,0.020033236593008));
#2029=CARTESIAN_POINT('',(0.0682758986949921,-0.121407583355904,0.02651));
#2030=CARTESIAN_POINT('',(0.0682758986949921,-0.121407583355904,0.00715578161180019));
#2031=CARTESIAN_POINT('',(0.1207,-0.121407583355904,0.00715578161180019));
#2032=CARTESIAN_POINT('',(0.0646260157227516,-0.121407583355904,0.0135945091024041));
#2033=CARTESIAN_POINT('',(0.0638,-0.121407583355904,0.0145437464082304));
#2034=CARTESIAN_POINT('',(0.0638,-0.121407583355904,0.02651));
#2035=CARTESIAN_POINT('',(0.0638,-0.121407583355904,0.02651));
#2036=CARTESIAN_POINT('',(0.1207,-0.121407583355904,0.02651));
#2037=CARTESIAN_POINT('',(0.177196457982063,-0.121407583355904,0.0135945091024041));
#2038=CARTESIAN_POINT('',(0.1207,-0.121407583355904,0.00151));
#2039=CARTESIAN_POINT('',(0.0638,-0.116807166486978,0.02651));
#2040=CARTESIAN_POINT('',(0.0638,-0.0977677911520004,0.0145437464082304));
#2041=CARTESIAN_POINT('',(0.0638,-0.118203826248646,0.0145437464082304));
#2042=CARTESIAN_POINT('',(0.0638,-0.118203826248646,0.02651));
#2043=CARTESIAN_POINT('',(0.0638,-0.118203826248646,0.022666897624731));
#2044=CARTESIAN_POINT('',(0.0638,-0.116807166486978,0.022666897624731));
#2045=CARTESIAN_POINT('',(0.0638,-0.112206749618053,0.022666897624731));
#2046=CARTESIAN_POINT('',(0.0638,-0.112206749618053,0.02651));
#2047=CARTESIAN_POINT('',(0.0638,-0.112206749618053,0.02651));
#2048=CARTESIAN_POINT('',(0.0638,-0.116807166486978,0.02651));
#2049=CARTESIAN_POINT('',(0.0677885489404202,-0.112206749618053,0.02651));
#2050=CARTESIAN_POINT('',(0.0677885489404202,-0.112206749618053,0.022666897624731));
#2051=CARTESIAN_POINT('',(0.0717770978808403,-0.112206749618053,0.022666897624731));
#2052=CARTESIAN_POINT('',(0.0717770978808403,-0.112206749618053,0.02651));
#2053=CARTESIAN_POINT('',(0.0717770978808403,-0.112206749618053,0.02651));
#2054=CARTESIAN_POINT('',(0.0677885489404202,-0.112206749618053,0.02651));
#2055=CARTESIAN_POINT('',(0.0660297814756632,-0.0407762080430984,0.02651));
#2056=CARTESIAN_POINT('',(0.0660297814756632,-0.0407762080430984,0.020033236593008));
#2057=CARTESIAN_POINT('',(0.0682758986949921,-0.0407762080430984,0.020033236593008));
#2058=CARTESIAN_POINT('',(0.174485370516777,-0.0407762080430984,0.020033236593008));
#2059=CARTESIAN_POINT('',(0.0682758986949921,-0.0407762080430984,0.02651));
#2060=CARTESIAN_POINT('',(0.0682758986949921,-0.0407762080430984,0.00715578161180019));
#2061=CARTESIAN_POINT('',(0.0660297814756632,-0.0407762080430984,0.00715578161180019));
#2062=CARTESIAN_POINT('',(0.174485370516777,-0.0407762080430984,0.00715578161180019));
#2063=CARTESIAN_POINT('',(0.174485370516777,-0.0407762080430984,0.02651));
#2064=CARTESIAN_POINT('',(0.0660297814756632,-0.0407762080430984,0.00151));
#2065=CARTESIAN_POINT('',(0.0612129159271717,-0.0407762080430984,0.00151));
#2066=CARTESIAN_POINT('',(0.180181100964546,-0.0407762080430984,0.00151));
#2067=CARTESIAN_POINT('',(0.0612129159271717,-0.0407762080430984,0.02651));
#2068=CARTESIAN_POINT('',(0.0612129159271717,-0.0407762080430984,0.02651));
#2069=CARTESIAN_POINT('',(0.0660297814756632,-0.0407762080430984,0.02651));
#2070=CARTESIAN_POINT('',(0.180181100964546,-0.0407762080430984,0.02651));
#2071=CARTESIAN_POINT('',(0.180181100964546,-0.0407762080430984,0.02651));
#2072=CARTESIAN_POINT('',(0.0612129159271717,-0.0458651389926672,0.02651));
#2073=CARTESIAN_POINT('',(0.0612129159271717,-0.0440335758030415,0.02651));
#2074=CARTESIAN_POINT('',(0.0612129159271717,-0.0440335758030415,0.00509816827252507));
#2075=CARTESIAN_POINT('',(0.0612129159271717,-0.0440335758030415,0.022666897624731));
#2076=CARTESIAN_POINT('',(0.0612129159271717,-0.0458651389926672,0.022666897624731));
#2077=CARTESIAN_POINT('',(0.0612129159271717,-0.118203826248646,0.022666897624731));
#2078=CARTESIAN_POINT('',(0.0612129159271717,-0.118203826248646,0.02651));
#2079=CARTESIAN_POINT('',(0.0612129159271717,-0.118203826248646,0.00509816827252507));
#2080=CARTESIAN_POINT('',(0.0612129159271717,-0.0458651389926672,0.00509816827252507));
#2081=CARTESIAN_POINT('',(0.0612129159271717,-0.0458651389926672,0.00151));
#2082=CARTESIAN_POINT('',(0.0612129159271717,-0.122767791152,0.00151));
#2083=CARTESIAN_POINT('',(0.0612129159271717,-0.122767791152,0.02651));
#2084=CARTESIAN_POINT('',(0.0612129159271717,-0.122767791152,0.02651));
#2085=CARTESIAN_POINT('',(0.0612129159271717,-0.0458651389926672,0.02651));
#2086=CARTESIAN_POINT('',(0.120697008445859,-0.122767791152,0.02651));
#2087=CARTESIAN_POINT('',(0.0646260157227516,-0.122767791152,0.0135945091024041));
#2088=CARTESIAN_POINT('',(0.0646260157227516,-0.122767791152,0.0123361953748285));
#2089=CARTESIAN_POINT('',(0.177196457982063,-0.122767791152,0.0135945091024041));
#2090=CARTESIAN_POINT('',(0.177196457982063,-0.122767791152,0.0122724288005387));
#2091=CARTESIAN_POINT('',(0.0682758986949921,-0.122767791152,0.02651));
#2092=CARTESIAN_POINT('',(0.0682758986949921,-0.122767791152,0.020033236593008));
#2093=CARTESIAN_POINT('',(0.0682758986949921,-0.122767791152,0.00715578161180019));
#2094=CARTESIAN_POINT('',(0.120697008445859,-0.122767791152,0.020033236593008));
#2095=CARTESIAN_POINT('',(0.174485370516777,-0.122767791152,0.020033236593008));
#2096=CARTESIAN_POINT('',(0.174485370516777,-0.122767791152,0.02651));
#2097=CARTESIAN_POINT('',(0.174485370516777,-0.122767791152,0.0071557816118002));
#2098=CARTESIAN_POINT('',(0.120697008445859,-0.122767791152,0.00715578161180019));
#2099=CARTESIAN_POINT('',(0.120697008445859,-0.122767791152,0.00151));
#2100=CARTESIAN_POINT('',(0.180181100964546,-0.122767791152,0.00151));
#2101=CARTESIAN_POINT('',(0.180181100964546,-0.122767791152,0.02651));
#2102=CARTESIAN_POINT('',(0.180181100964546,-0.122767791152,0.02651));
#2103=CARTESIAN_POINT('',(0.120697008445859,-0.122767791152,0.02651));
#2104=CARTESIAN_POINT('',(0.1752,-0.1069,0.02651));
#2105=CARTESIAN_POINT('',(0.1752,-0.1069,0.022666897624731));
#2106=CARTESIAN_POINT('',(0.176437906885818,-0.1069,0.022666897624731));
#2107=CARTESIAN_POINT('',(0.1752,-0.1069,0.02651));
#2108=CARTESIAN_POINT('',(0.176437906885818,-0.1069,0.02651));
#2109=CARTESIAN_POINT('',(0.0668,-0.1069,0.02651));
#2110=CARTESIAN_POINT('',(0.0668,-0.1069,0.022666897624731));
#2111=CARTESIAN_POINT('',(0.0680782875975962,-0.1069,0.022666897624731));
#2112=CARTESIAN_POINT('',(0.0668,-0.1069,0.02651));
#2113=CARTESIAN_POINT('',(0.0680782875975962,-0.1069,0.02651));
#2114=CARTESIAN_POINT('',(0.1752,-0.0462,0.02651));
#2115=CARTESIAN_POINT('',(0.1752,-0.0462,0.022666897624731));
#2116=CARTESIAN_POINT('',(0.176470679847074,-0.0462,0.022666897624731));
#2117=CARTESIAN_POINT('',(0.1752,-0.0462,0.02651));
#2118=CARTESIAN_POINT('',(0.176470679847074,-0.0462,0.02651));
#2119=CARTESIAN_POINT('',(0.0669,-0.0474,0.02651));
#2120=CARTESIAN_POINT('',(0.0669,-0.0474,0.022666897624731));
#2121=CARTESIAN_POINT('',(0.068150169193259,-0.0474,0.022666897624731));
#2122=CARTESIAN_POINT('',(0.0669,-0.0474,0.02651));
#2123=CARTESIAN_POINT('',(0.068150169193259,-0.0474,0.02651));
#2124=CARTESIAN_POINT('',(0.180181100964546,-0.0459186211228371,0.02651));
#2125=CARTESIAN_POINT('',(0.180181100964546,-0.0459186211228371,0.022666897624731));
#2126=CARTESIAN_POINT('',(0.180181100964546,-0.0440335758030415,0.022666897624731));
#2127=CARTESIAN_POINT('',(0.180181100964546,-0.118203826248646,0.022666897624731));
#2128=CARTESIAN_POINT('',(0.180181100964546,-0.0440335758030415,0.02651));
#2129=CARTESIAN_POINT('',(0.180181100964546,-0.0440335758030415,0.00509816827252508));
#2130=CARTESIAN_POINT('',(0.180181100964546,-0.0459186211228371,0.00509816827252507));
#2131=CARTESIAN_POINT('',(0.180181100964546,-0.118203826248646,0.00509816827252507));
#2132=CARTESIAN_POINT('',(0.180181100964546,-0.118203826248646,0.02651));
#2133=CARTESIAN_POINT('',(0.180181100964546,-0.0459186211228371,0.00151));
#2134=CARTESIAN_POINT('',(0.180181100964546,-0.0459186211228371,0.02651));
#2135=CARTESIAN_POINT('',(0.0717770978808403,-0.10629727691412,0.02651));
#2136=CARTESIAN_POINT('',(0.0717770978808403,-0.10629727691412,0.022666897624731));
#2137=CARTESIAN_POINT('',(0.0717770978808403,-0.10629727691412,0.02651));
#2138=CARTESIAN_POINT('',(0.120697008445859,-0.0817719995975494,0.02651));
#2139=CARTESIAN_POINT('',(0.120697008445859,-0.0817719995975494,0.00151));
#2140=CARTESIAN_POINT('',(0.3255,-0.0811187010258436,0.00509816827252507));
#2141=CARTESIAN_POINT('',(0.3255,-0.118203826248646,0.00509816827252507));
#2142=CARTESIAN_POINT('',(0.3255,-0.0440335758030415,0.00509816827252507));
#2143=CARTESIAN_POINT('',(0.3255,-0.0811187010258436,0.022666897624731));
#2144=CARTESIAN_POINT('',(0.3255,-0.0440335758030415,0.022666897624731));
#2145=CARTESIAN_POINT('',(0.3255,-0.118203826248646,0.022666897624731));
#2146=CARTESIAN_POINT('',(0.3255,-0.0440335758030415,0.0138825329486281));
#2147=CARTESIAN_POINT('',(0.0682758986949921,-0.0440335758030415,0.0138825329486281));
#2148=CARTESIAN_POINT('',(0.0682758986949921,-0.0440335758030415,0.020033236593008));
#2149=CARTESIAN_POINT('',(0.0682758986949921,-0.0440335758030415,0.00715578161180019));
#2150=CARTESIAN_POINT('',(0.3255,-0.0440335758030415,0.020033236593008));
#2151=CARTESIAN_POINT('',(0.3255,-0.0440335758030415,0.00715578161180019));
#2152=CARTESIAN_POINT('',(0.3255,-0.118203826248646,0.0138825329486281));
#2153=CARTESIAN_POINT('',(0.0646260157227516,-0.118203826248646,0.0135945091024041));
#2154=CARTESIAN_POINT('',(0.3255,-0.118203826248646,0.0138825329486281));
#2155=CARTESIAN_POINT('',(0.177196457982063,-0.118203826248646,0.0135945091024041));
#2156=CARTESIAN_POINT('',(0.3255,-0.118203826248646,0.022666897624731));
#2157=CARTESIAN_POINT('',(0.3255,-0.118203826248646,0.00509816827252507));
#2158=CARTESIAN_POINT('',(0.3255,-0.0440335758030415,0.0138825329486281));
#2159=CARTESIAN_POINT('',(0.3255,-0.0440335758030415,0.020033236593008));
#2160=CARTESIAN_POINT('',(0.174485370516777,-0.0440335758030415,0.020033236593008));
#2161=CARTESIAN_POINT('',(0.174485370516777,-0.0440335758030415,0.0138825329486281));
#2162=CARTESIAN_POINT('',(0.174485370516777,-0.0440335758030415,0.00715578161180019));
#2163=CARTESIAN_POINT('',(0.3255,-0.0440335758030415,0.00715578161180019));
#2164=CARTESIAN_POINT('',(0.3255,-0.0440335758030415,0.00509816827252507));
#2165=CARTESIAN_POINT('',(0.3255,-0.0440335758030415,0.022666897624731));
#2166=CARTESIAN_POINT('',(0.3255,-0.0811187010258436,0.022666897624731));
#2167=CARTESIAN_POINT('',(0.3255,-0.0811187010258436,0.00509816827252507));
#2168=CARTESIAN_POINT('',(0.174485370516777,-0.1468,0.0135945091024041));
#2169=CARTESIAN_POINT('',(0.174485370516777,-0.1468,0.00715578161180019));
#2170=CARTESIAN_POINT('',(0.174485370516777,-0.1468,0.020033236593008));
#2171=CARTESIAN_POINT('',(0.121380634605885,-0.1468,0.00715578161180019));
#2172=CARTESIAN_POINT('',(0.0682758986949921,-0.1468,0.00715578161180019));
#2173=CARTESIAN_POINT('',(0.121380634605885,-0.1468,0.020033236593008));
#2174=CARTESIAN_POINT('',(0.0682758986949921,-0.1468,0.020033236593008));
#2175=CARTESIAN_POINT('',(0.0682758986949921,-0.1468,0.0135945091024041));
#2176=CARTESIAN_POINT('',(0.0682758986949921,-0.1468,0.0135945091024041));
#2177=CARTESIAN_POINT('',(0.0682758986949921,-0.1468,0.020033236593008));
#2178=CARTESIAN_POINT('',(0.0682758986949921,-0.1468,0.00715578161180019));
#2179=CARTESIAN_POINT('',(0.121380634605885,-0.1468,0.020033236593008));
#2180=CARTESIAN_POINT('',(0.174485370516777,-0.1468,0.020033236593008));
#2181=CARTESIAN_POINT('',(0.121380634605885,-0.1468,0.00715578161180019));
#2182=CARTESIAN_POINT('',(0.174485370516777,-0.1468,0.00715578161180019));
#2183=CARTESIAN_POINT('',(0.174485370516777,-0.1468,0.0135945091024041));
#2184=CARTESIAN_POINT('',(0.177196457982063,-0.0977677911520004,0.0135945091024041));
#2185=CARTESIAN_POINT('',(0.0646260157227516,-0.0977677911520004,0.0135945091024041));
#2186=MECHANICAL_DESIGN_GEOMETRIC_PRESENTATION_REPRESENTATION('',(#1373),
#2187);
#2187=(
GEOMETRIC_REPRESENTATION_CONTEXT(3)
GLOBAL_UNCERTAINTY_ASSIGNED_CONTEXT((#2188))
GLOBAL_UNIT_ASSIGNED_CONTEXT((#2191,#2190,#2189))
REPRESENTATION_CONTEXT('Part 2','TOP_LEVEL_ASSEMBLY_PART')
);
#2188=UNCERTAINTY_MEASURE_WITH_UNIT(LENGTH_MEASURE(1.E-8),#2191,
'DISTANCE_ACCURACY_VALUE','Maximum Tolerance applied to model');
#2189=(
NAMED_UNIT(*)
SI_UNIT($,.STERADIAN.)
SOLID_ANGLE_UNIT()
);
#2190=(
NAMED_UNIT(*)
PLANE_ANGLE_UNIT()
SI_UNIT($,.RADIAN.)
);
#2191=(
LENGTH_UNIT()
NAMED_UNIT(*)
SI_UNIT($,.METRE.)
);
#2192=PRODUCT_DEFINITION_SHAPE('','',#2193);
#2193=PRODUCT_DEFINITION('','',#2195,#2194);
#2194=PRODUCT_DEFINITION_CONTEXT('',#2201,'design');
#2195=PRODUCT_DEFINITION_FORMATION_WITH_SPECIFIED_SOURCE('','',#2197,
 .NOT_KNOWN.);
#2196=PRODUCT_RELATED_PRODUCT_CATEGORY('','',(#2197));
#2197=PRODUCT('Part 2','Part 2','Part 2',(#2199));
#2198=PRODUCT_CATEGORY('','');
#2199=PRODUCT_CONTEXT('',#2201,'mechanical');
#2200=APPLICATION_PROTOCOL_DEFINITION('international standard',
'ap242_managed_model_based_3d_engineering',2020,#2201);
#2201=APPLICATION_CONTEXT('managed model based 3d engineering');
ENDSEC;
END-ISO-10303-21;
