ISO-10303-21;
HEADER;
/* Generated by software containing ST-Developer
 * from STEP Tools, Inc. (www.steptools.com) 
 */
/* OPTION: using custom renumber hook */

FILE_DESCRIPTION(
/* description */ ('STEP AP242 Edition 2',
'CAx-IF Rec.Pracs.---Representation and Presentation of Product Manufa
cturing Information (PMI)---4.0---2014-10-13',
'CAx-IF Rec.Pracs.---3D Tessellated Geometry---0.4---2014-09-14','2;1',
'CAx-IF Rec.Pracs.---User Defined Attributes---1.5---2016-08-15'),
/* implementation_level */ '2;1');

FILE_NAME(
/* name */ 'main pcb (1) - Part 3',
/* time_stamp */ '2026-08-23T14:50:30Z',
/* author */ (''),
/* organization */ (''),
/* preprocessor_version */ 'ST-DEVELOPER v20',
/* originating_system */ 'ONSHAPE BY PTC INC, 1.219',
/* authorisation */ '  ');

FILE_SCHEMA (('AP242_MANAGED_MODEL_BASED_3D_ENGINEERING_MIM_LF { 1 0 10303 442 3 1 4 }'));
ENDSEC;

DATA;
#10=SHAPE_REPRESENTATION_RELATIONSHIP('','',#210,#11);
#11=ADVANCED_BREP_SHAPE_REPRESENTATION('',(#208),#345);
#12=CIRCLE('',#216,0.00129338320743266);
#13=CIRCLE('',#217,0.00129338320743266);
#14=CIRCLE('',#220,0.00127422720705192);
#15=CIRCLE('',#222,0.00220281958141582);
#16=CIRCLE('',#223,0.00227956640575514);
#17=CIRCLE('',#225,0.00129486517021682);
#18=CIRCLE('',#226,0.00227956640575514);
#19=CIRCLE('',#229,0.00127422720705192);
#20=CIRCLE('',#230,0.00220281958141582);
#21=CYLINDRICAL_SURFACE('',#215,0.00129338320743266);
#22=CYLINDRICAL_SURFACE('',#227,0.00227956640575514);
#23=CYLINDRICAL_SURFACE('',#231,0.00220281958141582);
#24=CYLINDRICAL_SURFACE('',#232,0.00127422720705192);
#25=CYLINDRICAL_SURFACE('',#233,0.00129486517021682);
#26=ORIENTED_EDGE('',*,*,#68,.F.);
#27=ORIENTED_EDGE('',*,*,#69,.F.);
#28=ORIENTED_EDGE('',*,*,#70,.T.);
#29=ORIENTED_EDGE('',*,*,#71,.T.);
#30=ORIENTED_EDGE('',*,*,#72,.T.);
#31=ORIENTED_EDGE('',*,*,#73,.F.);
#32=ORIENTED_EDGE('',*,*,#74,.F.);
#33=ORIENTED_EDGE('',*,*,#69,.T.);
#34=ORIENTED_EDGE('',*,*,#75,.T.);
#35=ORIENTED_EDGE('',*,*,#76,.F.);
#36=ORIENTED_EDGE('',*,*,#77,.F.);
#37=ORIENTED_EDGE('',*,*,#73,.T.);
#38=ORIENTED_EDGE('',*,*,#78,.T.);
#39=ORIENTED_EDGE('',*,*,#79,.F.);
#40=ORIENTED_EDGE('',*,*,#80,.F.);
#41=ORIENTED_EDGE('',*,*,#71,.F.);
#42=ORIENTED_EDGE('',*,*,#81,.T.);
#43=ORIENTED_EDGE('',*,*,#76,.T.);
#44=ORIENTED_EDGE('',*,*,#82,.F.);
#45=ORIENTED_EDGE('',*,*,#78,.F.);
#46=ORIENTED_EDGE('',*,*,#70,.F.);
#47=ORIENTED_EDGE('',*,*,#74,.T.);
#48=ORIENTED_EDGE('',*,*,#77,.T.);
#49=ORIENTED_EDGE('',*,*,#81,.F.);
#50=ORIENTED_EDGE('',*,*,#83,.F.);
#51=ORIENTED_EDGE('',*,*,#84,.F.);
#52=ORIENTED_EDGE('',*,*,#68,.T.);
#53=ORIENTED_EDGE('',*,*,#80,.T.);
#54=ORIENTED_EDGE('',*,*,#75,.F.);
#55=ORIENTED_EDGE('',*,*,#72,.F.);
#56=ORIENTED_EDGE('',*,*,#85,.F.);
#57=ORIENTED_EDGE('',*,*,#86,.T.);
#58=ORIENTED_EDGE('',*,*,#86,.F.);
#59=ORIENTED_EDGE('',*,*,#84,.T.);
#60=ORIENTED_EDGE('',*,*,#87,.F.);
#61=ORIENTED_EDGE('',*,*,#88,.T.);
#62=ORIENTED_EDGE('',*,*,#88,.F.);
#63=ORIENTED_EDGE('',*,*,#83,.T.);
#64=ORIENTED_EDGE('',*,*,#87,.T.);
#65=ORIENTED_EDGE('',*,*,#82,.T.);
#66=ORIENTED_EDGE('',*,*,#79,.T.);
#67=ORIENTED_EDGE('',*,*,#85,.T.);
#68=EDGE_CURVE('',#89,#90,#106,.T.);
#69=EDGE_CURVE('',#91,#89,#107,.T.);
#70=EDGE_CURVE('',#91,#92,#108,.T.);
#71=EDGE_CURVE('',#92,#90,#109,.T.);
#72=EDGE_CURVE('',#89,#93,#110,.T.);
#73=EDGE_CURVE('',#94,#93,#111,.T.);
#74=EDGE_CURVE('',#91,#94,#112,.T.);
#75=EDGE_CURVE('',#93,#95,#113,.T.);
#76=EDGE_CURVE('',#96,#95,#114,.T.);
#77=EDGE_CURVE('',#94,#96,#115,.T.);
#78=EDGE_CURVE('',#97,#97,#12,.T.);
#79=EDGE_CURVE('',#98,#98,#13,.T.);
#80=EDGE_CURVE('',#90,#95,#116,.T.);
#81=EDGE_CURVE('',#92,#96,#117,.T.);
#82=EDGE_CURVE('',#99,#99,#14,.T.);
#83=EDGE_CURVE('',#100,#100,#15,.T.);
#84=EDGE_CURVE('',#101,#101,#16,.T.);
#85=EDGE_CURVE('',#102,#102,#17,.T.);
#86=EDGE_CURVE('',#103,#103,#18,.T.);
#87=EDGE_CURVE('',#104,#104,#19,.T.);
#88=EDGE_CURVE('',#105,#105,#20,.T.);
#89=VERTEX_POINT('',#295);
#90=VERTEX_POINT('',#296);
#91=VERTEX_POINT('',#298);
#92=VERTEX_POINT('',#300);
#93=VERTEX_POINT('',#304);
#94=VERTEX_POINT('',#306);
#95=VERTEX_POINT('',#310);
#96=VERTEX_POINT('',#312);
#97=VERTEX_POINT('',#316);
#98=VERTEX_POINT('',#318);
#99=VERTEX_POINT('',#324);
#100=VERTEX_POINT('',#327);
#101=VERTEX_POINT('',#329);
#102=VERTEX_POINT('',#332);
#103=VERTEX_POINT('',#334);
#104=VERTEX_POINT('',#338);
#105=VERTEX_POINT('',#340);
#106=LINE('',#294,#118);
#107=LINE('',#297,#119);
#108=LINE('',#299,#120);
#109=LINE('',#301,#121);
#110=LINE('',#303,#122);
#111=LINE('',#305,#123);
#112=LINE('',#307,#124);
#113=LINE('',#309,#125);
#114=LINE('',#311,#126);
#115=LINE('',#313,#127);
#116=LINE('',#320,#128);
#117=LINE('',#321,#129);
#118=VECTOR('',#238,1.);
#119=VECTOR('',#239,1.);
#120=VECTOR('',#240,1.);
#121=VECTOR('',#241,1.);
#122=VECTOR('',#244,1.);
#123=VECTOR('',#245,1.);
#124=VECTOR('',#246,1.);
#125=VECTOR('',#249,1.);
#126=VECTOR('',#250,1.);
#127=VECTOR('',#251,1.);
#128=VECTOR('',#260,1.);
#129=VECTOR('',#261,1.);
#130=EDGE_LOOP('',(#26,#27,#28,#29));
#131=EDGE_LOOP('',(#30,#31,#32,#33));
#132=EDGE_LOOP('',(#34,#35,#36,#37));
#133=EDGE_LOOP('',(#38));
#134=EDGE_LOOP('',(#39));
#135=EDGE_LOOP('',(#40,#41,#42,#43));
#136=EDGE_LOOP('',(#44));
#137=EDGE_LOOP('',(#45));
#138=EDGE_LOOP('',(#46,#47,#48,#49));
#139=EDGE_LOOP('',(#50));
#140=EDGE_LOOP('',(#51));
#141=EDGE_LOOP('',(#52,#53,#54,#55));
#142=EDGE_LOOP('',(#56));
#143=EDGE_LOOP('',(#57));
#144=EDGE_LOOP('',(#58));
#145=EDGE_LOOP('',(#59));
#146=EDGE_LOOP('',(#60));
#147=EDGE_LOOP('',(#61));
#148=EDGE_LOOP('',(#62));
#149=EDGE_LOOP('',(#63));
#150=EDGE_LOOP('',(#64));
#151=EDGE_LOOP('',(#65));
#152=EDGE_LOOP('',(#66));
#153=EDGE_LOOP('',(#67));
#154=FACE_BOUND('',#130,.T.);
#155=FACE_BOUND('',#131,.T.);
#156=FACE_BOUND('',#132,.T.);
#157=FACE_BOUND('',#133,.T.);
#158=FACE_BOUND('',#134,.T.);
#159=FACE_BOUND('',#135,.T.);
#160=FACE_BOUND('',#136,.T.);
#161=FACE_BOUND('',#137,.T.);
#162=FACE_BOUND('',#138,.T.);
#163=FACE_BOUND('',#139,.T.);
#164=FACE_BOUND('',#140,.T.);
#165=FACE_BOUND('',#141,.T.);
#166=FACE_BOUND('',#142,.T.);
#167=FACE_BOUND('',#143,.T.);
#168=FACE_BOUND('',#144,.T.);
#169=FACE_BOUND('',#145,.T.);
#170=FACE_BOUND('',#146,.T.);
#171=FACE_BOUND('',#147,.T.);
#172=FACE_BOUND('',#148,.T.);
#173=FACE_BOUND('',#149,.T.);
#174=FACE_BOUND('',#150,.T.);
#175=FACE_BOUND('',#151,.T.);
#176=FACE_BOUND('',#152,.T.);
#177=FACE_BOUND('',#153,.T.);
#178=PLANE('',#212);
#179=PLANE('',#213);
#180=PLANE('',#214);
#181=PLANE('',#218);
#182=PLANE('',#219);
#183=PLANE('',#221);
#184=PLANE('',#224);
#185=PLANE('',#228);
#186=ADVANCED_FACE('',(#154),#178,.T.);
#187=ADVANCED_FACE('',(#155),#179,.F.);
#188=ADVANCED_FACE('',(#156),#180,.F.);
#189=ADVANCED_FACE('',(#157,#158),#21,.F.);
#190=ADVANCED_FACE('',(#159),#181,.T.);
#191=ADVANCED_FACE('',(#160,#161,#162),#182,.T.);
#192=ADVANCED_FACE('',(#163,#164,#165),#183,.F.);
#193=ADVANCED_FACE('',(#166,#167),#184,.T.);
#194=ADVANCED_FACE('',(#168,#169),#22,.T.);
#195=ADVANCED_FACE('',(#170,#171),#185,.T.);
#196=ADVANCED_FACE('',(#172,#173),#23,.T.);
#197=ADVANCED_FACE('',(#174,#175),#24,.F.);
#198=ADVANCED_FACE('',(#176,#177),#25,.F.);
#199=CLOSED_SHELL('',(#186,#187,#188,#189,#190,#191,#192,#193,#194,#195,
#196,#197,#198));
#200=STYLED_ITEM('',(#201),#208);
#201=PRESENTATION_STYLE_ASSIGNMENT((#202));
#202=SURFACE_STYLE_USAGE(.BOTH.,#203);
#203=SURFACE_SIDE_STYLE('',(#204));
#204=SURFACE_STYLE_FILL_AREA(#205);
#205=FILL_AREA_STYLE('',(#206));
#206=FILL_AREA_STYLE_COLOUR('',#207);
#207=COLOUR_RGB('',0.917647058823529,0.917647058823529,0.917647058823529);
#208=MANIFOLD_SOLID_BREP('Part 3',#199);
#209=SHAPE_DEFINITION_REPRESENTATION(#350,#210);
#210=SHAPE_REPRESENTATION('Part 3',(#211),#345);
#211=AXIS2_PLACEMENT_3D('',#292,#234,#235);
#212=AXIS2_PLACEMENT_3D('',#293,#236,#237);
#213=AXIS2_PLACEMENT_3D('',#302,#242,#243);
#214=AXIS2_PLACEMENT_3D('',#308,#247,#248);
#215=AXIS2_PLACEMENT_3D('',#314,#252,#253);
#216=AXIS2_PLACEMENT_3D('',#315,#254,#255);
#217=AXIS2_PLACEMENT_3D('',#317,#256,#257);
#218=AXIS2_PLACEMENT_3D('',#319,#258,#259);
#219=AXIS2_PLACEMENT_3D('',#322,#262,#263);
#220=AXIS2_PLACEMENT_3D('',#323,#264,#265);
#221=AXIS2_PLACEMENT_3D('',#325,#266,#267);
#222=AXIS2_PLACEMENT_3D('',#326,#268,#269);
#223=AXIS2_PLACEMENT_3D('',#328,#270,#271);
#224=AXIS2_PLACEMENT_3D('',#330,#272,#273);
#225=AXIS2_PLACEMENT_3D('',#331,#274,#275);
#226=AXIS2_PLACEMENT_3D('',#333,#276,#277);
#227=AXIS2_PLACEMENT_3D('',#335,#278,#279);
#228=AXIS2_PLACEMENT_3D('',#336,#280,#281);
#229=AXIS2_PLACEMENT_3D('',#337,#282,#283);
#230=AXIS2_PLACEMENT_3D('',#339,#284,#285);
#231=AXIS2_PLACEMENT_3D('',#341,#286,#287);
#232=AXIS2_PLACEMENT_3D('',#342,#288,#289);
#233=AXIS2_PLACEMENT_3D('',#343,#290,#291);
#234=DIRECTION('',(0.,0.,1.));
#235=DIRECTION('',(1.,0.,0.));
#236=DIRECTION('',(0.,0.,1.));
#237=DIRECTION('',(1.,0.,0.));
#238=DIRECTION('',(1.,0.,0.));
#239=DIRECTION('',(0.,1.,0.));
#240=DIRECTION('',(1.,0.,0.));
#241=DIRECTION('',(0.,1.,0.));
#242=DIRECTION('',(1.,0.,0.));
#243=DIRECTION('',(0.,0.,-1.));
#244=DIRECTION('',(0.,0.,-1.));
#245=DIRECTION('',(0.,1.,0.));
#246=DIRECTION('',(0.,0.,-1.));
#247=DIRECTION('',(0.,0.,1.));
#248=DIRECTION('',(1.,0.,0.));
#249=DIRECTION('',(1.,0.,0.));
#250=DIRECTION('',(0.,1.,0.));
#251=DIRECTION('',(1.,0.,0.));
#252=DIRECTION('',(0.,1.,0.));
#253=DIRECTION('',(0.,0.,1.));
#254=DIRECTION('',(0.,-1.,0.));
#255=DIRECTION('',(0.,0.,-1.));
#256=DIRECTION('',(0.,-1.,0.));
#257=DIRECTION('',(0.,0.,-1.));
#258=DIRECTION('',(1.,0.,0.));
#259=DIRECTION('',(0.,0.,-1.));
#260=DIRECTION('',(0.,0.,-1.));
#261=DIRECTION('',(0.,0.,-1.));
#262=DIRECTION('',(0.,-1.,0.));
#263=DIRECTION('',(1.,0.,0.));
#264=DIRECTION('',(0.,-1.,0.));
#265=DIRECTION('',(0.,0.,-1.));
#266=DIRECTION('',(0.,-1.,0.));
#267=DIRECTION('',(1.,0.,0.));
#268=DIRECTION('',(0.,1.,0.));
#269=DIRECTION('',(0.,0.,1.));
#270=DIRECTION('',(0.,1.,0.));
#271=DIRECTION('',(0.,0.,1.));
#272=DIRECTION('',(0.,1.,0.));
#273=DIRECTION('',(-1.,0.,0.));
#274=DIRECTION('',(0.,1.,0.));
#275=DIRECTION('',(0.,0.,1.));
#276=DIRECTION('',(0.,1.,0.));
#277=DIRECTION('',(0.,0.,1.));
#278=DIRECTION('',(0.,-1.,0.));
#279=DIRECTION('',(0.,0.,-1.));
#280=DIRECTION('',(0.,1.,0.));
#281=DIRECTION('',(-1.,0.,0.));
#282=DIRECTION('',(0.,1.,0.));
#283=DIRECTION('',(0.,0.,1.));
#284=DIRECTION('',(0.,1.,0.));
#285=DIRECTION('',(0.,0.,1.));
#286=DIRECTION('',(0.,-1.,0.));
#287=DIRECTION('',(0.,0.,-1.));
#288=DIRECTION('',(0.,-1.,0.));
#289=DIRECTION('',(0.,0.,-1.));
#290=DIRECTION('',(0.,-1.,0.));
#291=DIRECTION('',(0.,0.,-1.));
#292=CARTESIAN_POINT('',(0.,0.,0.));
#293=CARTESIAN_POINT('',(0.120550775900483,-0.1378,0.0267003942281008));
#294=CARTESIAN_POINT('',(0.120550775900483,-0.1339,0.0267003942281008));
#295=CARTESIAN_POINT('',(0.0609588213264942,-0.1339,0.0267003942281008));
#296=CARTESIAN_POINT('',(0.180142730474472,-0.1339,0.0267003942281008));
#297=CARTESIAN_POINT('',(0.0609588213264942,-0.1378,0.0267003942281008));
#298=CARTESIAN_POINT('',(0.0609588213264942,-0.1378,0.0267003942281008));
#299=CARTESIAN_POINT('',(0.120550775900483,-0.1378,0.0267003942281008));
#300=CARTESIAN_POINT('',(0.180142730474472,-0.1378,0.0267003942281008));
#301=CARTESIAN_POINT('',(0.180142730474472,-0.1378,0.0267003942281008));
#302=CARTESIAN_POINT('',(0.0609588213264942,-0.1378,0.0141152656869963));
#303=CARTESIAN_POINT('',(0.0609588213264942,-0.1339,0.0141152656869963));
#304=CARTESIAN_POINT('',(0.0609588213264942,-0.1339,0.00153013714589178));
#305=CARTESIAN_POINT('',(0.0609588213264942,-0.1378,0.00153013714589178));
#306=CARTESIAN_POINT('',(0.0609588213264942,-0.1378,0.00153013714589178));
#307=CARTESIAN_POINT('',(0.0609588213264942,-0.1378,0.0141152656869963));
#308=CARTESIAN_POINT('',(0.120550775900483,-0.1378,0.00153013714589178));
#309=CARTESIAN_POINT('',(0.120550775900483,-0.1339,0.00153013714589178));
#310=CARTESIAN_POINT('',(0.180142730474472,-0.1339,0.00153013714589178));
#311=CARTESIAN_POINT('',(0.180142730474472,-0.1378,0.00153013714589178));
#312=CARTESIAN_POINT('',(0.180142730474472,-0.1378,0.00153013714589178));
#313=CARTESIAN_POINT('',(0.120550775900483,-0.1378,0.00153013714589178));
#314=CARTESIAN_POINT('',(0.177188575267792,-0.1378,0.0135992728173733));
#315=CARTESIAN_POINT('',(0.177188575267792,-0.1378,0.0135992728173733));
#316=CARTESIAN_POINT('',(0.177188575267792,-0.1378,0.0123058896099406));
#317=CARTESIAN_POINT('',(0.177188575267792,-0.1339,0.0135992728173733));
#318=CARTESIAN_POINT('',(0.177188575267792,-0.1339,0.0123044076471565));
#319=CARTESIAN_POINT('',(0.180142730474472,-0.1378,0.0141152656869963));
#320=CARTESIAN_POINT('',(0.180142730474472,-0.1339,0.0141152656869963));
#321=CARTESIAN_POINT('',(0.180142730474472,-0.1378,0.0141152656869963));
#322=CARTESIAN_POINT('',(0.120550775900483,-0.1378,0.0141152656869963));
#323=CARTESIAN_POINT('',(0.0646215528249741,-0.1378,0.0135860843583941));
#324=CARTESIAN_POINT('',(0.0646215528249741,-0.1378,0.0123118571513422));
#325=CARTESIAN_POINT('',(0.120550775900483,-0.1339,0.0141152656869963));
#326=CARTESIAN_POINT('',(0.0646215528249741,-0.1339,0.0135860843583941));
#327=CARTESIAN_POINT('',(0.0646215528249741,-0.1339,0.01578890393981));
#328=CARTESIAN_POINT('',(0.177188575267792,-0.1339,0.0135992728173733));
#329=CARTESIAN_POINT('',(0.177188575267792,-0.1339,0.0158788392231284));
#330=CARTESIAN_POINT('',(0.120943437458553,-0.1232,0.0135992728173733));
#331=CARTESIAN_POINT('',(0.177188575267792,-0.1232,0.0135992728173733));
#332=CARTESIAN_POINT('',(0.177188575267792,-0.1232,0.0148941379875901));
#333=CARTESIAN_POINT('',(0.177188575267792,-0.1232,0.0135992728173733));
#334=CARTESIAN_POINT('',(0.177188575267792,-0.1232,0.0158788392231284));
#335=CARTESIAN_POINT('',(0.177188575267792,-0.1232,0.0135992728173733));
#336=CARTESIAN_POINT('',(0.120943437458553,-0.1232,0.0135992728173733));
#337=CARTESIAN_POINT('',(0.0646215528249741,-0.1232,0.0135860843583941));
#338=CARTESIAN_POINT('',(0.0646215528249741,-0.1232,0.0148603115654461));
#339=CARTESIAN_POINT('',(0.0646215528249741,-0.1232,0.0135860843583941));
#340=CARTESIAN_POINT('',(0.0646215528249741,-0.1232,0.01578890393981));
#341=CARTESIAN_POINT('',(0.0646215528249741,-0.1232,0.0135860843583941));
#342=CARTESIAN_POINT('',(0.0646215528249741,-0.1128,0.0135860843583941));
#343=CARTESIAN_POINT('',(0.177188575267792,-0.1128,0.0135992728173733));
#344=MECHANICAL_DESIGN_GEOMETRIC_PRESENTATION_REPRESENTATION('',(#200),
#345);
#345=(
GEOMETRIC_REPRESENTATION_CONTEXT(3)
GLOBAL_UNCERTAINTY_ASSIGNED_CONTEXT((#346))
GLOBAL_UNIT_ASSIGNED_CONTEXT((#349,#348,#347))
REPRESENTATION_CONTEXT('Part 3','TOP_LEVEL_ASSEMBLY_PART')
);
#346=UNCERTAINTY_MEASURE_WITH_UNIT(LENGTH_MEASURE(2.E-5),#349,
'DISTANCE_ACCURACY_VALUE','Maximum Tolerance applied to model');
#347=(
NAMED_UNIT(*)
SI_UNIT($,.STERADIAN.)
SOLID_ANGLE_UNIT()
);
#348=(
NAMED_UNIT(*)
PLANE_ANGLE_UNIT()
SI_UNIT($,.RADIAN.)
);
#349=(
LENGTH_UNIT()
NAMED_UNIT(*)
SI_UNIT($,.METRE.)
);
#350=PRODUCT_DEFINITION_SHAPE('','',#351);
#351=PRODUCT_DEFINITION('','',#353,#352);
#352=PRODUCT_DEFINITION_CONTEXT('',#359,'design');
#353=PRODUCT_DEFINITION_FORMATION_WITH_SPECIFIED_SOURCE('','',#355,
 .NOT_KNOWN.);
#354=PRODUCT_RELATED_PRODUCT_CATEGORY('','',(#355));
#355=PRODUCT('Part 3','Part 3','Part 3',(#357));
#356=PRODUCT_CATEGORY('','');
#357=PRODUCT_CONTEXT('',#359,'mechanical');
#358=APPLICATION_PROTOCOL_DEFINITION('international standard',
'ap242_managed_model_based_3d_engineering',2020,#359);
#359=APPLICATION_CONTEXT('managed model based 3d engineering');
ENDSEC;
END-ISO-10303-21;
